<svg xmlns="http://www.w3.org/2000/svg" width="90.69" height="40" viewBox="0 0 90.69 40">
    <path d="M37.8,0a1.19,1.19,0,0,1,1,1.89L12.46,37.45A6.32,6.32,0,0,1,7.4,40H2.7A2.55,2.55,0,0,1,.16,37.45V30.83a1.73,1.73,0,0,1,.35-1.06L7.1,21.08A1,1,0,0,1,9,21.71v5.88a.15.15,0,0,0,.27.09L29.15.75A1.85,1.85,0,0,1,30.63,0Z" transform="translate(-0.16)" fill="#000"/>
    <path d="M25.75,40a2.28,2.28,0,0,0,1.83-.92l19-25.72a.58.58,0,0,1,1,.34v4.36a1.13,1.13,0,0,0,2,.68l6.71-8.86a.43.43,0,0,0,.09-.26V2.52A2.52,2.52,0,0,0,53.92,0H49.2a6.29,6.29,0,0,0-5.06,2.55L17,39.32a.43.43,0,0,0,.34.68Z" transform="translate(-0.16)" fill="#000"/>
    <path d="M46,40a1.85,1.85,0,0,0,1.48-.75L66,14.14a.57.57,0,0,1,1,.34v24A1.52,1.52,0,0,0,68.56,40h6.33a1.54,1.54,0,0,0,1.55-1.55V2.55A2.55,2.55,0,0,0,73.89,0H69.2a6.29,6.29,0,0,0-5.06,2.55L36.94,39.32a.43.43,0,0,0,.35.68Z" transform="translate(-0.16)" fill="#000"/>
    <path d="M83.49,2.38H85.8A1.47,1.47,0,0,1,87.45,4c0,.82-.33,1.38-1,1.53v0c.85.11,1,.58,1,1.89,0,.65,0,1,.27,1.11v.05H86.34a1.23,1.23,0,0,1-.16-.65l0-1.19c0-.49-.24-.78-.74-.78h-.67V8.58H83.49Zm1.25,2.71h.52c.6,0,.94-.26.94-.93a.77.77,0,0,0-.87-.86h-.59Z" transform="translate(-0.16)" fill="#000"/>
    <path d="M89.23,1.61a5.59,5.59,0,0,0-6.44-1A4.9,4.9,0,0,0,80.42,3a5.57,5.57,0,0,0,1,6.43A5.47,5.47,0,0,0,85.33,11a6.16,6.16,0,0,0,2.56-.59,4.84,4.84,0,0,0,2.37-2.37A5.57,5.57,0,0,0,89.23,1.61Zm-.57,7.21a4.7,4.7,0,0,1-8-3,4.71,4.71,0,0,1,4.7-5h.3a4.7,4.7,0,0,1,3,8Z" transform="translate(-0.16)" fill="#000"/>
</svg>