<svg width="166" height="32" viewBox="0 0 166 32" fill="none" xmlns="http://www.w3.org/2000/svg">
<path d="M15.2529 31.7472L14.0438 29.0365H5.91008L4.55504 31.7472H0L6.942 17.4258H13.005L19.9226 31.7472H15.2529ZM7.00107 26.1151H12.9181L10.274 20.1472H9.66946L6.99759 26.1151H7.00107Z" fill="white"/>
<path d="M53.3259 31.7468V20.2718H47.4609V17.4004H63.4887V20.2718H57.5508V31.7468H53.3259Z" fill="white"/>
<path d="M73.6373 17.4258H69.4609V31.7472H73.6373V17.4258Z" fill="white"/>
<path d="M110.159 32.0008C108.565 32.0008 107.366 31.6186 106.594 30.8651C105.827 30.1151 105.438 28.8972 105.438 27.2472V17.4258H109.687V26.7901C109.687 27.6186 109.895 28.2151 110.305 28.5686C110.701 28.9079 111.25 29.0794 111.938 29.0794H115.117C116.591 29.0794 117.369 28.2901 117.369 26.7936V17.4294H121.542V27.2508C121.542 28.9186 121.156 30.1401 120.395 30.8794C119.631 31.6258 118.436 32.0044 116.841 32.0044H110.163L110.159 32.0008Z" fill="white"/>
<path d="M93.3393 32.0004V22.6362C93.3393 21.8076 93.1308 21.2112 92.7208 20.8576C92.3247 20.5183 91.7758 20.3469 91.0878 20.3469H87.9087C86.4355 20.3469 85.6572 21.1362 85.6572 22.6326V31.9969H81.4844V22.1754C81.4844 20.5076 81.87 19.2862 82.631 18.5469C83.3953 17.8004 84.5906 17.4219 86.1853 17.4219H92.8633C94.4581 17.4219 95.6568 17.804 96.4281 18.5612C97.1959 19.3112 97.5851 20.529 97.5851 22.179V32.0004H93.3358H93.3393Z" fill="white"/>
<path d="M128.511 31.7472V28.7615H139.258C139.56 28.7151 139.772 28.6401 139.921 28.5294C140.12 28.3829 140.356 28.0901 140.356 27.5508V27.2972C140.356 26.8008 140.22 26.4401 139.949 26.2329C139.699 26.0401 139.275 25.9472 138.625 25.9472H132.986C131.385 25.9472 130.224 25.6508 129.529 25.0615C128.852 24.4901 128.508 23.5186 128.508 22.1794V21.2686C128.508 20.1008 128.831 19.1579 129.467 18.4651C130.099 17.7758 131.201 17.4294 132.74 17.4294H133.018V17.4258H143.469V20.2686L134.463 20.2758C133.876 20.2758 133.466 20.3615 133.212 20.5401C132.931 20.7365 132.778 21.0794 132.757 21.5615V21.7508C132.757 22.2401 132.91 22.5901 133.216 22.7972C133.483 22.9829 133.904 23.0722 134.491 23.0722H139.911C141.009 23.0722 141.916 23.1829 142.6 23.4008C143.257 23.6115 143.743 23.9758 144.087 24.5115C144.431 25.0508 144.609 25.8508 144.609 26.8865V27.7972C144.609 30.4508 143.313 31.7401 140.651 31.7401H128.518L128.511 31.7472Z" fill="white"/>
<path d="M41.5343 32.0004C40.7456 32.0004 39.9743 31.8754 39.2412 31.6325C38.522 31.3932 37.8201 30.9182 37.1496 30.2111L36.1107 29.1468C35.5617 28.5968 35.051 28.1575 34.5923 27.8325C34.1233 27.504 33.5813 27.254 32.9767 27.0932C32.3826 26.9361 31.646 26.8575 30.7878 26.8575H30.3118V31.7468H26.0625V17.4004H36.948C38.7617 17.4004 40.009 17.7897 40.6553 18.554C41.312 19.3325 41.6455 20.3718 41.6455 21.6468V22.129C41.6455 23.129 41.4023 24.004 40.9194 24.729C40.4399 25.4504 39.6998 25.9718 38.7131 26.2897L38.112 26.4825L38.6575 26.8111C38.852 26.9254 39.0223 27.0397 39.1717 27.1432C39.3315 27.254 39.4775 27.354 39.613 27.4397C40.1619 27.8397 40.6692 28.1682 41.107 28.4111C41.8088 28.8254 42.4829 29.1075 43.0979 29.2504C43.216 29.2754 43.3167 29.2968 43.414 29.3147V31.8111C42.8268 31.9361 42.1945 32.0004 41.5309 32.0004H41.5343ZM30.3153 23.9432L30.5758 23.9611C31.6599 24.029 32.6258 24.0647 33.4492 24.0647C34.3769 24.0647 35.1413 24.029 35.725 23.9611C36.3226 23.8861 36.7604 23.6754 37.0279 23.3397C37.292 23.0075 37.424 22.579 37.424 22.0575V21.779C37.424 21.3075 37.2851 20.9397 37.0106 20.6897C36.7396 20.4432 36.3157 20.3254 35.7181 20.3254H30.3153V23.9468V23.9432Z" fill="white"/>
<path d="M166.004 10.0821C166.004 9.55714 164.197 9.06786 161.118 8.66786C161.33 8.31786 161.629 8.01071 162.018 7.78214V7.75357C160.712 7.79643 159.454 7.84643 158.252 7.90357C157.189 7.95714 156.195 8.45357 155.497 9.27857C155.392 9.4 155.243 9.475 155.083 9.48214C155.017 9.48214 154.951 9.48929 154.885 9.49286C154.583 9.50714 154.326 9.27857 154.288 8.96786C154.288 8.96786 154.288 8.96429 154.288 8.96071C154.267 8.79643 154.319 8.62857 154.427 8.50357C155.139 7.66429 155.469 6.54643 155.34 5.43929C154.941 2.02143 154.447 0 153.916 0C153.381 0 152.887 2.02143 152.491 5.43929C152.363 6.54643 152.696 7.66071 153.405 8.50357C153.513 8.62857 153.561 8.79643 153.544 8.96071C153.544 8.96071 153.544 8.96429 153.544 8.96786C153.506 9.275 153.249 9.50357 152.946 9.49286C152.88 9.49286 152.814 9.48571 152.748 9.48214C152.589 9.475 152.439 9.40357 152.335 9.27857C151.637 8.45357 150.643 7.95714 149.58 7.90357C148.374 7.84643 147.116 7.79286 145.813 7.75V7.77857C146.199 8.00714 146.498 8.31429 146.713 8.66429C143.635 9.06429 141.828 9.55357 141.828 10.0786C141.828 10.6036 143.635 11.0929 146.713 11.4929C146.501 11.8429 146.199 12.15 145.813 12.3786V12.4071C147.224 12.3607 148.583 12.3071 149.875 12.2393C150.546 12.2071 151.171 11.8893 151.612 11.3679C151.97 10.9429 152.488 10.6893 153.033 10.6607C153.158 10.6536 153.28 10.65 153.398 10.6429V10.65C153.37 11.1071 153.197 11.5393 152.901 11.8857C152.3 12.5964 151.946 13.4893 151.894 14.4321C151.796 16.2143 151.713 18.1321 151.65 20.1607H151.678C152.672 18.3893 155.16 18.3893 156.153 20.1607H156.181C156.119 18.1321 156.039 16.2143 155.938 14.4321C155.886 13.4929 155.531 12.6 154.93 11.8857C154.639 11.5393 154.465 11.1071 154.437 10.65V10.6429C154.555 10.65 154.677 10.6571 154.802 10.6607C155.347 10.6857 155.865 10.9429 156.223 11.3679C156.664 11.8893 157.29 12.2036 157.96 12.2393C159.253 12.3036 160.611 12.3607 162.022 12.4071V12.3786C161.636 12.15 161.337 11.8429 161.122 11.4929C164.2 11.0929 166.007 10.6036 166.007 10.0786L166.004 10.0821Z" fill="white"/>
<defs>
<clipPath id="clip0_3693_10575">
<rect width="166" height="32" fill="white"/>
</clipPath>
</defs>
</svg>
