<svg width="72" height="60" viewBox="0 0 72 60" fill="none" xmlns="http://www.w3.org/2000/svg">
<path d="M71.948 30.0053C71.948 28.4429 66.5711 26.9867 57.4095 25.7963C58.0403 24.7547 58.9295 23.8406 60.0877 23.1603V23.0753C56.1997 23.2028 52.4565 23.3516 48.8787 23.5217C45.7146 23.6811 42.7573 25.1585 40.6789 27.6138C40.3687 27.9752 39.924 28.1984 39.4484 28.2197C39.2519 28.2197 39.0554 28.2409 38.859 28.2516C37.9593 28.2941 37.1942 27.6138 37.0804 26.6891C37.0804 26.6891 37.0804 26.6785 37.0804 26.6678C37.0184 26.1789 37.1735 25.6794 37.4941 25.3074C39.6138 22.8096 40.5961 19.4827 40.2135 16.1878C39.0244 6.01594 37.5561 0 35.974 0C34.3816 0 32.9133 6.01594 31.7345 16.1878C31.3519 19.4827 32.3446 22.7989 34.454 25.3074C34.7745 25.6794 34.9193 26.1789 34.8676 26.6678C34.8676 26.6678 34.8676 26.6785 34.8676 26.6891C34.7539 27.6032 33.9887 28.2834 33.0891 28.2516C32.8926 28.2516 32.6961 28.2303 32.4997 28.2197C32.024 28.1984 31.5794 27.9858 31.2692 27.6138C29.1908 25.1585 26.2334 23.6811 23.0693 23.5217C19.4812 23.3516 15.738 23.1922 11.8604 23.0647V23.1497C13.0081 23.8299 13.8974 24.744 14.5385 25.7857C5.37697 26.9761 0 28.4322 0 29.9947C0 31.5571 5.37697 33.0133 14.5385 34.2037C13.9077 35.2453 13.0081 36.1594 11.8604 36.8397V36.9247C16.0585 36.7865 20.1016 36.6271 23.9482 36.4252C25.9439 36.3295 27.8052 35.3835 29.1184 33.8317C30.1834 32.5669 31.7241 31.8122 33.3476 31.7272C33.7198 31.7059 34.0817 31.6953 34.4333 31.674V31.6953C34.3506 33.0558 33.8336 34.3419 32.9546 35.3729C31.1658 37.488 30.1111 40.1453 29.9559 42.9513C29.6664 48.2551 29.4182 53.9628 29.2321 60H29.3148C32.2722 54.7281 39.6759 54.7281 42.6332 60H42.7159C42.5298 53.9628 42.2919 48.2551 41.9921 42.9513C41.837 40.1559 40.7823 37.4987 38.9934 35.3729C38.1248 34.3419 37.6078 33.0558 37.5251 31.6953V31.674C37.8766 31.6953 38.2385 31.7166 38.6108 31.7272C40.2342 31.8016 41.7749 32.5669 42.84 33.8317C44.1532 35.3835 46.0145 36.3189 48.0102 36.4252C51.8568 36.6165 55.8998 36.7865 60.098 36.9247V36.8397C58.9502 36.1594 58.061 35.2453 57.4199 34.2037C66.5814 33.0133 71.9584 31.5571 71.9584 29.9947L71.948 30.0053Z" fill="white"/>
</svg>
