<svg xmlns="http://www.w3.org/2000/svg" width="126.59" height="28" viewBox="0 0 126.59 28">
<path d="M38.45,23.44c0-1.1-.07-2.32-.07-3.42V15.89a6.88,6.88,0,0,0-.81-3.57,4.32,4.32,0,0,0-4-2.21c-2.06,0-3.39,1-4.66,3.08a.18.18,0,0,1-.31,0,4.46,4.46,0,0,0-.41-.85,4.29,4.29,0,0,0-3.94-2.21c-2,0-3.21,1-4.3,2.7a.18.18,0,0,1-.32-.11c0-.59.07-1.07.15-1.71a.35.35,0,0,0-.49-.37,51.62,51.62,0,0,1-4.85,1.9.35.35,0,0,0-.12.6,3.4,3.4,0,0,1,.94,2.37,30.33,30.33,0,0,1,.11,3.16V20c0,1.1,0,2.32-.07,3.42a4.87,4.87,0,0,1-.79,2.74.35.35,0,0,0,.3.55c.79,0,2-.08,2.66-.08s1.83.05,2.56.08a.34.34,0,0,0,.32-.5,6.48,6.48,0,0,1-.59-2.79c0-1.1-.08-2.32-.08-3.42V16.55c0-1.87,1.07-3.2,2.8-3.2,1.44,0,2.21,1,2.21,2.65v4c0,1.1,0,2.32-.07,3.42a4.8,4.8,0,0,1-.79,2.74.35.35,0,0,0,.3.55c.79,0,2-.08,2.66-.08s1.83.05,2.56.08a.35.35,0,0,0,.33-.5,6.33,6.33,0,0,1-.6-2.79c0-1.1-.08-2.32-.08-3.42V16.55c0-1.87,1.07-3.2,2.81-3.2,1.43,0,2.21,1,2.21,2.65v4c0,1.1,0,2.32-.08,3.42a4.8,4.8,0,0,1-.79,2.74.35.35,0,0,0,.3.55c.8,0,2-.08,2.67-.08s1.83.05,2.55.08a.35.35,0,0,0,.33-.5,6.33,6.33,0,0,1-.6-2.79" transform="translate(-0.21)" fill="#fff"/>
<path d="M48,12.35c1.81,0,3,2,4.4,5.35a.35.35,0,0,0,.62.05,7.25,7.25,0,0,0,1.2-4c0-.49,0-.93-.06-1.34a1.71,1.71,0,0,0-1-1.45,12,12,0,0,0-4.73-.82,8.72,8.72,0,0,0-8.73,9A8.19,8.19,0,0,0,48,27.39c3.45,0,5.91-2.06,6.26-5.91a.35.35,0,0,0-.6-.27,6.47,6.47,0,0,1-4.74,2.34c-3,0-4.79-2.24-4.79-5.67,0-3.61,1.77-5.53,3.91-5.53" transform="translate(-0.21)" fill="#fff"/>
<path d="M93.1,10.53a.34.34,0,0,0-.33-.49c-1.09.05-2.46.08-3.68.11a.34.34,0,0,1-.35-.35V8.44c0-4.83.52-6.27,2.11-6.27,1.11,0,2.21,1.47,3.69,4.58a.35.35,0,0,0,.63,0,7.4,7.4,0,0,0,1-3.53,10.31,10.31,0,0,0-.11-1.44A1.8,1.8,0,0,0,94.79.36,11.81,11.81,0,0,0,91.7,0a6.61,6.61,0,0,0-4.31,1.47.34.34,0,0,1-.52-.07,1.5,1.5,0,0,0-.21-.26,3.35,3.35,0,0,0-2-1,13.53,13.53,0,0,0-2-.13c-3.94,0-7.06,2.73-8.09,7.33-.52,3.2-2.25,2.8-3.22,3.92a.33.33,0,0,0,0,.39c.29.53,2.87,1.35,2.87,2.38v6c0,1.11,0,2.33-.08,3.43a5.12,5.12,0,0,1-.84,2.75.36.36,0,0,0,.31.54c.79,0,2.07-.08,2.71-.08s2.13,0,3,.08a.34.34,0,0,0,.29-.54,5.34,5.34,0,0,1-1-2.75c-.07-1.1-.14-2.32-.14-3.43V13.67a.35.35,0,0,1,.35-.35l5.21,0a.35.35,0,0,1,.34.35v6.36c0,1.11,0,2.33-.07,3.43a5.12,5.12,0,0,1-.84,2.75.35.35,0,0,0,.31.54c.79,0,2.07-.08,2.71-.08s2.13,0,3,.08a.34.34,0,0,0,.29-.54,5.34,5.34,0,0,1-1-2.75c-.07-1.1-.14-2.32-.14-3.43V13.4a.35.35,0,0,1,.34-.35h1.7a.36.36,0,0,0,.32-.2Zm-8.32-3.6c-.41,1.84-2.16,3.83-3.74,3.81-1.74,0-3.07-1.33-2.44-4.21a5.15,5.15,0,0,1,3.89-4.1c1.47-.17,3,1.26,2.29,4.5" transform="translate(-0.21)" fill="#fff"/>
<path d="M99.42,10.11c-4.57,0-8.33,3.68-8.33,9a8.16,8.16,0,0,0,8.33,8.25c5.33,0,6.25-4.2,6.39-6.11a.35.35,0,0,0-.59-.27A7.07,7.07,0,0,1,100,23.52c-2.87,0-4.64-2.29-4.64-5.38l0-.52h10.49a.52.52,0,0,0,.52-.48c0-.19,0-.36,0-.59,0-3.72-2.76-6.44-7-6.44m2.1,5.6H96a.35.35,0,0,1-.33-.46,3.77,3.77,0,0,1,3.42-3c1.54,0,2.58.93,2.75,3.1a.35.35,0,0,1-.35.37" transform="translate(-0.21)" fill="#fff"/>
<path d="M115.45,10.11c-4.57,0-8.33,3.68-8.33,9a8.16,8.16,0,0,0,8.33,8.25c5.33,0,6.25-4.2,6.39-6.11a.34.34,0,0,0-.59-.27A7.06,7.06,0,0,1,116,23.52c-2.87,0-4.64-2.29-4.64-5.38a2.6,2.6,0,0,1,0-.52h10.48a.52.52,0,0,0,.52-.48c0-.19,0-.36,0-.59,0-3.72-2.76-6.44-7-6.44m2.1,5.6h-5.48a.36.36,0,0,1-.34-.46,3.77,3.77,0,0,1,3.42-3c1.54,0,2.58.93,2.75,3.1a.35.35,0,0,1-.35.37" transform="translate(-0.21)" fill="#fff"/>
<path d="M13.17,4c-.9,0-2.45.09-3,.09S8,4,7.07,4a.35.35,0,0,0-.31.53,7.13,7.13,0,0,1,1,3.54c.07,1.25.07,11.17.07,11.17a11.31,11.31,0,0,1-.52,4.16,3,3,0,0,1-3.09,2,7.09,7.09,0,0,1-3.41-1.5.35.35,0,0,0-.55.33C.6,26.72,2.86,28,5.27,28c4.43,0,7.19-2.73,7.19-7.52,0,0,0-11.17.07-12.42a7.23,7.23,0,0,1,.94-3.54.34.34,0,0,0-.3-.53" transform="translate(-0.21)" fill="#fff"/>
<path d="M63.77,10.14a8.49,8.49,0,0,1,8.88,8.62A8.54,8.54,0,0,1,64,27.39c-5.35,0-9-3.76-9-8.63a8.66,8.66,0,0,1,8.84-8.62m-4.12,8.33c0,4.38,1.69,6.78,4.34,6.78,2.33,0,3.91-2.14,3.91-6.23s-2-6.74-4.24-6.74-4,2-4,6.19" transform="translate(-0.21)" fill="#fff"/>
<path d="M126.63,24.1a2.12,2.12,0,0,0-.44-.66,2,2,0,0,0-.66-.44,1.93,1.93,0,0,0-.79-.17,2,2,0,0,0-.8.17,2,2,0,0,0-.65.44,2,2,0,0,0-.44.66,1.9,1.9,0,0,0-.17.79,1.93,1.93,0,0,0,.17.79,2,2,0,0,0,.44.66,2.2,2.2,0,0,0,.65.44,2,2,0,0,0,.8.16,1.92,1.92,0,0,0,.79-.16,2,2,0,0,0,1.1-1.1,2,2,0,0,0,0-1.58m-1.32,2.15a1.56,1.56,0,0,1-.57.11,1.48,1.48,0,0,1-.57-.11,1.51,1.51,0,0,1-.47-.32,1.53,1.53,0,0,1-.43-1,1.48,1.48,0,0,1,.11-.57,1.52,1.52,0,0,1,.79-.79,1.48,1.48,0,0,1,.57-.11,1.56,1.56,0,0,1,.57.11,1.51,1.51,0,0,1,.47.32,1.38,1.38,0,0,1,.31.47,1.32,1.32,0,0,1,.12.57,1.49,1.49,0,0,1-.9,1.36Z" transform="translate(-0.21)" fill="#fff"/>
<path d="M125.51,24.59a.58.58,0,0,1-.08.3.64.64,0,0,1-.2.2l.24.4a.22.22,0,0,1-.19.34h0a.22.22,0,0,1-.2-.11l-.29-.51h-.3v.39a.23.23,0,0,1-.23.23h0a.23.23,0,0,1-.24-.23V24.32a.91.91,0,0,1,0-.17.39.39,0,0,1,.06-.11.24.24,0,0,1,.11-.06.5.5,0,0,1,.18,0h.43a1.27,1.27,0,0,1,.28,0,.76.76,0,0,1,.22.11.7.7,0,0,1,.15.19.78.78,0,0,1,.05.28Zm-1,.22h.31a.21.21,0,0,0,.24-.22h0a.21.21,0,0,0-.24-.22h-.29a.08.08,0,0,0,0,.06Z" transform="translate(-0.21)" fill="#fff"/>
</svg>