<svg width="141" height="60" viewBox="0 0 141 60" fill="none" xmlns="http://www.w3.org/2000/svg">
<path d="M43.9173 40.7918C43.8751 39.5285 43.833 38.1394 43.833 36.8761V32.1609C43.833 30.351 43.4945 29.0877 42.9019 28.0773C41.9708 26.5192 40.4905 25.5508 38.3742 25.5508C36.0027 25.5508 34.4722 26.6519 33.018 29.0719C32.9325 29.2148 32.7171 29.2034 32.6602 29.0469C32.5371 28.7022 32.3775 28.379 32.1952 28.0773C31.222 26.4773 29.7838 25.5508 27.6675 25.5508C25.4122 25.5508 23.9854 26.6508 22.7318 28.6341C22.6236 28.8065 22.3557 28.7203 22.3649 28.5173C22.3956 27.8347 22.4389 27.2881 22.5335 26.5578C22.5734 26.2482 22.2566 26.0135 21.9694 26.1405C19.9842 27.0148 18.3488 27.6623 16.3978 28.3109C16.1027 28.4085 16.0331 28.7782 16.2577 28.9902C16.9334 29.6275 17.207 30.376 17.3426 31.6982C17.4691 32.9184 17.4691 34.0978 17.4691 35.3191V36.8772C17.4691 38.1405 17.4269 39.5297 17.3847 40.7929C17.3505 42.1129 17.0702 43.0247 16.4787 43.9217C16.2975 44.1961 16.4901 44.5601 16.8206 44.5465C17.7346 44.5091 19.166 44.4558 19.8816 44.4558C20.5973 44.4558 21.9842 44.5113 22.8184 44.5488C23.1227 44.5624 23.3244 44.2471 23.1911 43.975C22.7455 43.0598 22.5392 42.1379 22.505 40.7918C22.4629 39.5285 22.4207 38.1394 22.4207 36.8761V32.9184C22.4207 30.7717 23.6481 29.2556 25.6367 29.2556C27.2869 29.2556 28.1758 30.393 28.1758 32.2879V36.8772C28.1758 38.1405 28.1336 39.5297 28.0914 40.7929C28.0572 42.1129 27.7769 43.0247 27.1854 43.9217C27.0042 44.1961 27.1968 44.5601 27.5273 44.5465C28.4413 44.5091 29.8727 44.4558 30.5883 44.4558C31.304 44.4558 32.6909 44.5113 33.5251 44.5488C33.8294 44.5624 34.0311 44.2471 33.8978 43.975C33.4522 43.0598 33.2471 42.1379 33.2117 40.7918C33.1696 39.5285 33.1274 38.1394 33.1274 36.8761V32.9184C33.1274 30.7717 34.3548 29.2556 36.3434 29.2556C37.9936 29.2556 38.8825 30.393 38.8825 32.2879V36.8772C38.8825 38.1405 38.8403 39.5297 38.7981 40.7929C38.764 42.1129 38.4847 43.0247 37.8921 43.9217C37.7109 44.1961 37.9035 44.5601 38.234 44.5465C39.148 44.5091 40.5794 44.4558 41.295 44.4558C42.0107 44.4558 43.3976 44.5113 44.2318 44.5488C44.5361 44.5624 44.7378 44.2471 44.6045 43.975C44.1589 43.0598 43.9538 42.1379 43.9184 40.7918H43.9173Z" fill="white"/>
<path d="M54.9266 28.1086C57.0076 28.1086 58.3705 30.3698 59.9797 34.2141C60.1062 34.5157 60.5164 34.5475 60.6954 34.273C61.6549 32.8079 62.0777 31.2589 62.0777 29.7087C62.0777 29.1439 62.0538 28.6393 62.0116 28.1698C61.9467 27.4441 61.4999 26.7954 60.8241 26.5153C59.2526 25.8621 57.5341 25.582 55.3927 25.582C50.0194 25.582 45.3652 29.7506 45.3652 35.855C45.3652 40.9081 49.3003 45.2865 54.8856 45.2865C58.8446 45.2865 61.6789 42.938 62.0732 38.5414C62.1062 38.1718 61.6481 37.9699 61.386 38.2341C59.7449 39.8875 58.1164 40.9081 55.9432 40.9081C52.5163 40.9081 50.4422 38.3396 50.4422 34.4239C50.4422 30.2972 52.473 28.1075 54.9278 28.1075L54.9266 28.1086Z" fill="white"/>
<path d="M106.682 26.0307C106.805 25.7608 106.594 25.4568 106.297 25.4705C105.048 25.5283 103.476 25.5634 102.072 25.5963C101.848 25.602 101.666 25.4217 101.666 25.1983V23.6413C101.666 18.1255 102.272 16.4835 104.092 16.4835C105.365 16.4835 106.638 18.1573 108.332 21.7158C108.475 22.0151 108.899 22.0276 109.058 21.7373C109.768 20.4366 110.228 19.1008 110.228 17.7048C110.228 17.1741 110.185 16.615 110.094 16.0605C109.964 15.269 109.4 14.6226 108.622 14.4105C107.58 14.127 106.354 14 105.065 14C103.104 14 101.456 14.5908 100.118 15.6829C99.9277 15.8382 99.6496 15.8008 99.5186 15.5944C99.465 15.5094 99.383 15.4107 99.2872 15.3075C98.6878 14.6623 97.865 14.271 96.9909 14.1474C96.2821 14.0476 95.5242 14.0011 94.7413 14.0011C90.2136 14.0011 86.6318 17.1162 85.4466 22.3803C84.8494 26.0352 82.8619 25.5827 81.7463 26.8619C81.6369 26.9866 81.6084 27.159 81.6881 27.303C82.022 27.9074 84.9816 28.8475 84.9816 30.028V36.9194C84.9816 38.1826 84.9395 39.5718 84.8973 40.8351C84.8631 42.1619 84.4973 43.0759 83.9343 43.9774C83.7634 44.2507 83.9617 44.6034 84.2853 44.5898C85.1959 44.5523 86.666 44.4968 87.3942 44.4968C88.1657 44.4968 89.8444 44.5546 90.8529 44.592C91.1812 44.6045 91.3726 44.2416 91.1903 43.9706C90.5828 43.0713 90.2056 42.1573 90.1031 40.834C90.0187 39.5707 89.9333 38.1815 89.9333 36.9182V29.622C89.9333 29.402 90.1133 29.2229 90.3344 29.224L96.3197 29.2467C96.5396 29.2467 96.7174 29.4259 96.7174 29.6447V36.9182C96.7174 38.1815 96.6752 39.5707 96.6331 40.834C96.5989 42.1607 96.2331 43.0747 95.6701 43.9763C95.4992 44.2496 95.6975 44.6022 96.0211 44.5886C96.9317 44.5512 98.4018 44.4957 99.13 44.4957C99.9015 44.4957 101.58 44.5535 102.589 44.5909C102.917 44.6034 103.108 44.2405 102.926 43.9695C102.319 43.0702 101.941 42.1562 101.839 40.8328C101.755 39.5695 101.669 38.1804 101.669 36.9171V29.3147C101.669 29.0947 101.848 28.9167 102.069 28.9167H104.019C104.176 28.9167 104.318 28.826 104.382 28.6831L106.685 26.0284L106.682 26.0307ZM97.1265 21.9199C96.6468 24.0223 94.6479 26.2926 92.8302 26.2711C90.8336 26.2472 89.3031 24.7481 90.0301 21.4652C90.6615 18.6165 92.9248 16.9484 94.494 16.7715C96.1806 16.581 97.9721 18.2185 97.1265 21.9199Z" fill="white"/>
<path d="M113.932 25.5508C108.685 25.5508 104.369 29.7613 104.369 35.8249C104.369 40.878 108.262 45.2564 113.932 45.2564C120.053 45.2564 121.11 40.4561 121.274 38.2732C121.302 37.9046 120.853 37.705 120.594 37.9704C118.729 39.8789 116.898 40.878 114.566 40.878C111.266 40.878 109.235 38.2664 109.235 34.7305L109.277 34.1409H121.314C121.628 34.1409 121.891 33.8993 121.914 33.5886C121.928 33.3765 121.928 33.1826 121.928 32.9195C121.928 28.667 118.756 25.5508 113.932 25.5508ZM116.343 31.9511H110.046C109.772 31.9511 109.587 31.6869 109.665 31.4261C110.285 29.3588 111.794 27.9934 113.592 27.9934C115.39 27.9934 116.551 29.0526 116.743 31.5281C116.761 31.7561 116.572 31.9511 116.342 31.9511H116.343Z" fill="white"/>
<path d="M132.34 25.5508C127.093 25.5508 122.777 29.7613 122.777 35.8249C122.777 40.878 126.67 45.2564 132.34 45.2564C138.461 45.2564 139.518 40.4561 139.682 38.2732C139.71 37.9046 139.261 37.705 139.002 37.9704C137.138 39.8789 135.306 40.878 132.975 40.878C129.674 40.878 127.644 38.2664 127.644 34.7305C127.644 34.5616 127.644 34.3937 127.686 34.1409H139.722C140.036 34.1409 140.299 33.8993 140.322 33.5886C140.337 33.3765 140.337 33.1826 140.337 32.9195C140.337 28.667 137.164 25.5508 132.34 25.5508ZM134.751 31.9511H128.454C128.18 31.9511 127.996 31.6869 128.073 31.4261C128.693 29.3588 130.202 27.9934 132 27.9934C133.799 27.9934 134.959 29.0526 135.151 31.5281C135.17 31.7561 134.98 31.9511 134.75 31.9511H134.751Z" fill="white"/>
<path d="M14.8906 18.5628C13.8512 18.6002 12.0757 18.6603 11.4045 18.6603C10.7332 18.6603 8.92808 18.6002 7.87736 18.5628C7.5594 18.5514 7.36339 18.8973 7.53091 19.1672C8.30243 20.4078 8.50415 21.6234 8.61241 23.2088C8.69674 24.6399 8.69674 35.9799 8.69674 35.9799C8.69674 38.0007 8.57024 39.6847 8.10414 40.7371C7.46937 42.2533 6.32748 42.9688 4.54967 42.9688C3.24481 42.9688 1.56274 41.921 0.63281 41.261C0.350185 41.0603 -0.0486811 41.2962 0.00488089 41.6386C0.450471 44.536 3.04766 46 5.81921 46C10.8962 46 14.07 42.8849 14.07 37.4111C14.07 37.4111 14.07 24.6399 14.1544 23.2077C14.2626 21.6235 14.4643 20.4078 15.2359 19.1672C15.4034 18.8984 15.2074 18.5526 14.8894 18.5639L14.8906 18.5628Z" fill="white"/>
<path d="M72.9938 25.582C79.0019 25.582 83.1911 29.8765 83.1911 35.4343C83.1911 40.992 78.9176 45.2865 73.2058 45.2865C67.0701 45.2865 62.8398 40.992 62.8398 35.4343C62.8398 29.8765 67.1977 25.582 72.995 25.582H72.9938ZM68.2553 35.0975C68.2553 40.1075 70.2018 42.8439 73.248 42.8439C75.9135 42.8439 77.7335 40.4023 77.7335 35.728C77.7335 31.0536 75.4486 28.0224 72.8673 28.0224C70.2861 28.0224 68.2553 30.338 68.2553 35.0963V35.0975Z" fill="white"/>
</svg>
