<svg width="24" height="24" viewBox="0 0 24 24" fill="none" xmlns="http://www.w3.org/2000/svg">
<path d="M17.0469 2.5H6.95312C4.49373 2.5 2.5 4.49373 2.5 6.95312V17.0469C2.5 19.5063 4.49373 21.5 6.95312 21.5H17.0469C19.5063 21.5 21.5 19.5063 21.5 17.0469V6.95312C21.5 4.49373 19.5063 2.5 17.0469 2.5Z" fill="url(#paint0_radial_6539_73)"/>
<path d="M17.0469 2.5H6.95312C4.49373 2.5 2.5 4.49373 2.5 6.95312V17.0469C2.5 19.5063 4.49373 21.5 6.95312 21.5H17.0469C19.5063 21.5 21.5 19.5063 21.5 17.0469V6.95312C21.5 4.49373 19.5063 2.5 17.0469 2.5Z" fill="url(#paint1_radial_6539_73)"/>
<path d="M12.0007 4.57812C9.98504 4.57812 9.73202 4.58696 8.94041 4.62295C8.15027 4.65917 7.61093 4.78423 7.13904 4.96777C6.65083 5.15733 6.23677 5.41093 5.82426 5.82359C5.41138 6.23617 5.15777 6.65024 4.96763 7.13823C4.78356 7.61026 4.65836 8.14983 4.6228 8.93959C4.5874 9.73128 4.57812 9.98437 4.57812 12.0001C4.57812 14.0158 4.58703 14.268 4.62295 15.0596C4.65932 15.8497 4.78438 16.3891 4.96777 16.861C5.15748 17.3492 5.41108 17.7632 5.82374 18.1757C6.23617 18.5886 6.65024 18.8428 7.13808 19.0324C7.61033 19.2159 8.14975 19.341 8.93974 19.3772C9.73143 19.4132 9.98422 19.422 11.9998 19.422C14.0156 19.422 14.2678 19.4132 15.0594 19.3772C15.8496 19.341 16.3895 19.2159 16.8618 19.0324C17.3498 18.8428 17.7632 18.5886 18.1756 18.1757C18.5885 17.7632 18.842 17.3492 19.0322 16.8612C19.2147 16.3891 19.3399 15.8496 19.377 15.0597C19.4126 14.2681 19.4219 14.0158 19.4219 12.0001C19.4219 9.98437 19.4126 9.73143 19.377 8.93974C19.3399 8.14961 19.2147 7.61033 19.0322 7.13845C18.842 6.65024 18.5885 6.23617 18.1756 5.82359C17.7628 5.41079 17.3499 5.15718 16.8613 4.96785C16.3882 4.78423 15.8485 4.6591 15.0584 4.62295C14.2667 4.58696 14.0147 4.57812 11.9984 4.57812H12.0007ZM11.3349 5.91562C11.5325 5.91532 11.753 5.91562 12.0007 5.91562C13.9824 5.91562 14.2172 5.92275 14.9998 5.9583C15.7234 5.9914 16.1162 6.1123 16.3778 6.21391C16.7242 6.34839 16.9711 6.50922 17.2307 6.76906C17.4905 7.02883 17.6512 7.2762 17.7861 7.62258C17.8877 7.88383 18.0088 8.27659 18.0417 9.00023C18.0773 9.78264 18.085 10.0176 18.085 11.9984C18.085 13.9791 18.0773 14.2142 18.0417 14.9965C18.0086 15.7201 17.8877 16.1129 17.7861 16.3742C17.6516 16.7206 17.4905 16.9672 17.2307 17.2269C16.9709 17.4866 16.7243 17.6474 16.3778 17.7819C16.1165 17.884 15.7234 18.0046 14.9998 18.0377C14.2174 18.0732 13.9824 18.081 12.0007 18.081C10.0189 18.081 9.78398 18.0732 9.00164 18.0377C8.278 18.0043 7.88524 17.8834 7.62339 17.7818C7.27709 17.6472 7.02964 17.4865 6.76988 17.2267C6.51011 16.9669 6.34936 16.7202 6.2145 16.3736C6.11289 16.1123 5.99184 15.7195 5.95889 14.9959C5.92334 14.2135 5.91621 13.9785 5.91621 11.9965C5.91621 10.0145 5.92334 9.78079 5.95889 8.99837C5.99199 8.27474 6.11289 7.88197 6.2145 7.62035C6.34906 7.27397 6.51011 7.0266 6.76995 6.76684C7.02979 6.50707 7.27709 6.34624 7.62347 6.21146C7.88509 6.10941 8.278 5.9888 9.00164 5.95555C9.6863 5.9246 9.95164 5.91532 11.3349 5.91377V5.91562ZM15.9625 7.14795C15.4708 7.14795 15.0718 7.5465 15.0718 8.03828C15.0718 8.52998 15.4708 8.9289 15.9625 8.9289C16.4542 8.9289 16.8531 8.52998 16.8531 8.03828C16.8531 7.54658 16.4542 7.14765 15.9625 7.14765V7.14795ZM12.0007 8.18857C9.89582 8.18857 8.18924 9.89516 8.18924 12.0001C8.18924 14.105 9.89582 15.8108 12.0007 15.8108C14.1056 15.8108 15.8116 14.105 15.8116 12.0001C15.8116 9.89523 14.1054 8.18857 12.0005 8.18857H12.0007ZM12.0007 9.52607C13.367 9.52607 14.4747 10.6336 14.4747 12.0001C14.4747 13.3664 13.367 14.4741 12.0007 14.4741C10.6344 14.4741 9.52673 13.3664 9.52673 12.0001C9.52673 10.6336 10.6343 9.52607 12.0007 9.52607Z" fill="white"/>
<defs>
<radialGradient id="paint0_radial_6539_73" cx="0" cy="0" r="1" gradientUnits="userSpaceOnUse" gradientTransform="translate(7.54687 22.9634) rotate(-90) scale(18.8304 17.5138)">
<stop stop-color="#FFDD55"/>
<stop offset="0.1" stop-color="#FFDD55"/>
<stop offset="0.5" stop-color="#FF543E"/>
<stop offset="1" stop-color="#C837AB"/>
</radialGradient>
<radialGradient id="paint1_radial_6539_73" cx="0" cy="0" r="1" gradientUnits="userSpaceOnUse" gradientTransform="translate(-0.682574 3.86867) rotate(78.681) scale(8.4173 34.6964)">
<stop stop-color="#3771C8"/>
<stop offset="0.128" stop-color="#3771C8"/>
<stop offset="1" stop-color="#6600FF" stop-opacity="0"/>
</radialGradient>
</defs>
</svg>
