<svg width="40" height="40" viewBox="0 0 40 40" fill="none" xmlns="http://www.w3.org/2000/svg">
<path d="M19.93,7.5A12.29,12.29,0,1,0,32.22,19.79,12.3,12.3,0,0,0,19.93,7.5Zm9.16,10.79H25.21a21.93,21.93,0,0,0-1.44-6.95A9.31,9.31,0,0,1,29.09,18.29ZM19.93,29.08h0a24.57,24.57,0,0,1-2.17-7.79h4.4A24.57,24.57,0,0,1,20,29.08ZM17.66,18.29a17.83,17.83,0,0,1,2.12-7.78h.3a17.83,17.83,0,0,1,2.12,7.78Zm-1.57-6.95a22,22,0,0,0-1.43,7H10.77A9.31,9.31,0,0,1,16.09,11.34Zm-5.32,10h4a26.1,26.1,0,0,0,1.64,7.07A9.31,9.31,0,0,1,10.77,21.29ZM23.5,28.36a26.1,26.1,0,0,0,1.64-7.07h3.95A9.31,9.31,0,0,1,23.5,28.36Z" fill="#fff"/>
</svg>
