<svg width="24" height="24" viewBox="0 0 24 24" fill="none" xmlns="http://www.w3.org/2000/svg">
<path d="M22.5421 6.67159C22.2898 5.71693 21.5447 4.96794 20.5978 4.71569C18.8786 4.25 12.0019 4.25 12.0019 4.25C12.0019 4.25 5.12136 4.25 3.40607 4.71181C2.45916 4.96794 1.71406 5.71693 1.46181 6.66771C1 8.39853 1 11.9999 1 11.9999C1 11.9999 1 15.6012 1.45793 17.3281C1.71018 18.2828 2.45528 19.0318 3.40219 19.284C5.11748 19.7459 11.9981 19.7459 11.9981 19.7459C11.9981 19.7459 18.8786 19.7459 20.5939 19.284C21.5408 19.0279 22.2859 18.2789 22.5382 17.3281C22.9961 15.6012 22.9961 11.9999 22.9961 11.9999C22.9961 11.9999 23 8.39853 22.5421 6.67159Z" fill="#FF0000"/>
<path d="M9.7511 15.2715V8.72852L15.5024 12L9.7511 15.2715Z" fill="white"/>
</svg>
