<svg width="241" height="44" viewBox="0 0 241 44" fill="none" xmlns="http://www.w3.org/2000/svg">
<g filter="url(#filter0_b_5847_32396)">
<path d="M31.084 17.85C32.9413 17.85 34.234 18.1813 34.962 18.844C35.69 19.4973 36.054 20.4213 36.054 21.616C36.054 22.4373 35.9093 23.1373 35.62 23.716C35.3306 24.2853 34.822 24.7333 34.094 25.06C33.366 25.3773 32.3626 25.536 31.084 25.536H28.172V28H24.728C24.8026 26.1893 24.84 24.4953 24.84 22.918C24.84 21.3407 24.8026 19.6467 24.728 17.836H28.172V17.85H31.084ZM30.104 22.834C30.8786 22.834 31.4573 22.806 31.84 22.75C32.232 22.6847 32.5026 22.5727 32.652 22.414C32.8106 22.2553 32.89 22.022 32.89 21.714C32.89 21.406 32.8153 21.1773 32.666 21.028C32.526 20.8693 32.26 20.762 31.868 20.706C31.4853 20.65 30.8973 20.622 30.104 20.622H28.172V22.834H30.104ZM40.4174 22.428C40.8094 21.0187 41.7847 20.314 43.3434 20.314C43.614 20.314 43.8754 20.3327 44.1274 20.37L43.6794 23.506C43.0074 23.254 42.4567 23.128 42.0274 23.128C41.4954 23.128 41.1034 23.2867 40.8514 23.604C40.5994 23.9213 40.4734 24.346 40.4734 24.878V24.864L40.4594 25.788C40.4594 26.4507 40.478 27.188 40.5154 28H37.1694C37.244 26.656 37.2814 25.3867 37.2814 24.192C37.2814 22.9973 37.244 21.7187 37.1694 20.356C37.7854 20.384 38.2567 20.398 38.5834 20.398C38.9287 20.398 39.4 20.384 39.9974 20.356L40.4174 22.428ZM49.3336 28.14C47.7376 28.14 46.5616 27.776 45.8056 27.048C45.059 26.3107 44.6856 25.3447 44.6856 24.15C44.6856 22.9833 45.059 22.036 45.8056 21.308C46.5616 20.58 47.7376 20.216 49.3336 20.216C50.407 20.216 51.303 20.3933 52.0216 20.748C52.7496 21.0933 53.2863 21.5647 53.6316 22.162C53.977 22.75 54.1496 23.4127 54.1496 24.15C54.1496 25.354 53.7483 26.32 52.9456 27.048C52.1523 27.776 50.9483 28.14 49.3336 28.14ZM49.3896 25.76C49.9963 25.76 50.449 25.6153 50.7476 25.326C51.0463 25.0367 51.1956 24.6493 51.1956 24.164C51.1956 23.7067 51.0463 23.3333 50.7476 23.044C50.449 22.7453 49.9963 22.596 49.3896 22.596C48.783 22.596 48.3396 22.7407 48.0596 23.03C47.7796 23.3193 47.6396 23.6973 47.6396 24.164C47.6396 24.6493 47.7796 25.0367 48.0596 25.326C48.3396 25.6153 48.783 25.76 49.3896 25.76ZM64.2902 17.108C64.2342 18.844 64.2062 20.6593 64.2062 22.554C64.2062 24.43 64.2342 26.2453 64.2902 28H61.1262L61.1682 26.32C60.8976 26.9453 60.5056 27.4073 59.9922 27.706C59.4789 27.9953 58.8722 28.14 58.1722 28.14C57.5656 28.14 57.0196 27.9673 56.5342 27.622C56.0489 27.2767 55.6709 26.81 55.4002 26.222C55.1296 25.6247 54.9942 24.9713 54.9942 24.262C54.9942 23.562 55.1296 22.904 55.4002 22.288C55.6709 21.6627 56.0489 21.1633 56.5342 20.79C57.0289 20.4073 57.5889 20.216 58.2142 20.216C58.9422 20.216 59.5629 20.37 60.0762 20.678C60.5989 20.9767 60.9862 21.4433 61.2382 22.078C61.2382 21.546 61.2196 20.692 61.1822 19.516C61.1449 18.3773 61.1262 17.5747 61.1262 17.108H64.2902ZM59.6422 25.788C60.0996 25.788 60.4729 25.662 60.7622 25.41C61.0516 25.1487 61.1962 24.738 61.1962 24.178C61.1962 23.6833 61.0516 23.3193 60.7622 23.086C60.4729 22.8527 60.1089 22.736 59.6702 22.736C59.2502 22.736 58.8956 22.8713 58.6062 23.142C58.3262 23.4033 58.1862 23.7487 58.1862 24.178C58.1862 24.654 58.3169 25.0413 58.5782 25.34C58.8396 25.6387 59.1942 25.788 59.6422 25.788ZM74.0255 20.356C73.9601 21.532 73.9275 22.8013 73.9275 24.164C73.9275 25.536 73.9601 26.8147 74.0255 28C73.4281 27.972 72.9568 27.958 72.6115 27.958C72.2848 27.958 71.8135 27.972 71.1975 28L70.7915 25.942C70.5768 26.6887 70.2408 27.244 69.7835 27.608C69.3261 27.9627 68.7941 28.14 68.1875 28.14C67.6275 28.14 67.1421 28.0187 66.7315 27.776C66.3208 27.524 66.0081 27.188 65.7935 26.768C65.5881 26.348 65.4855 25.8767 65.4855 25.354V23.338C65.4855 22.0967 65.4621 21.1027 65.4155 20.356H68.5655C68.5095 21.728 68.4815 23.086 68.4815 24.43C68.4815 24.8407 68.5795 25.1673 68.7755 25.41C68.9808 25.6527 69.2375 25.774 69.5455 25.774C69.8348 25.774 70.0868 25.648 70.3015 25.396C70.5255 25.1347 70.6608 24.78 70.7075 24.332V24.01C70.7261 23.282 70.7355 22.778 70.7355 22.498C70.7355 21.854 70.7168 21.14 70.6795 20.356H74.0255ZM77.9918 24.178C78.0105 24.654 78.1598 25.0367 78.4398 25.326C78.7292 25.6153 79.1538 25.76 79.7138 25.76C80.0218 25.76 80.2972 25.704 80.5398 25.592C80.7825 25.4707 81.0065 25.2933 81.2118 25.06C82.0052 25.368 82.9338 25.634 83.9978 25.858C83.6898 26.5767 83.1672 27.1367 82.4298 27.538C81.7018 27.9393 80.7545 28.14 79.5878 28.14C78.0292 28.14 76.8765 27.776 76.1298 27.048C75.3832 26.32 75.0098 25.3633 75.0098 24.178C75.0098 22.9927 75.3832 22.036 76.1298 21.308C76.8765 20.58 78.0292 20.216 79.5878 20.216C80.7545 20.216 81.7018 20.4167 82.4298 20.818C83.1672 21.2193 83.6898 21.7793 83.9978 22.498C83.1672 22.6753 82.2385 22.9413 81.2118 23.296C81.0065 23.0627 80.7825 22.89 80.5398 22.778C80.2972 22.6567 80.0218 22.596 79.7138 22.596C79.1538 22.596 78.7292 22.7407 78.4398 23.03C78.1598 23.3193 78.0105 23.702 77.9918 24.178ZM91.3903 22.862C90.5316 22.806 89.7476 22.764 89.0383 22.736L89.0243 24.22C89.0243 24.724 89.1316 25.1207 89.3463 25.41C89.5703 25.69 89.9623 25.83 90.5223 25.83C90.7369 25.83 90.9423 25.8113 91.1383 25.774C91.1009 26.1193 91.0823 26.4693 91.0823 26.824C91.0823 26.992 91.0916 27.3747 91.1103 27.972C90.6996 28.0467 90.3543 28.0933 90.0743 28.112C89.7943 28.1307 89.4303 28.14 88.9823 28.14C87.8903 28.14 87.1156 27.8787 86.6583 27.356C86.2103 26.824 85.9863 26.0867 85.9863 25.144L86.0003 22.778C85.5616 22.7967 85.1043 22.8247 84.6283 22.862V20.384C85.1136 20.384 85.5243 20.23 85.8603 19.922C86.1963 19.614 86.3969 19.2453 86.4623 18.816H90.2703C89.7943 19.4693 89.2669 19.992 88.6883 20.384H91.3903V22.862ZM102.435 24.5H97.8708C97.9454 24.9107 98.1274 25.2467 98.4168 25.508C98.7154 25.76 99.1354 25.886 99.6768 25.886C100.069 25.886 100.437 25.8113 100.783 25.662C101.128 25.5033 101.403 25.284 101.609 25.004C102.234 25.312 103.065 25.6433 104.101 25.998C103.811 26.6513 103.284 27.174 102.519 27.566C101.763 27.9487 100.773 28.14 99.5508 28.14C97.9641 28.14 96.7881 27.776 96.0228 27.048C95.2668 26.3107 94.8888 25.3447 94.8888 24.15C94.8888 22.9833 95.2668 22.036 96.0228 21.308C96.7788 20.58 97.9548 20.216 99.5508 20.216C100.503 20.216 101.329 20.3747 102.029 20.692C102.729 21.0093 103.265 21.4527 103.639 22.022C104.012 22.582 104.199 23.226 104.199 23.954C104.199 24.1967 104.189 24.3787 104.171 24.5H102.435ZM99.7468 22.33C99.2801 22.33 98.8974 22.4187 98.5988 22.596C98.3001 22.7733 98.0901 23.016 97.9688 23.324H101.273C101.161 23.0253 100.979 22.7873 100.727 22.61C100.475 22.4233 100.148 22.33 99.7468 22.33ZM110.633 28C110.689 26.628 110.717 25.3633 110.717 24.206C110.717 23.7953 110.615 23.4687 110.409 23.226C110.213 22.9833 109.961 22.862 109.653 22.862C109.345 22.862 109.084 23.002 108.869 23.282C108.655 23.5527 108.529 23.926 108.491 24.402C108.473 25.1113 108.463 25.6153 108.463 25.914C108.463 26.5487 108.482 27.244 108.519 28H105.173C105.248 26.656 105.285 25.3867 105.285 24.192C105.285 22.9973 105.248 21.7187 105.173 20.356C105.789 20.384 106.261 20.398 106.587 20.398C106.933 20.398 107.404 20.384 108.001 20.356L108.407 22.414C108.622 21.6673 108.958 21.1167 109.415 20.762C109.873 20.398 110.405 20.216 111.011 20.216C111.571 20.216 112.057 20.342 112.467 20.594C112.878 20.8367 113.186 21.168 113.391 21.588C113.606 22.008 113.713 22.4793 113.713 23.002V25.018C113.713 26.2593 113.737 27.2533 113.783 28H110.633ZM121.25 22.862C120.391 22.806 119.607 22.764 118.898 22.736L118.884 24.22C118.884 24.724 118.991 25.1207 119.206 25.41C119.43 25.69 119.822 25.83 120.382 25.83C120.596 25.83 120.802 25.8113 120.998 25.774C120.96 26.1193 120.942 26.4693 120.942 26.824C120.942 26.992 120.951 27.3747 120.97 27.972C120.559 28.0467 120.214 28.0933 119.934 28.112C119.654 28.1307 119.29 28.14 118.842 28.14C117.75 28.14 116.975 27.8787 116.518 27.356C116.07 26.824 115.846 26.0867 115.846 25.144L115.86 22.778C115.421 22.7967 114.964 22.8247 114.488 22.862V20.384C114.973 20.384 115.384 20.23 115.72 19.922C116.056 19.614 116.256 19.2453 116.322 18.816H120.13C119.654 19.4693 119.126 19.992 118.548 20.384H121.25V22.862ZM125.333 22.428C125.725 21.0187 126.701 20.314 128.259 20.314C128.53 20.314 128.791 20.3327 129.043 20.37L128.595 23.506C127.923 23.254 127.373 23.128 126.943 23.128C126.411 23.128 126.019 23.2867 125.767 23.604C125.515 23.9213 125.389 24.346 125.389 24.878V24.864L125.375 25.788C125.375 26.4507 125.394 27.188 125.431 28H122.085C122.16 26.656 122.197 25.3867 122.197 24.192C122.197 22.9973 122.16 21.7187 122.085 20.356C122.701 20.384 123.173 20.398 123.499 20.398C123.845 20.398 124.316 20.384 124.913 20.356L125.333 22.428ZM138.229 20.356L137.907 21.168C137.02 23.5293 136.092 25.8067 135.121 28C134.617 29.12 133.889 30.016 132.937 30.688C131.985 31.3693 130.79 31.696 129.353 31.668C129.176 30.8933 129.026 30.2867 128.905 29.848C128.793 29.4187 128.644 28.9847 128.457 28.546C128.97 28.6673 129.451 28.728 129.899 28.728C130.627 28.728 131.206 28.574 131.635 28.266C131.299 27.2673 130.902 26.194 130.445 25.046C129.988 23.898 129.325 22.3347 128.457 20.356H131.775C131.887 20.8227 132.041 21.364 132.237 21.98C132.433 22.596 132.629 23.1887 132.825 23.758C132.881 23.9353 132.97 24.206 133.091 24.57C133.222 24.9247 133.324 25.2233 133.399 25.466L133.763 24.36C134.463 22.3347 134.878 21 135.009 20.356H138.229ZM144.437 24.178C144.456 24.654 144.605 25.0367 144.885 25.326C145.174 25.6153 145.599 25.76 146.159 25.76C146.467 25.76 146.742 25.704 146.985 25.592C147.228 25.4707 147.452 25.2933 147.657 25.06C148.45 25.368 149.379 25.634 150.443 25.858C150.135 26.5767 149.612 27.1367 148.875 27.538C148.147 27.9393 147.2 28.14 146.033 28.14C144.474 28.14 143.322 27.776 142.575 27.048C141.828 26.32 141.455 25.3633 141.455 24.178C141.455 22.9927 141.828 22.036 142.575 21.308C143.322 20.58 144.474 20.216 146.033 20.216C147.2 20.216 148.147 20.4167 148.875 20.818C149.612 21.2193 150.135 21.7793 150.443 22.498C149.612 22.6753 148.684 22.9413 147.657 23.296C147.452 23.0627 147.228 22.89 146.985 22.778C146.742 22.6567 146.467 22.596 146.159 22.596C145.599 22.596 145.174 22.7407 144.885 23.03C144.605 23.3193 144.456 23.702 144.437 24.178ZM156.002 28.14C154.406 28.14 153.23 27.776 152.474 27.048C151.727 26.3107 151.354 25.3447 151.354 24.15C151.354 22.9833 151.727 22.036 152.474 21.308C153.23 20.58 154.406 20.216 156.002 20.216C157.075 20.216 157.971 20.3933 158.69 20.748C159.418 21.0933 159.954 21.5647 160.3 22.162C160.645 22.75 160.818 23.4127 160.818 24.15C160.818 25.354 160.416 26.32 159.614 27.048C158.82 27.776 157.616 28.14 156.002 28.14ZM156.058 25.76C156.664 25.76 157.117 25.6153 157.416 25.326C157.714 25.0367 157.864 24.6493 157.864 24.164C157.864 23.7067 157.714 23.3333 157.416 23.044C157.117 22.7453 156.664 22.596 156.058 22.596C155.451 22.596 155.008 22.7407 154.728 23.03C154.448 23.3193 154.308 23.6973 154.308 24.164C154.308 24.6493 154.448 25.0367 154.728 25.326C155.008 25.6153 155.451 25.76 156.058 25.76ZM167.262 28C167.318 26.628 167.346 25.3633 167.346 24.206C167.346 23.7953 167.244 23.4687 167.038 23.226C166.842 22.9833 166.59 22.862 166.282 22.862C165.974 22.862 165.713 23.002 165.498 23.282C165.284 23.5527 165.158 23.926 165.12 24.402C165.102 25.1113 165.092 25.6153 165.092 25.914C165.092 26.5487 165.111 27.244 165.148 28H161.802C161.877 26.656 161.914 25.3867 161.914 24.192C161.914 22.9973 161.877 21.7187 161.802 20.356C162.418 20.384 162.89 20.398 163.216 20.398C163.562 20.398 164.033 20.384 164.63 20.356L165.036 22.414C165.251 21.6673 165.587 21.1167 166.044 20.762C166.502 20.398 167.034 20.216 167.64 20.216C168.2 20.216 168.686 20.342 169.096 20.594C169.507 20.8367 169.815 21.168 170.02 21.588C170.235 22.008 170.342 22.4793 170.342 23.002V25.018C170.342 26.2593 170.366 27.2533 170.412 28H167.262ZM180.749 20.356C179.741 23.072 178.845 25.62 178.061 28H173.679C172.839 25.452 171.938 22.904 170.977 20.356H174.267L175.891 26.124L177.501 20.356H180.749ZM188.021 24.5H183.457C183.531 24.9107 183.713 25.2467 184.003 25.508C184.301 25.76 184.721 25.886 185.263 25.886C185.655 25.886 186.023 25.8113 186.369 25.662C186.714 25.5033 186.989 25.284 187.195 25.004C187.82 25.312 188.651 25.6433 189.687 25.998C189.397 26.6513 188.87 27.174 188.105 27.566C187.349 27.9487 186.359 28.14 185.137 28.14C183.55 28.14 182.374 27.776 181.609 27.048C180.853 26.3107 180.475 25.3447 180.475 24.15C180.475 22.9833 180.853 22.036 181.609 21.308C182.365 20.58 183.541 20.216 185.137 20.216C186.089 20.216 186.915 20.3747 187.615 20.692C188.315 21.0093 188.851 21.4527 189.225 22.022C189.598 22.582 189.785 23.226 189.785 23.954C189.785 24.1967 189.775 24.3787 189.757 24.5H188.021ZM185.333 22.33C184.866 22.33 184.483 22.4187 184.185 22.596C183.886 22.7733 183.676 23.016 183.555 23.324H186.859C186.747 23.0253 186.565 22.7873 186.313 22.61C186.061 22.4233 185.734 22.33 185.333 22.33ZM199.137 20.356L198.815 21.168C197.929 23.5293 197 25.8067 196.029 28C195.525 29.12 194.797 30.016 193.845 30.688C192.893 31.3693 191.699 31.696 190.261 31.668C190.084 30.8933 189.935 30.2867 189.813 29.848C189.701 29.4187 189.552 28.9847 189.365 28.546C189.879 28.6673 190.359 28.728 190.807 28.728C191.535 28.728 192.114 28.574 192.543 28.266C192.207 27.2673 191.811 26.194 191.353 25.046C190.896 23.898 190.233 22.3347 189.365 20.356H192.683C192.795 20.8227 192.949 21.364 193.145 21.98C193.341 22.596 193.537 23.1887 193.733 23.758C193.789 23.9353 193.878 24.206 193.999 24.57C194.13 24.9247 194.233 25.2233 194.307 25.466L194.671 24.36C195.371 22.3347 195.787 21 195.917 20.356H199.137ZM203.511 28.14C201.915 28.14 200.739 27.776 199.983 27.048C199.237 26.3107 198.863 25.3447 198.863 24.15C198.863 22.9833 199.237 22.036 199.983 21.308C200.739 20.58 201.915 20.216 203.511 20.216C204.585 20.216 205.481 20.3933 206.199 20.748C206.927 21.0933 207.464 21.5647 207.809 22.162C208.155 22.75 208.327 23.4127 208.327 24.15C208.327 25.354 207.926 26.32 207.123 27.048C206.33 27.776 205.126 28.14 203.511 28.14ZM203.567 25.76C204.174 25.76 204.627 25.6153 204.925 25.326C205.224 25.0367 205.373 24.6493 205.373 24.164C205.373 23.7067 205.224 23.3333 204.925 23.044C204.627 22.7453 204.174 22.596 203.567 22.596C202.961 22.596 202.517 22.7407 202.237 23.03C201.957 23.3193 201.817 23.6973 201.817 24.164C201.817 24.6493 201.957 25.0367 202.237 25.326C202.517 25.6153 202.961 25.76 203.567 25.76ZM212.56 22.428C212.952 21.0187 213.927 20.314 215.486 20.314C215.757 20.314 216.018 20.3327 216.27 20.37L215.822 23.506C215.15 23.254 214.599 23.128 214.17 23.128C213.638 23.128 213.246 23.2867 212.994 23.604C212.742 23.9213 212.616 24.346 212.616 24.878V24.864L212.602 25.788C212.602 26.4507 212.621 27.188 212.658 28H209.312C209.387 26.656 209.424 25.3867 209.424 24.192C209.424 22.9973 209.387 21.7187 209.312 20.356C209.928 20.384 210.399 20.398 210.726 20.398C211.071 20.398 211.543 20.384 212.14 20.356L212.56 22.428Z" fill="#F8F8F8"/>
</g>
<defs>
<filter id="filter0_b_5847_32396" x="-9.57055" y="-9.57055" width="260.141" height="63.1411" filterUnits="userSpaceOnUse" color-interpolation-filters="sRGB">
<feFlood flood-opacity="0" result="BackgroundImageFix"/>
<feGaussianBlur in="BackgroundImageFix" stdDeviation="4.78528"/>
<feComposite in2="SourceAlpha" operator="in" result="effect1_backgroundBlur_5847_32396"/>
<feBlend mode="normal" in="SourceGraphic" in2="effect1_backgroundBlur_5847_32396" result="shape"/>
</filter>
</defs>
</svg>
