<svg width="1000" height="1000" viewBox="0 0 1000 1000" xmlns="http://www.w3.org/2000/svg">
<path d="M187.5,184.1c86.7-86.7,298-16.3,471.4,157.1,173.4,173.4,243.9,384.7,157.1,471.4-86.7,86.7-298,16.3-471.4-157.1C171.1,482.1,100.7,270.8,187.5,184.1Z" style="fill: none; stroke: #666;"/>
<path d="M187.5,184.1c86.7-86.7,298-16.3,471.4,157.1,173.4,173.4,243.9,384.7,157.1,471.4-86.7,86.7-298,16.3-471.4-157.1C171.1,482.1,100.7,270.8,187.5,184.1Z" style="fill: none; stroke: #666;"/>
<path d="M187.5,184.1c86.7-86.7,298-16.3,471.4,157.1,173.4,173.4,243.9,384.7,157.1,471.4-86.7,86.7-298,16.3-471.4-157.1C171.1,482.1,100.7,270.8,187.5,184.1Z" style="fill: none; stroke: #666;"/>
<path d="M187.5,184.1c86.7-86.7,298-16.3,471.4,157.1,173.4,173.4,243.9,384.7,157.1,471.4-86.7,86.7-298,16.3-471.4-157.1C171.1,482.1,100.7,270.8,187.5,184.1Z" style="fill: none; stroke: #666;"/>
<path d="M187.5,184.1c86.7-86.7,298-16.3,471.4,157.1,173.4,173.4,243.9,384.7,157.1,471.4-86.7,86.7-298,16.3-471.4-157.1C171.1,482.1,100.7,270.8,187.5,184.1Z" style="fill: none; stroke: #666;"/>
<path d="M187.5,184.1c86.7-86.7,298-16.3,471.4,157.1,173.4,173.4,243.9,384.7,157.1,471.4-86.7,86.7-298,16.3-471.4-157.1C171.1,482.1,100.7,270.8,187.5,184.1Z" style="fill: none; stroke: #666;"/>
<path d="M187.5,184.1c86.7-86.7,298-16.3,471.4,157.1,173.4,173.4,243.9,384.7,157.1,471.4-86.7,86.7-298,16.3-471.4-157.1C171.1,482.1,100.7,270.8,187.5,184.1Z" style="fill: none; stroke: #666;"/>
<path d="M187.5,184.1c86.7-86.7,298-16.3,471.4,157.1,173.4,173.4,243.9,384.7,157.1,471.4-86.7,86.7-298,16.3-471.4-157.1C171.1,482.1,100.7,270.8,187.5,184.1Z" style="fill: none; stroke: #666;"/>
<path d="M187.5,184.1c86.7-86.7,298-16.3,471.4,157.1,173.4,173.4,243.9,384.7,157.1,471.4-86.7,86.7-298,16.3-471.4-157.1C171.1,482.1,100.7,270.8,187.5,184.1Z" style="fill: none; stroke: #666;"/>
<path d="M187.5,184.1c86.7-86.7,298-16.3,471.4,157.1,173.4,173.4,243.9,384.7,157.1,471.4-86.7,86.7-298,16.3-471.4-157.1C171.1,482.1,100.7,270.8,187.5,184.1Z" style="fill: none; stroke: #666;"/>
<path d="M187.5,184.1c86.7-86.7,298-16.3,471.4,157.1,173.4,173.4,243.9,384.7,157.1,471.4-86.7,86.7-298,16.3-471.4-157.1C171.1,482.1,100.7,270.8,187.5,184.1Z" style="fill: none; stroke: #666;"/>
<path d="M187.5,184.1c86.7-86.7,298-16.3,471.4,157.1,173.4,173.4,243.9,384.7,157.1,471.4-86.7,86.7-298,16.3-471.4-157.1C171.1,482.1,100.7,270.8,187.5,184.1Z" style="fill: none; stroke: #666;"/>
</svg>