<svg xmlns="http://www.w3.org/2000/svg" width="166" height="44" viewBox="0 0 166 44">
  <path d="M34.1,15.1h1.8v3.5h2v1.5h-2v3.4h-1.8v-8.4ZM25.3,22.5v-6.8h1.7v2.1h3v-2.1h1.7v6.8h-6.5ZM26.9,25.5v-1.4h8.9v5.2h-1.8v-3.8h-7.2ZM27.1,21.1h3v-2h-3v2ZM38.4,25.6h12.9v1.4h-12.9v-1.4ZM39.3,22.2l3.7-2.9c.9-.6,1-.9,1-1.4v-1.8h1.8v1.8c0,.5,0,.7,1,1.4l3.7,2.9-1,1.3-3.7-2.9c-.4-.3-.7-.6-.9-.8-.2.3-.5.5-.9.8l-3.7,2.9-1-1.3ZM65.9,15h1.8v13.8h-1.8v-13.8ZM56.1,20.4c0-2.4,1.6-4.1,3.9-4.1s3.9,1.7,3.9,4.1-1.6,4-3.9,4-3.9-1.7-3.9-4ZM57.8,20.4c0,1.5.9,2.5,2.2,2.5s2.2-1,2.2-2.5-.9-2.6-2.2-2.6-2.2,1-2.2,2.6ZM76.1,29.8c-2.2,0-3.8-1.3-3.8-3s1.5-3,3.8-3,3.8,1.2,3.8,3-1.6,3-3.8,3ZM69.7,23v-1.4h5.5v-2h1.8v2h5.6v1.4h-12.9ZM70.8,19.5l3.6-2.2c.8-.5.9-.8.9-1.2v-1.1h1.7v1.1c0,.4.1.7.9,1.2l3.6,2.2-.8,1.3-3.6-2.2c-.4-.2-.7-.5-.9-.8-.2.3-.5.5-.9.8l-3.6,2.2-.8-1.3ZM74.1,26.7c0,.9.8,1.6,2,1.6s2.1-.7,2.1-1.6-.8-1.6-2.1-1.6-2,.7-2,1.6ZM87.5,22.1c1.8-.4,3.3-.9,4.2-2h-3.9v-1.4h4.6c.1-.4.2-.9.2-1.4h-4.7v-1.4h6.3v1.4h0c0,4.3-3.2,5.7-6.3,6.3l-.3-1.5ZM89.9,29v-4.6h1.8v3.2h7.5v1.4h-9.3ZM94.6,20.4v-1.4h2.6v-3.9h1.8v9.8h-1.8v-4.5h-2.6ZM111.4,15h1.7v13.8h-1.7v-13.8ZM101.5,25.3v-9.2h1.6v3.3h2.3v-3.3h1.6v3.6h1.5v-4.3h1.6v12.8h-1.6v-7.1h-1.5v4.2h-5.5ZM103.1,23.8h2.3v-3.2h-2.3v3.2ZM124.6,15h1.8v13.8h-1.8v-13.8ZM114.9,20.4c0-2.4,1.6-4.1,3.9-4.1s3.9,1.7,3.9,4.1-1.6,4-3.9,4-3.9-1.7-3.9-4ZM116.6,20.4c0,1.5.9,2.5,2.2,2.5s2.2-1,2.2-2.5-.9-2.6-2.2-2.6-2.2,1-2.2,2.6ZM132.4,24.4c-2.3,0-3.9-1.7-3.9-4s1.6-4.1,3.9-4.1,3.6,1.4,3.8,3.4h2.3v-4.7h1.8v13.8h-1.8v-7.7h-2.4c-.3,2-1.8,3.3-3.8,3.3ZM130.2,20.4c0,1.5.9,2.5,2.2,2.5s2.2-1,2.2-2.5-.9-2.6-2.2-2.6-2.2,1-2.2,2.6Z" style="fill: #f7f8f8; stroke-width: 0px;"/>
</svg>