<svg xmlns="http://www.w3.org/2000/svg" width="152" height="44" viewBox="0 0 152 44">
  <path d="M34,15.1h1.8v3.5h2v1.5h-2v3.4h-1.8v-8.4ZM25.2,22.5v-6.8h1.7v2.1h3v-2.1h1.7v6.8h-6.5ZM26.8,25.5v-1.4h8.9v5.2h-1.8v-3.8h-7.2ZM27,21.1h3v-2h-3v2ZM38.3,25.6h12.9v1.4h-12.9v-1.4ZM39.2,22.2l3.7-2.9c.9-.6,1-.9,1-1.4v-1.8h1.8v1.8c0,.5.1.7,1,1.4l3.7,2.9-1,1.3-3.7-2.9c-.4-.3-.7-.6-.9-.8-.2.3-.5.5-.9.8l-3.7,2.9-1-1.3ZM62.2,29.8c-2.2,0-3.8-1.3-3.8-3s1.1-2.6,2.9-2.9v-1.2h-5.5v-1.4h12.9v1.4h-5.5v1.2c1.8.3,2.9,1.3,2.9,2.9s-1.6,3-3.8,3ZM57.1,19.4l3.5-1.6c.6-.3.7-.6.8-.8h-3.9v-1.4h9.4v1.4h-3.9c0,.3.2.6.8.8l3.5,1.6-.6,1.4-3.5-1.6c-.4-.2-.7-.4-.9-.7-.2.2-.6.5-1,.7l-3.5,1.6-.6-1.4ZM60.2,26.8c0,.9.8,1.6,2,1.6s2.1-.7,2.1-1.6-.8-1.6-2.1-1.6-2,.7-2,1.6ZM76.4,29.6c-2.1,0-3.6-1.3-3.6-3.1s1.5-3.1,3.6-3.1,3.6,1.3,3.6,3.1-1.5,3.1-3.6,3.1ZM70.2,22.6v-4.2h4.5v-1.2h-4.5v-1.4h6.2v4h-4.5v1.4h5.3v1.4h-7ZM74.5,26.5c0,1,.8,1.6,1.9,1.6s1.9-.7,1.9-1.6-.8-1.6-1.9-1.6-1.9.7-1.9,1.6ZM78.9,23.3v-8.3h1.8v2h2v1.5h-2v1.6h2v1.4h-2v1.9h-1.8ZM97.1,25v-5.4h-2.8v-1.4h2.8v-3.1h1.8v10h-1.8ZM87.3,22l2.4-2.9c.5-.6.6-1,.6-1.5v-1.9h1.7v1.9c0,.5,0,.8.6,1.5l2.4,2.9-1.2,1-2.4-2.9-.2-.3c0,0-.1.2-.2.3l-2.4,2.9-1.2-1ZM89.8,29v-4.6h1.8v3.2h7.3v1.4h-9.1ZM110.9,15.1h1.8v7.3h-1.8v-1.7h-2.7v1.2h-6.6v-6.2h1.7v1.9h3.2v-1.9h1.7v1.1h2.7v-1.7ZM103.3,20.4h3.2v-1.5h-3.2v1.5ZM103.6,24.4v-1.4h9v3.6h-7.3v1.1h7.6v1.4h-9.3v-3.8h7.2v-1h-7.3ZM108.2,19.3h2.7v-1.3h-2.7v1.3ZM124.5,15h1.8v13.8h-1.8v-13.8ZM115.2,23.6c2.8-.7,5.3-2.4,5.3-5.9h-4.9v-1.4h6.6v1.4h0c0,4.5-3.4,6.8-6.6,7.6l-.4-1.6Z" style="fill: #f7f8f8; stroke-width: 0px;"/>
</svg>