<svg width="204" height="44" viewBox="0 0 204 44" fill="none" xmlns="http://www.w3.org/2000/svg">
<g filter="url(#filter0_b_5847_32385)">
<path d="M33.1146 22.946C35.2426 22.946 36.3066 23.6227 36.3066 24.976C36.3066 25.6107 36.1619 26.152 35.8726 26.6C35.5833 27.0387 35.0653 27.384 34.3186 27.636C33.5719 27.8787 32.5359 28 31.2106 28H24.9106C24.9853 26.1893 25.0226 24.4953 25.0226 22.918C25.0226 21.3407 24.9853 19.6467 24.9106 17.836H28.2006V17.85H31.1826C32.3399 17.85 33.2499 17.948 33.9126 18.144C34.5846 18.3307 35.0559 18.606 35.3266 18.97C35.6066 19.334 35.7466 19.796 35.7466 20.356C35.7466 20.9253 35.5459 21.434 35.1446 21.882C34.7526 22.3207 34.0759 22.6753 33.1146 22.946ZM28.2006 20.398V21.7H30.8886C31.4673 21.7 31.8686 21.6487 32.0926 21.546C32.3259 21.4433 32.4426 21.2567 32.4426 20.986C32.4426 20.7713 32.3213 20.622 32.0786 20.538C31.8453 20.4447 31.4486 20.398 30.8886 20.398H28.2006ZM30.8886 25.438C31.3739 25.438 31.7426 25.4193 31.9946 25.382C32.2559 25.3353 32.4426 25.2607 32.5546 25.158C32.6666 25.046 32.7226 24.8967 32.7226 24.71C32.7226 24.4673 32.5873 24.2947 32.3166 24.192C32.0553 24.08 31.5793 24.024 30.8886 24.024H28.2006V25.438H30.8886ZM41.9284 28.14C40.3324 28.14 39.1564 27.776 38.4004 27.048C37.6537 26.3107 37.2804 25.3447 37.2804 24.15C37.2804 22.9833 37.6537 22.036 38.4004 21.308C39.1564 20.58 40.3324 20.216 41.9284 20.216C43.0017 20.216 43.8977 20.3933 44.6164 20.748C45.3444 21.0933 45.881 21.5647 46.2264 22.162C46.5717 22.75 46.7444 23.4127 46.7444 24.15C46.7444 25.354 46.343 26.32 45.5404 27.048C44.747 27.776 43.543 28.14 41.9284 28.14ZM41.9844 25.76C42.591 25.76 43.0437 25.6153 43.3424 25.326C43.641 25.0367 43.7904 24.6493 43.7904 24.164C43.7904 23.7067 43.641 23.3333 43.3424 23.044C43.0437 22.7453 42.591 22.596 41.9844 22.596C41.3777 22.596 40.9344 22.7407 40.6544 23.03C40.3744 23.3193 40.2344 23.6973 40.2344 24.164C40.2344 24.6493 40.3744 25.0367 40.6544 25.326C40.9344 25.6153 41.3777 25.76 41.9844 25.76ZM53.5175 24.08L56.4575 28H52.9855C52.8082 27.6453 52.4815 27.1273 52.0055 26.446L51.6835 25.984C51.6275 26.068 51.5622 26.1567 51.4875 26.25C51.4222 26.3433 51.3568 26.446 51.2915 26.558C51.1048 26.8193 50.9275 27.076 50.7595 27.328C50.6008 27.58 50.4702 27.804 50.3675 28H46.8955L49.8355 24.08L47.0075 20.356H50.4655C50.5962 20.6173 50.8482 21.0233 51.2215 21.574L51.6835 22.274L52.0755 21.672C52.4675 21.084 52.7382 20.6453 52.8875 20.356H56.3455L53.5175 24.08ZM61.6909 19.53C61.1029 19.53 60.6642 19.3853 60.3749 19.096C60.0949 18.8067 59.9549 18.4287 59.9549 17.962C59.9549 17.5047 60.0949 17.1267 60.3749 16.828C60.6642 16.5293 61.1029 16.38 61.6909 16.38C62.2509 16.38 62.6802 16.534 62.9789 16.842C63.2775 17.1407 63.4269 17.514 63.4269 17.962C63.4269 18.4287 63.2822 18.8067 62.9929 19.096C62.7035 19.3853 62.2695 19.53 61.6909 19.53ZM60.0669 28C60.1322 26.4973 60.1649 25.256 60.1649 24.276C60.1649 23.1093 60.1275 21.8027 60.0529 20.356H63.4129C63.3382 21.7467 63.3009 23.0533 63.3009 24.276C63.3009 25.3027 63.3335 26.544 63.3989 28H60.0669ZM70.1421 28C70.1981 26.628 70.2261 25.3633 70.2261 24.206C70.2261 23.7953 70.1234 23.4687 69.9181 23.226C69.7221 22.9833 69.4701 22.862 69.1621 22.862C68.8541 22.862 68.5927 23.002 68.3781 23.282C68.1634 23.5527 68.0374 23.926 68.0001 24.402C67.9814 25.1113 67.9721 25.6153 67.9721 25.914C67.9721 26.5487 67.9907 27.244 68.0281 28H64.6821C64.7567 26.656 64.7941 25.3867 64.7941 24.192C64.7941 22.9973 64.7567 21.7187 64.6821 20.356C65.2981 20.384 65.7694 20.398 66.0961 20.398C66.4414 20.398 66.9127 20.384 67.5101 20.356L67.9161 22.414C68.1307 21.6673 68.4667 21.1167 68.9241 20.762C69.3814 20.398 69.9134 20.216 70.5201 20.216C71.0801 20.216 71.5654 20.342 71.9761 20.594C72.3867 20.8367 72.6947 21.168 72.9001 21.588C73.1147 22.008 73.2221 22.4793 73.2221 23.002V25.018C73.2221 26.2593 73.2454 27.2533 73.2921 28H70.1421ZM80.5344 20.216C81.1411 20.216 81.6871 20.3887 82.1724 20.734C82.6578 21.0793 83.0358 21.5507 83.3064 22.148C83.5771 22.736 83.7124 23.3847 83.7124 24.094C83.7124 24.794 83.5771 25.4567 83.3064 26.082C83.0358 26.698 82.6531 27.1973 82.1584 27.58C81.6731 27.9533 81.1178 28.14 80.4924 28.14C79.7644 28.14 79.1391 27.9907 78.6164 27.692C78.1031 27.384 77.7204 26.9127 77.4684 26.278C77.4684 26.81 77.4871 27.664 77.5244 28.84C77.5618 29.9787 77.5804 30.7813 77.5804 31.248H74.4164C74.4724 29.512 74.5004 27.6967 74.5004 25.802C74.5004 23.9073 74.4724 22.092 74.4164 20.356H77.1044L77.5104 22.106C77.7718 21.4527 78.1638 20.9767 78.6864 20.678C79.2091 20.37 79.8251 20.216 80.5344 20.216ZM79.0364 25.62C79.4564 25.62 79.8064 25.4893 80.0864 25.228C80.3758 24.9573 80.5204 24.6073 80.5204 24.178C80.5204 23.702 80.3898 23.3147 80.1284 23.016C79.8671 22.7173 79.5124 22.568 79.0644 22.568C78.5511 22.568 78.1638 22.694 77.9024 22.946C77.6411 23.1887 77.5104 23.5993 77.5104 24.178C77.5104 24.5047 77.5944 24.78 77.7624 25.004C77.9304 25.2187 78.1311 25.3773 78.3644 25.48C78.5978 25.5733 78.8218 25.62 79.0364 25.62ZM93.3077 20.356C93.2424 21.532 93.2097 22.8013 93.2097 24.164C93.2097 25.536 93.2424 26.8147 93.3077 28C92.7104 27.972 92.239 27.958 91.8937 27.958C91.567 27.958 91.0957 27.972 90.4797 28L90.0737 25.942C89.859 26.6887 89.523 27.244 89.0657 27.608C88.6084 27.9627 88.0764 28.14 87.4697 28.14C86.9097 28.14 86.4244 28.0187 86.0137 27.776C85.603 27.524 85.2904 27.188 85.0757 26.768C84.8704 26.348 84.7677 25.8767 84.7677 25.354V23.338C84.7677 22.0967 84.7444 21.1027 84.6977 20.356H87.8477C87.7917 21.728 87.7637 23.086 87.7637 24.43C87.7637 24.8407 87.8617 25.1673 88.0577 25.41C88.263 25.6527 88.5197 25.774 88.8277 25.774C89.117 25.774 89.369 25.648 89.5837 25.396C89.8077 25.1347 89.943 24.78 89.9897 24.332V24.01C90.0084 23.282 90.0177 22.778 90.0177 22.498C90.0177 21.854 89.999 21.14 89.9617 20.356H93.3077ZM100.774 22.862C99.9154 22.806 99.1314 22.764 98.4221 22.736L98.4081 24.22C98.4081 24.724 98.5154 25.1207 98.7301 25.41C98.9541 25.69 99.3461 25.83 99.9061 25.83C100.121 25.83 100.326 25.8113 100.522 25.774C100.485 26.1193 100.466 26.4693 100.466 26.824C100.466 26.992 100.475 27.3747 100.494 27.972C100.083 28.0467 99.7381 28.0933 99.4581 28.112C99.1781 28.1307 98.8141 28.14 98.3661 28.14C97.2741 28.14 96.4994 27.8787 96.0421 27.356C95.5941 26.824 95.3701 26.0867 95.3701 25.144L95.3841 22.778C94.9454 22.7967 94.4881 22.8247 94.0121 22.862V20.384C94.4974 20.384 94.9081 20.23 95.2441 19.922C95.5801 19.614 95.7807 19.2453 95.8461 18.816H99.6541C99.1781 19.4693 98.6507 19.992 98.0721 20.384H100.774V22.862ZM107.255 24.178C107.273 24.654 107.423 25.0367 107.703 25.326C107.992 25.6153 108.417 25.76 108.977 25.76C109.285 25.76 109.56 25.704 109.803 25.592C110.045 25.4707 110.269 25.2933 110.475 25.06C111.268 25.368 112.197 25.634 113.261 25.858C112.953 26.5767 112.43 27.1367 111.693 27.538C110.965 27.9393 110.017 28.14 108.851 28.14C107.292 28.14 106.139 27.776 105.393 27.048C104.646 26.32 104.273 25.3633 104.273 24.178C104.273 22.9927 104.646 22.036 105.393 21.308C106.139 20.58 107.292 20.216 108.851 20.216C110.017 20.216 110.965 20.4167 111.693 20.818C112.43 21.2193 112.953 21.7793 113.261 22.498C112.43 22.6753 111.501 22.9413 110.475 23.296C110.269 23.0627 110.045 22.89 109.803 22.778C109.56 22.6567 109.285 22.596 108.977 22.596C108.417 22.596 107.992 22.7407 107.703 23.03C107.423 23.3193 107.273 23.702 107.255 24.178ZM118.819 28.14C117.223 28.14 116.047 27.776 115.291 27.048C114.544 26.3107 114.171 25.3447 114.171 24.15C114.171 22.9833 114.544 22.036 115.291 21.308C116.047 20.58 117.223 20.216 118.819 20.216C119.892 20.216 120.788 20.3933 121.507 20.748C122.235 21.0933 122.772 21.5647 123.117 22.162C123.462 22.75 123.635 23.4127 123.635 24.15C123.635 25.354 123.234 26.32 122.431 27.048C121.638 27.776 120.434 28.14 118.819 28.14ZM118.875 25.76C119.482 25.76 119.934 25.6153 120.233 25.326C120.532 25.0367 120.681 24.6493 120.681 24.164C120.681 23.7067 120.532 23.3333 120.233 23.044C119.934 22.7453 119.482 22.596 118.875 22.596C118.268 22.596 117.825 22.7407 117.545 23.03C117.265 23.3193 117.125 23.6973 117.125 24.164C117.125 24.6493 117.265 25.0367 117.545 25.326C117.825 25.6153 118.268 25.76 118.875 25.76ZM130.08 28C130.136 26.628 130.164 25.3633 130.164 24.206C130.164 23.7953 130.061 23.4687 129.856 23.226C129.66 22.9833 129.408 22.862 129.1 22.862C128.792 22.862 128.53 23.002 128.316 23.282C128.101 23.5527 127.975 23.926 127.938 24.402C127.919 25.1113 127.91 25.6153 127.91 25.914C127.91 26.5487 127.928 27.244 127.966 28H124.62C124.694 26.656 124.732 25.3867 124.732 24.192C124.732 22.9973 124.694 21.7187 124.62 20.356C125.236 20.384 125.707 20.398 126.034 20.398C126.379 20.398 126.85 20.384 127.448 20.356L127.854 22.414C128.068 21.6673 128.404 21.1167 128.862 20.762C129.319 20.398 129.851 20.216 130.458 20.216C131.018 20.216 131.503 20.342 131.914 20.594C132.324 20.8367 132.632 21.168 132.838 21.588C133.052 22.008 133.16 22.4793 133.16 23.002V25.018C133.16 26.2593 133.183 27.2533 133.23 28H130.08ZM143.566 20.356C142.558 23.072 141.662 25.62 140.878 28H136.496C135.656 25.452 134.755 22.904 133.794 20.356H137.084L138.708 26.124L140.318 20.356H143.566ZM150.838 24.5H146.274C146.349 24.9107 146.531 25.2467 146.82 25.508C147.119 25.76 147.539 25.886 148.08 25.886C148.472 25.886 148.841 25.8113 149.186 25.662C149.531 25.5033 149.807 25.284 150.012 25.004C150.637 25.312 151.468 25.6433 152.504 25.998C152.215 26.6513 151.687 27.174 150.922 27.566C150.166 27.9487 149.177 28.14 147.954 28.14C146.367 28.14 145.191 27.776 144.426 27.048C143.67 26.3107 143.292 25.3447 143.292 24.15C143.292 22.9833 143.67 22.036 144.426 21.308C145.182 20.58 146.358 20.216 147.954 20.216C148.906 20.216 149.732 20.3747 150.432 20.692C151.132 21.0093 151.669 21.4527 152.042 22.022C152.415 22.582 152.602 23.226 152.602 23.954C152.602 24.1967 152.593 24.3787 152.574 24.5H150.838ZM148.15 22.33C147.683 22.33 147.301 22.4187 147.002 22.596C146.703 22.7733 146.493 23.016 146.372 23.324H149.676C149.564 23.0253 149.382 22.7873 149.13 22.61C148.878 22.4233 148.551 22.33 148.15 22.33ZM161.955 20.356L161.633 21.168C160.746 23.5293 159.817 25.8067 158.847 28C158.343 29.12 157.615 30.016 156.663 30.688C155.711 31.3693 154.516 31.696 153.079 31.668C152.901 30.8933 152.752 30.2867 152.631 29.848C152.519 29.4187 152.369 28.9847 152.183 28.546C152.696 28.6673 153.177 28.728 153.625 28.728C154.353 28.728 154.931 28.574 155.361 28.266C155.025 27.2673 154.628 26.194 154.171 25.046C153.713 23.898 153.051 22.3347 152.183 20.356H155.501C155.613 20.8227 155.767 21.364 155.963 21.98C156.159 22.596 156.355 23.1887 156.551 23.758C156.607 23.9353 156.695 24.206 156.817 24.57C156.947 24.9247 157.05 25.2233 157.125 25.466L157.489 24.36C158.189 22.3347 158.604 21 158.735 20.356H161.955ZM166.329 28.14C164.733 28.14 163.557 27.776 162.801 27.048C162.054 26.3107 161.681 25.3447 161.681 24.15C161.681 22.9833 162.054 22.036 162.801 21.308C163.557 20.58 164.733 20.216 166.329 20.216C167.402 20.216 168.298 20.3933 169.017 20.748C169.745 21.0933 170.281 21.5647 170.627 22.162C170.972 22.75 171.145 23.4127 171.145 24.15C171.145 25.354 170.743 26.32 169.941 27.048C169.147 27.776 167.943 28.14 166.329 28.14ZM166.385 25.76C166.991 25.76 167.444 25.6153 167.743 25.326C168.041 25.0367 168.191 24.6493 168.191 24.164C168.191 23.7067 168.041 23.3333 167.743 23.044C167.444 22.7453 166.991 22.596 166.385 22.596C165.778 22.596 165.335 22.7407 165.055 23.03C164.775 23.3193 164.635 23.6973 164.635 24.164C164.635 24.6493 164.775 25.0367 165.055 25.326C165.335 25.6153 165.778 25.76 166.385 25.76ZM175.377 22.428C175.769 21.0187 176.745 20.314 178.303 20.314C178.574 20.314 178.835 20.3327 179.087 20.37L178.639 23.506C177.967 23.254 177.417 23.128 176.987 23.128C176.455 23.128 176.063 23.2867 175.811 23.604C175.559 23.9213 175.433 24.346 175.433 24.878V24.864L175.419 25.788C175.419 26.4507 175.438 27.188 175.475 28H172.129C172.204 26.656 172.241 25.3867 172.241 24.192C172.241 22.9973 172.204 21.7187 172.129 20.356C172.745 20.384 173.217 20.398 173.543 20.398C173.889 20.398 174.36 20.384 174.957 20.356L175.377 22.428Z" fill="#F8F8F8"/>
</g>
<defs>
<filter id="filter0_b_5847_32385" x="-9.57055" y="-9.57055" width="223.141" height="63.1411" filterUnits="userSpaceOnUse" color-interpolation-filters="sRGB">
<feFlood flood-opacity="0" result="BackgroundImageFix"/>
<feGaussianBlur in="BackgroundImageFix" stdDeviation="4.78528"/>
<feComposite in2="SourceAlpha" operator="in" result="effect1_backgroundBlur_5847_32385"/>
<feBlend mode="normal" in="SourceGraphic" in2="effect1_backgroundBlur_5847_32385" result="shape"/>
</filter>
</defs>
</svg>
