<svg xmlns="http://www.w3.org/2000/svg" width="193" height="44" viewBox="0 0 193 44">
  <path d="M31.1,28.1c-2.1,0-3.7-.4-4.7-1.3-1-.9-1.5-2.2-1.5-3.8s.5-3,1.5-4c1-1,2.6-1.5,4.7-1.5s4.9,1,5.9,3c-.8.3-1.8.7-3,1.3-.3-.5-.7-.9-1.3-1.2-.6-.3-1.2-.4-1.8-.4-.9,0-1.6.2-2,.7-.4.5-.7,1-.7,1.7s.2,1.4.7,1.8c.5.5,1.2.7,2.2.7s1.4-.1,1.8-.4c.5-.3.8-.7,1-1.2.8.4,1.7.9,2.9,1.4-.5,1.1-1.2,1.9-2.3,2.4-1.1.4-2.3.7-3.6.7ZM43.6,28c0-1.4,0-2.6,0-3.8s0-.7-.3-1c-.2-.2-.4-.4-.8-.4s-.6.2-.8.5c-.2.3-.3.8-.3,1.3h0c0,1.5,0,2.6,0,3.4h-3.3c0-1.3.1-3.2.1-5.5s0-4.1-.1-5.5h3.3v4.3s0,.7,0,.7c.2-.7.5-1.1,1-1.4.5-.3,1-.5,1.5-.5s1,.1,1.5.4c.4.2.7.6.9,1,.2.4.3.9.3,1.4v2c0,1.2,0,2.2,0,3h-3.1ZM56.8,25.7c0,.3,0,.5.1.7,0,.1.2.2.5.3v1.3c-.4,0-.6,0-.8,0-.2,0-.5,0-.9,0-.8,0-1.3-.2-1.6-.5-.3-.4-.4-.8-.4-1.4v-.3c-.3.8-.7,1.3-1.2,1.7-.5.4-1.2.6-2,.6s-1.6-.2-2.1-.6c-.5-.4-.7-.9-.7-1.7s.2-1.1.6-1.4c.4-.3,1-.6,1.9-.7-.7-.5-1.4-.9-2.1-1.3.6-.7,1.2-1.2,1.9-1.6.7-.4,1.6-.6,2.6-.6s2.5.3,3.2.9c.7.6,1.1,1.6,1.1,2.9v1.7ZM52.9,22.7c-.5,0-.9,0-1.3.2-.4.2-.7.4-1,.7.6,0,1.3,0,2.1,0s.6,0,.7-.1c.1,0,.2-.2.2-.3s0-.2-.2-.3c-.1,0-.3-.1-.6-.1ZM51.4,25.8c.5,0,1,0,1.4-.3.4-.2.7-.5.9-.8v-.4c-.2.1-.5.2-.7.3-.3,0-.6.1-1,.2h-.5c-.5.2-.8.4-.8.6s.2.4.7.4ZM61.3,19.7s0,.1,0,.2c0,.1,0,.3.2.4.1,0,.3.1.5.1h1.8v2.5c-.8,0-1.4-.1-1.8-.1,0,1.7,0,3.5.1,5.2h-3.3c0-1.1,0-2.8,0-5.2-.2,0-.5,0-1,0v-2.5h1v-.3c0-.7.1-1.3.4-1.9s.7-.9,1.2-1.2c.5-.3,1.1-.4,1.8-.4s1.1,0,1.7.2c-.2.7-.4,1.5-.6,2.6v.4c-.3-.2-.5-.3-.8-.4-.2,0-.5-.1-.7-.1s-.3,0-.4,0c-.1,0-.2.1-.2.2ZM67.9,19.7s0,.1,0,.2c0,.1,0,.3.2.4.1,0,.3.1.5.1h1.8v2.5c-.8,0-1.4-.1-1.8-.1,0,1.7,0,3.5.1,5.2h-3.3c0-1.1,0-2.8,0-5.2-.2,0-.5,0-1,0v-2.5h1v-.3c0-.7.2-1.3.4-1.9.3-.5.7-.9,1.2-1.2.5-.3,1.1-.4,1.8-.4s1.1,0,1.7.2c-.2.7-.4,1.5-.6,2.6v.4c-.3-.2-.5-.3-.8-.4-.2,0-.5-.1-.7-.1s-.3,0-.4,0c-.1,0-.2.1-.2.2ZM80.3,28.1c-2.1,0-3.7-.4-4.7-1.3s-1.5-2.2-1.5-3.8.5-3,1.5-4,2.6-1.5,4.7-1.5,4.9,1,5.9,3c-.8.3-1.8.7-3,1.3-.3-.5-.7-.9-1.3-1.2-.6-.3-1.2-.4-1.8-.4-.9,0-1.6.2-2,.7-.4.5-.7,1-.7,1.7s.2,1.4.7,1.8c.5.5,1.2.7,2.2.7s1.4-.1,1.8-.4c.5-.3.8-.7,1-1.2.8.4,1.8.9,2.9,1.4-.5,1.1-1.2,1.9-2.3,2.4-1.1.4-2.3.7-3.6.7ZM91.9,28.1c-1.6,0-2.8-.4-3.5-1.1-.8-.7-1.1-1.7-1.1-2.9s.4-2.1,1.1-2.8c.8-.7,1.9-1.1,3.5-1.1s2,.2,2.7.5c.7.3,1.3.8,1.6,1.4.3.6.5,1.3.5,2,0,1.2-.4,2.2-1.2,2.9-.8.7-2,1.1-3.6,1.1ZM92,25.8c.6,0,1.1-.1,1.4-.4.3-.3.5-.7.5-1.2s-.2-.8-.5-1.1c-.3-.3-.8-.4-1.4-.4s-1,.1-1.3.4c-.3.3-.4.7-.4,1.1s.1.9.4,1.2.7.4,1.3.4ZM108.6,28c0-1.2.1-2.5.1-3.8s-.1-.7-.3-1c-.2-.2-.5-.4-.8-.4s-.6.1-.8.4c-.2.3-.3.7-.3,1.2h0c0,1.6,0,2.8,0,3.5h-3.2c0-1.4,0-2.6,0-3.8s-.1-.7-.3-1c-.2-.2-.5-.4-.8-.4s-.6.1-.8.4c-.2.3-.3.6-.4,1.1,0,.7,0,1.2,0,1.5,0,.6,0,1.3,0,2.1h-3.3c0-1.3.1-2.6.1-3.8s0-2.5-.1-3.8c.6,0,1.1,0,1.4,0s.8,0,1.4,0l.4,2.1c.2-.8.5-1.3,1-1.7.5-.4,1-.5,1.6-.5s1.3.2,1.8.6c.5.4.8.9.9,1.6.2-.7.6-1.2,1.1-1.6.5-.4,1.1-.6,1.7-.6s1.5.3,2,.9c.5.6.7,1.3.7,2.3v2.3c0,1.1,0,1.8,0,2.3h-3.3ZM119.2,20.2c.6,0,1.2.2,1.6.5.5.3.9.8,1.1,1.4.3.6.4,1.2.4,1.9s-.1,1.4-.4,2c-.3.6-.7,1.1-1.2,1.5-.5.4-1,.6-1.7.6s-1.3-.1-1.9-.4c-.5-.3-.9-.8-1.2-1.4,0,.5,0,1.4,0,2.6,0,1.1,0,1.9,0,2.4h-3.2c0-1.7,0-3.6,0-5.4s0-3.7,0-5.4h2.7l.4,1.8c.3-.7.6-1.1,1.2-1.4.5-.3,1.1-.5,1.8-.5ZM117.7,25.6c.4,0,.8-.1,1.1-.4.3-.3.4-.6.4-1.1s-.1-.9-.4-1.2-.6-.4-1.1-.4-.9.1-1.2.4c-.3.2-.4.7-.4,1.2s0,.6.2.8c.2.2.4.4.6.5.2,0,.5.1.7.1ZM132.3,25.7c0,.3,0,.5.1.7,0,.1.2.2.5.3v1.3c-.3,0-.6,0-.8,0-.2,0-.5,0-.9,0-.8,0-1.3-.2-1.6-.5-.3-.4-.4-.8-.4-1.4v-.3c-.3.8-.7,1.3-1.2,1.7s-1.2.6-2,.6-1.6-.2-2.1-.6c-.5-.4-.7-.9-.7-1.7s.2-1.1.6-1.4c.4-.3,1-.6,1.9-.7-.7-.5-1.4-.9-2.1-1.3.6-.7,1.2-1.2,1.9-1.6.7-.4,1.6-.6,2.6-.6s2.5.3,3.2.9c.7.6,1,1.6,1,2.9v1.7ZM128.4,22.7c-.5,0-.9,0-1.3.2-.4.2-.7.4-1,.7.6,0,1.3,0,2.1,0s.6,0,.7-.1c.1,0,.2-.2.2-.3s0-.2-.2-.3c-.1,0-.3-.1-.6-.1ZM126.9,25.8c.5,0,1,0,1.4-.3.4-.2.7-.5.9-.8v-.4c-.2.1-.5.2-.7.3-.3,0-.6.1-1,.2h-.5c-.5.2-.8.4-.8.6s.2.4.7.4ZM136.6,24.2c0,.5.2.9.4,1.1.3.3.7.4,1.3.4s.6,0,.8-.2c.2-.1.5-.3.7-.5.8.3,1.7.6,2.8.8-.3.7-.8,1.3-1.6,1.7-.7.4-1.7.6-2.8.6s-2.7-.4-3.5-1.1c-.7-.7-1.1-1.7-1.1-2.9s.4-2.1,1.1-2.9c.8-.7,1.9-1.1,3.5-1.1s2.1.2,2.8.6c.7.4,1.3,1,1.6,1.7-.8.2-1.8.4-2.8.8-.2-.2-.4-.4-.7-.5-.2-.1-.5-.2-.8-.2-.6,0-1,.1-1.3.4-.3.3-.4.7-.4,1.1ZM150,22.9c-.9,0-1.7,0-2.4-.1v1.5c0,.5,0,.9.3,1.2.2.3.6.4,1.2.4s.4,0,.6,0c0,.3,0,.7,0,1s0,.6,0,1.1c-.4,0-.8.1-1,.1-.3,0-.6,0-1.1,0-1.1,0-1.9-.3-2.3-.8-.4-.5-.7-1.3-.7-2.2v-2.4c-.4,0-.9,0-1.4,0v-2.5c.5,0,.9-.2,1.2-.5.3-.3.5-.7.6-1.1h3.8c-.5.7-1,1.2-1.6,1.6h2.7v2.5ZM155.3,28.1c-1.6,0-2.8-.4-3.5-1.1-.8-.7-1.1-1.7-1.1-2.9s.4-2.1,1.1-2.8c.8-.7,1.9-1.1,3.5-1.1s2,.2,2.7.5c.7.3,1.3.8,1.6,1.4.3.6.5,1.3.5,2,0,1.2-.4,2.2-1.2,2.9-.8.7-2,1.1-3.6,1.1ZM155.4,25.8c.6,0,1.1-.1,1.4-.4.3-.3.5-.7.5-1.2s-.2-.8-.5-1.1c-.3-.3-.8-.4-1.4-.4s-1.1.1-1.3.4c-.3.3-.4.7-.4,1.1s.1.9.4,1.2c.3.3.7.4,1.3.4ZM164.4,22.4c.4-1.4,1.4-2.1,2.9-2.1s.5,0,.8,0l-.4,3.1c-.7-.3-1.2-.4-1.7-.4s-.9.2-1.2.5-.4.7-.4,1.3h0s0,.9,0,.9c0,.7,0,1.4,0,2.2h-3.3c0-1.3.1-2.6.1-3.8s0-2.5-.1-3.8c.6,0,1.1,0,1.4,0s.8,0,1.4,0l.4,2.1Z" style="fill: #f7f8f8; stroke-width: 0px;"/>
</svg>