<svg xmlns="http://www.w3.org/2000/svg" width="151" height="44" viewBox="0 0 151 44">
  <path d="M30.9,28.1c-2.1,0-3.7-.4-4.7-1.3-1-.9-1.5-2.2-1.5-3.8s.5-3,1.5-4c1-1,2.6-1.5,4.7-1.5s4.9,1,5.9,3c-.8.3-1.8.7-3,1.3-.3-.5-.7-.9-1.3-1.2-.6-.3-1.2-.4-1.8-.4-.9,0-1.6.2-2,.7-.4.5-.7,1-.7,1.7s.2,1.4.7,1.8c.5.5,1.2.7,2.2.7s1.4-.1,1.9-.4c.5-.3.8-.7,1-1.2.8.4,1.8.9,2.9,1.4-.5,1.1-1.2,1.9-2.3,2.4-1.1.4-2.3.7-3.6.7ZM47,25.7c0,.3,0,.5.1.7,0,.1.2.2.5.3v1.3c-.4,0-.6,0-.8,0-.2,0-.5,0-.9,0-.8,0-1.3-.2-1.6-.5-.3-.4-.4-.8-.4-1.4v-.4c-.3.8-.7,1.3-1.2,1.7-.5.4-1.2.6-2,.6s-1.6-.2-2.1-.6c-.5-.4-.7-.9-.7-1.7s.2-1.1.6-1.4c.4-.3,1-.6,1.9-.7-.7-.5-1.4-.9-2.1-1.3.6-.7,1.2-1.2,1.9-1.6.7-.4,1.6-.6,2.6-.6s2.5.3,3.2.9c.7.6,1,1.6,1,2.9v1.7ZM43,22.7c-.5,0-.9,0-1.3.2s-.7.4-1,.7c.6,0,1.3,0,2.1,0s.6,0,.7-.1c.1,0,.2-.2.2-.3s0-.2-.2-.3c-.1,0-.3-.1-.6-.1ZM41.5,25.8c.5,0,1,0,1.4-.3.4-.2.7-.5.9-.8v-.4c-.2.1-.5.2-.7.3-.3,0-.6.1-1,.2h-.5c-.5.2-.8.4-.8.6s.2.4.7.4ZM52.9,28.1c-.8,0-1.6-.1-2.4-.3-.8-.2-1.6-.6-2.3-1l1.5-2c.4.3,1,.6,1.6.7.6.2,1.1.3,1.6.3s.7,0,1-.2c.2-.1.4-.3.4-.5s0-.3-.2-.3c-.1,0-.3-.1-.5-.1s-.3,0-.4,0c-.1,0-.3,0-.4,0-.5,0-1,0-1.5,0-.8,0-1.5-.2-2-.5-.5-.3-.8-.8-.8-1.5s.4-1.5,1.2-1.9c.8-.5,1.9-.7,3.4-.7s1.5.1,2.2.3c.8.2,1.4.5,2,.9l-1.6,1.6c-.5-.3-1-.5-1.5-.6-.4-.1-.9-.2-1.4-.2s-.6,0-.8.2-.4.3-.4.4,0,.2.1.3c0,0,.2.1.4.1s.4,0,.7,0c.7,0,1.2,0,1.5,0,1,0,1.7.2,2.3.5.5.3.8.8.8,1.5,0,1-.4,1.7-1.2,2.2-.8.4-1.9.7-3.2.7ZM65.7,24.5h-4.6c0,.4.3.7.5,1,.3.3.7.4,1.3.4s.8,0,1.1-.2c.4-.2.6-.4.8-.7.6.3,1.4.6,2.5,1-.3.7-.8,1.2-1.6,1.6-.8.4-1.8.6-3,.6s-2.8-.4-3.5-1.1c-.8-.7-1.1-1.7-1.1-2.9s.4-2.1,1.1-2.8c.8-.7,1.9-1.1,3.5-1.1s1.8.2,2.5.5c.7.3,1.2.8,1.6,1.3.4.6.6,1.2.6,1.9s0,.4,0,.5h-1.7ZM63,22.3c-.5,0-.8,0-1.1.3-.3.2-.5.4-.6.7h3.3c-.1-.3-.3-.5-.5-.7-.2-.2-.6-.3-1-.3ZM71.2,26.8c.3-.5.6-.9.8-1.3s.4-.9.6-1.4c.7.4,1.4.7,2.3.9.9.2,1.7.3,2.5.3s1.3,0,1.6-.2c.3-.1.5-.3.5-.4,0-.6-.9-.9-2.6-.9s-3.3-.2-4.1-.6c-.9-.4-1.3-1-1.3-1.9,0-1.3.5-2.2,1.6-2.8,1-.6,2.4-.9,4.1-.9s2,.1,3,.4c1,.2,1.9.6,2.8,1-.3.6-.6,1.4-.9,2.3,0,.2,0,.3-.1.4-.5-.4-1.2-.7-2.1-1-1-.3-1.8-.4-2.6-.4s-1.5,0-1.8.2c-.3.1-.5.3-.5.5s.2.4.6.5c.4.1,1,.2,1.8.2,2,0,3.4.2,4.3.7.9.4,1.3,1.1,1.3,2.1s-.5,2.2-1.4,2.8c-1,.6-2.4.9-4.3.9s-2.1-.1-3.2-.3c-1.1-.2-2-.6-2.9-1ZM91.6,24.5h-4.6c0,.4.3.7.6,1,.3.3.7.4,1.3.4s.8,0,1.1-.2c.4-.2.6-.4.8-.7.6.3,1.5.6,2.5,1-.3.7-.8,1.2-1.6,1.6-.8.4-1.8.6-3,.6s-2.8-.4-3.5-1.1c-.8-.7-1.1-1.7-1.1-2.9s.4-2.1,1.1-2.8c.8-.7,1.9-1.1,3.5-1.1s1.8.2,2.5.5c.7.3,1.2.8,1.6,1.3.4.6.6,1.2.6,1.9s0,.4,0,.5h-1.7ZM88.9,22.3c-.5,0-.9,0-1.1.3-.3.2-.5.4-.6.7h3.3c-.1-.3-.3-.5-.5-.7-.3-.2-.6-.3-1-.3ZM103.3,25.7c0,.3,0,.5.1.7,0,.1.2.2.5.3v1.3c-.4,0-.6,0-.8,0-.2,0-.5,0-.9,0-.8,0-1.3-.2-1.6-.5-.3-.4-.4-.8-.4-1.4v-.4c-.3.8-.7,1.3-1.2,1.7-.5.4-1.2.6-2,.6s-1.6-.2-2.1-.6c-.5-.4-.7-.9-.7-1.7s.2-1.1.6-1.4c.4-.3,1-.6,1.9-.7-.7-.5-1.4-.9-2.1-1.3.6-.7,1.2-1.2,1.9-1.6.7-.4,1.6-.6,2.6-.6s2.5.3,3.2.9c.7.6,1,1.6,1,2.9v1.7ZM99.3,22.7c-.5,0-.9,0-1.3.2-.4.2-.7.4-1,.7.6,0,1.3,0,2.1,0s.6,0,.7-.1c.1,0,.2-.2.2-.3s0-.2-.2-.3c-.1,0-.3-.1-.6-.1ZM97.9,25.8c.5,0,1,0,1.4-.3.4-.2.7-.5.9-.8v-.4c-.2.1-.5.2-.7.3-.3,0-.6.1-1,.2h-.5c-.5.2-.8.4-.8.6s.2.4.7.4ZM108,22.4c0,.6,0,1.4,0,2.6s0,2.4,0,3h-3.3v-1.6c0-1.7,0-3.1,0-4s0-2.2,0-3.8v-1.5s3.3,0,3.3,0c0,1.3,0,2.4,0,3.2s0,1.6,0,2.1ZM116.5,24.5h-4.6c0,.4.3.7.5,1,.3.3.7.4,1.3.4s.8,0,1.1-.2c.4-.2.6-.4.8-.7.6.3,1.4.6,2.5,1-.3.7-.8,1.2-1.6,1.6-.8.4-1.8.6-3,.6s-2.8-.4-3.5-1.1c-.8-.7-1.1-1.7-1.1-2.9s.4-2.1,1.1-2.8c.8-.7,1.9-1.1,3.5-1.1s1.8.2,2.5.5c.7.3,1.2.8,1.6,1.3.4.6.6,1.2.6,1.9s0,.4,0,.5h-1.7ZM113.8,22.3c-.5,0-.8,0-1.1.3-.3.2-.5.4-.6.7h3.3c-.1-.3-.3-.5-.5-.7-.3-.2-.6-.3-1-.3ZM122.5,22.4c.4-1.4,1.4-2.1,2.9-2.1s.5,0,.8,0l-.5,3.1c-.7-.3-1.2-.4-1.6-.4s-.9.2-1.2.5c-.3.3-.4.7-.4,1.3h0s0,.9,0,.9c0,.7,0,1.4,0,2.2h-3.4c0-1.3.1-2.6.1-3.8s0-2.5-.1-3.8c.6,0,1.1,0,1.4,0s.8,0,1.4,0l.4,2.1Z" style="fill: #f7f8f8; stroke-width: 0px;"/>
</svg>