<svg width="273" height="44" viewBox="0 0 273 44" fill="none" xmlns="http://www.w3.org/2000/svg">
<g filter="url(#filter0_b_5847_32383)">
<path d="M32.847 22.946C34.975 22.946 36.039 23.6227 36.039 24.976C36.039 25.6107 35.8943 26.152 35.605 26.6C35.3157 27.0387 34.7977 27.384 34.051 27.636C33.3043 27.8787 32.2683 28 30.943 28H24.643C24.7177 26.1893 24.755 24.4953 24.755 22.918C24.755 21.3407 24.7177 19.6467 24.643 17.836H27.933V17.85H30.915C32.0723 17.85 32.9823 17.948 33.645 18.144C34.317 18.3307 34.7883 18.606 35.059 18.97C35.339 19.334 35.479 19.796 35.479 20.356C35.479 20.9253 35.2783 21.434 34.877 21.882C34.485 22.3207 33.8083 22.6753 32.847 22.946ZM27.933 20.398V21.7H30.621C31.1997 21.7 31.601 21.6487 31.825 21.546C32.0583 21.4433 32.175 21.2567 32.175 20.986C32.175 20.7713 32.0537 20.622 31.811 20.538C31.5777 20.4447 31.181 20.398 30.621 20.398H27.933ZM30.621 25.438C31.1063 25.438 31.475 25.4193 31.727 25.382C31.9883 25.3353 32.175 25.2607 32.287 25.158C32.399 25.046 32.455 24.8967 32.455 24.71C32.455 24.4673 32.3197 24.2947 32.049 24.192C31.7877 24.08 31.3117 24.024 30.621 24.024H27.933V25.438H30.621ZM41.6608 28.14C40.0648 28.14 38.8888 27.776 38.1328 27.048C37.3861 26.3107 37.0128 25.3447 37.0128 24.15C37.0128 22.9833 37.3861 22.036 38.1328 21.308C38.8888 20.58 40.0648 20.216 41.6608 20.216C42.7341 20.216 43.6301 20.3933 44.3488 20.748C45.0768 21.0933 45.6134 21.5647 45.9588 22.162C46.3041 22.75 46.4768 23.4127 46.4768 24.15C46.4768 25.354 46.0754 26.32 45.2728 27.048C44.4794 27.776 43.2754 28.14 41.6608 28.14ZM41.7168 25.76C42.3234 25.76 42.7761 25.6153 43.0748 25.326C43.3734 25.0367 43.5228 24.6493 43.5228 24.164C43.5228 23.7067 43.3734 23.3333 43.0748 23.044C42.7761 22.7453 42.3234 22.596 41.7168 22.596C41.1101 22.596 40.6668 22.7407 40.3868 23.03C40.1068 23.3193 39.9668 23.6973 39.9668 24.164C39.9668 24.6493 40.1068 25.0367 40.3868 25.326C40.6668 25.6153 41.1101 25.76 41.7168 25.76ZM53.2499 24.08L56.1899 28H52.7179C52.5406 27.6453 52.2139 27.1273 51.7379 26.446L51.4159 25.984C51.3599 26.068 51.2946 26.1567 51.2199 26.25C51.1546 26.3433 51.0893 26.446 51.0239 26.558C50.8373 26.8193 50.6599 27.076 50.4919 27.328C50.3333 27.58 50.2026 27.804 50.0999 28H46.6279L49.5679 24.08L46.7399 20.356H50.1979C50.3286 20.6173 50.5806 21.0233 50.9539 21.574L51.4159 22.274L51.8079 21.672C52.1999 21.084 52.4706 20.6453 52.6199 20.356H56.0779L53.2499 24.08ZM67.3173 25.844L68.5213 20.356H71.3073L69.7533 28H66.0153L65.1333 24.43L64.1393 28H60.5413L58.9873 20.356H61.7733L62.9633 25.83L63.7753 20.356H66.5333L67.3173 25.844ZM78.5744 24.5H74.0104C74.0851 24.9107 74.2671 25.2467 74.5564 25.508C74.8551 25.76 75.2751 25.886 75.8164 25.886C76.2084 25.886 76.5771 25.8113 76.9224 25.662C77.2677 25.5033 77.5431 25.284 77.7484 25.004C78.3737 25.312 79.2044 25.6433 80.2404 25.998C79.9511 26.6513 79.4237 27.174 78.6584 27.566C77.9024 27.9487 76.9131 28.14 75.6904 28.14C74.1037 28.14 72.9277 27.776 72.1624 27.048C71.4064 26.3107 71.0284 25.3447 71.0284 24.15C71.0284 22.9833 71.4064 22.036 72.1624 21.308C72.9184 20.58 74.0944 20.216 75.6904 20.216C76.6424 20.216 77.4684 20.3747 78.1684 20.692C78.8684 21.0093 79.4051 21.4527 79.7784 22.022C80.1517 22.582 80.3384 23.226 80.3384 23.954C80.3384 24.1967 80.3291 24.3787 80.3104 24.5H78.5744ZM75.8864 22.33C75.4197 22.33 75.0371 22.4187 74.7384 22.596C74.4397 22.7733 74.2297 23.016 74.1084 23.324H77.4124C77.3004 23.0253 77.1184 22.7873 76.8664 22.61C76.6144 22.4233 76.2877 22.33 75.8864 22.33ZM83.1889 19.53C82.6009 19.53 82.1623 19.3853 81.8729 19.096C81.5929 18.8067 81.4529 18.4287 81.4529 17.962C81.4529 17.5047 81.5929 17.1267 81.8729 16.828C82.1623 16.5293 82.6009 16.38 83.1889 16.38C83.7489 16.38 84.1783 16.534 84.4769 16.842C84.7756 17.1407 84.9249 17.514 84.9249 17.962C84.9249 18.4287 84.7803 18.8067 84.4909 19.096C84.2016 19.3853 83.7676 19.53 83.1889 19.53ZM81.5649 28C81.6303 26.4973 81.6629 25.256 81.6629 24.276C81.6629 23.1093 81.6256 21.8027 81.5509 20.356H84.9109C84.8363 21.7467 84.7989 23.0533 84.7989 24.276C84.7989 25.3027 84.8316 26.544 84.8969 28H81.5649ZM92.7881 20.356H95.4761C95.4295 21.8867 95.4061 24.0613 95.4061 26.88C95.4061 27.9907 95.1821 28.9007 94.7341 29.61C94.2955 30.3193 93.7121 30.8327 92.9841 31.15C92.2561 31.4767 91.4441 31.64 90.5481 31.64C89.6615 31.64 88.8681 31.5093 88.1681 31.248C87.4681 30.996 86.9361 30.6553 86.5721 30.226L87.2021 28.084C87.7061 28.3733 88.1821 28.5787 88.6301 28.7C89.0781 28.8307 89.5448 28.896 90.0301 28.896C91.6168 28.896 92.4101 28.224 92.4101 26.88C92.4101 26.684 92.4148 26.544 92.4241 26.46C92.4241 26.404 92.4241 26.3293 92.4241 26.236C92.4335 26.1427 92.4335 26.0213 92.4241 25.872C91.9481 27.1973 90.9401 27.86 89.4001 27.86C88.7748 27.86 88.2148 27.692 87.7201 27.356C87.2348 27.02 86.8568 26.5673 86.5861 25.998C86.3155 25.4193 86.1801 24.7847 86.1801 24.094C86.1801 23.3847 86.3155 22.736 86.5861 22.148C86.8568 21.5507 87.2348 21.0793 87.7201 20.734C88.2055 20.3887 88.7515 20.216 89.3581 20.216C90.9355 20.216 91.9621 20.7713 92.4381 21.882L92.7881 20.356ZM90.8561 25.62C91.0708 25.62 91.2948 25.5733 91.5281 25.48C91.7615 25.3773 91.9621 25.2187 92.1301 25.004C92.2981 24.78 92.3821 24.5047 92.3821 24.178C92.3821 23.5993 92.2515 23.1887 91.9901 22.946C91.7288 22.694 91.3415 22.568 90.8281 22.568C90.3801 22.568 90.0255 22.7173 89.7641 23.016C89.5028 23.3147 89.3721 23.702 89.3721 24.178C89.3721 24.6073 89.5121 24.9573 89.7921 25.228C90.0815 25.4893 90.4361 25.62 90.8561 25.62ZM102.058 28C102.114 26.628 102.142 25.3633 102.142 24.206C102.142 23.7953 102.039 23.4687 101.834 23.226C101.638 22.9833 101.386 22.862 101.078 22.862C100.751 22.862 100.471 23.0207 100.238 23.338C100.014 23.6553 99.9021 24.0893 99.9021 24.64L99.8881 24.612C99.8881 26.1333 99.9068 27.2627 99.9441 28H96.5981C96.6728 26.656 96.7101 24.836 96.7101 22.54C96.7101 20.244 96.6728 18.424 96.5981 17.08H99.9301L99.9441 21.392L99.9301 22.134C100.154 21.4807 100.485 21 100.924 20.692C101.372 20.3747 101.876 20.216 102.436 20.216C102.996 20.216 103.481 20.342 103.892 20.594C104.303 20.8367 104.611 21.168 104.816 21.588C105.031 22.008 105.138 22.4793 105.138 23.002V25.018C105.138 26.2593 105.161 27.2533 105.208 28H102.058ZM112.401 22.862C111.542 22.806 110.758 22.764 110.049 22.736L110.035 24.22C110.035 24.724 110.142 25.1207 110.357 25.41C110.581 25.69 110.973 25.83 111.533 25.83C111.748 25.83 111.953 25.8113 112.149 25.774C112.112 26.1193 112.093 26.4693 112.093 26.824C112.093 26.992 112.102 27.3747 112.121 27.972C111.71 28.0467 111.365 28.0933 111.085 28.112C110.805 28.1307 110.441 28.14 109.993 28.14C108.901 28.14 108.126 27.8787 107.669 27.356C107.221 26.824 106.997 26.0867 106.997 25.144L107.011 22.778C106.572 22.7967 106.115 22.8247 105.639 22.862V20.384C106.124 20.384 106.535 20.23 106.871 19.922C107.207 19.614 107.408 19.2453 107.473 18.816H111.281C110.805 19.4693 110.278 19.992 109.699 20.384H112.401V22.862ZM120.561 28.14C119.777 28.14 118.979 28.0327 118.167 27.818C117.365 27.594 116.609 27.258 115.899 26.81L117.369 24.808C117.799 25.116 118.317 25.3587 118.923 25.536C119.53 25.704 120.053 25.788 120.491 25.788C120.911 25.788 121.233 25.732 121.457 25.62C121.691 25.4987 121.807 25.3447 121.807 25.158C121.807 25.0087 121.751 24.892 121.639 24.808C121.527 24.724 121.373 24.682 121.177 24.682C121.056 24.682 120.916 24.6867 120.757 24.696C120.608 24.7053 120.487 24.7147 120.393 24.724C119.908 24.78 119.409 24.808 118.895 24.808C118.065 24.808 117.388 24.654 116.865 24.346C116.352 24.0287 116.095 23.5153 116.095 22.806C116.095 21.9847 116.483 21.35 117.257 20.902C118.032 20.4447 119.171 20.216 120.673 20.216C121.411 20.216 122.153 20.3233 122.899 20.538C123.655 20.7433 124.323 21.056 124.901 21.476L123.291 23.1C122.759 22.82 122.26 22.624 121.793 22.512C121.336 22.3907 120.874 22.33 120.407 22.33C120.081 22.33 119.801 22.3953 119.567 22.526C119.334 22.6567 119.217 22.806 119.217 22.974C119.217 23.1047 119.264 23.2073 119.357 23.282C119.46 23.3567 119.591 23.394 119.749 23.394C119.908 23.394 120.127 23.38 120.407 23.352C121.089 23.3053 121.597 23.282 121.933 23.282C122.904 23.282 123.655 23.4453 124.187 23.772C124.719 24.0987 124.985 24.598 124.985 25.27C124.985 26.278 124.593 27.0107 123.809 27.468C123.025 27.916 121.943 28.14 120.561 28.14ZM130.473 28.14C128.877 28.14 127.701 27.776 126.945 27.048C126.199 26.3107 125.825 25.3447 125.825 24.15C125.825 22.9833 126.199 22.036 126.945 21.308C127.701 20.58 128.877 20.216 130.473 20.216C131.547 20.216 132.443 20.3933 133.161 20.748C133.889 21.0933 134.426 21.5647 134.771 22.162C135.117 22.75 135.289 23.4127 135.289 24.15C135.289 25.354 134.888 26.32 134.085 27.048C133.292 27.776 132.088 28.14 130.473 28.14ZM130.529 25.76C131.136 25.76 131.589 25.6153 131.887 25.326C132.186 25.0367 132.335 24.6493 132.335 24.164C132.335 23.7067 132.186 23.3333 131.887 23.044C131.589 22.7453 131.136 22.596 130.529 22.596C129.923 22.596 129.479 22.7407 129.199 23.03C128.919 23.3193 128.779 23.6973 128.779 24.164C128.779 24.6493 128.919 25.0367 129.199 25.326C129.479 25.6153 129.923 25.76 130.529 25.76ZM139.522 22.428C139.914 21.0187 140.889 20.314 142.448 20.314C142.719 20.314 142.98 20.3327 143.232 20.37L142.784 23.506C142.112 23.254 141.561 23.128 141.132 23.128C140.6 23.128 140.208 23.2867 139.956 23.604C139.704 23.9213 139.578 24.346 139.578 24.878V24.864L139.564 25.788C139.564 26.4507 139.583 27.188 139.62 28H136.274C136.349 26.656 136.386 25.3867 136.386 24.192C136.386 22.9973 136.349 21.7187 136.274 20.356C136.89 20.384 137.361 20.398 137.688 20.398C138.033 20.398 138.505 20.384 139.102 20.356L139.522 22.428ZM150.696 22.862C149.837 22.806 149.053 22.764 148.344 22.736L148.33 24.22C148.33 24.724 148.437 25.1207 148.652 25.41C148.876 25.69 149.268 25.83 149.828 25.83C150.043 25.83 150.248 25.8113 150.444 25.774C150.407 26.1193 150.388 26.4693 150.388 26.824C150.388 26.992 150.397 27.3747 150.416 27.972C150.005 28.0467 149.66 28.0933 149.38 28.112C149.1 28.1307 148.736 28.14 148.288 28.14C147.196 28.14 146.421 27.8787 145.964 27.356C145.516 26.824 145.292 26.0867 145.292 25.144L145.306 22.778C144.867 22.7967 144.41 22.8247 143.934 22.862V20.384C144.419 20.384 144.83 20.23 145.166 19.922C145.502 19.614 145.703 19.2453 145.768 18.816H149.576C149.1 19.4693 148.573 19.992 147.994 20.384H150.696V22.862ZM153.408 19.53C152.82 19.53 152.381 19.3853 152.092 19.096C151.812 18.8067 151.672 18.4287 151.672 17.962C151.672 17.5047 151.812 17.1267 152.092 16.828C152.381 16.5293 152.82 16.38 153.408 16.38C153.968 16.38 154.397 16.534 154.696 16.842C154.994 17.1407 155.144 17.514 155.144 17.962C155.144 18.4287 154.999 18.8067 154.71 19.096C154.42 19.3853 153.986 19.53 153.408 19.53ZM151.784 28C151.849 26.4973 151.882 25.256 151.882 24.276C151.882 23.1093 151.844 21.8027 151.77 20.356H155.13C155.055 21.7467 155.018 23.0533 155.018 24.276C155.018 25.3027 155.05 26.544 155.116 28H151.784ZM161.859 28C161.915 26.628 161.943 25.3633 161.943 24.206C161.943 23.7953 161.84 23.4687 161.635 23.226C161.439 22.9833 161.187 22.862 160.879 22.862C160.571 22.862 160.31 23.002 160.095 23.282C159.88 23.5527 159.754 23.926 159.717 24.402C159.698 25.1113 159.689 25.6153 159.689 25.914C159.689 26.5487 159.708 27.244 159.745 28H156.399C156.474 26.656 156.511 25.3867 156.511 24.192C156.511 22.9973 156.474 21.7187 156.399 20.356C157.015 20.384 157.486 20.398 157.813 20.398C158.158 20.398 158.63 20.384 159.227 20.356L159.633 22.414C159.848 21.6673 160.184 21.1167 160.641 20.762C161.098 20.398 161.63 20.216 162.237 20.216C162.797 20.216 163.282 20.342 163.693 20.594C164.104 20.8367 164.412 21.168 164.617 21.588C164.832 22.008 164.939 22.4793 164.939 23.002V25.018C164.939 26.2593 164.962 27.2533 165.009 28H161.859ZM172.741 20.356H175.429C175.383 21.8867 175.359 24.0613 175.359 26.88C175.359 27.9907 175.135 28.9007 174.687 29.61C174.249 30.3193 173.665 30.8327 172.937 31.15C172.209 31.4767 171.397 31.64 170.501 31.64C169.615 31.64 168.821 31.5093 168.121 31.248C167.421 30.996 166.889 30.6553 166.525 30.226L167.155 28.084C167.659 28.3733 168.135 28.5787 168.583 28.7C169.031 28.8307 169.498 28.896 169.983 28.896C171.57 28.896 172.363 28.224 172.363 26.88C172.363 26.684 172.368 26.544 172.377 26.46C172.377 26.404 172.377 26.3293 172.377 26.236C172.387 26.1427 172.387 26.0213 172.377 25.872C171.901 27.1973 170.893 27.86 169.353 27.86C168.728 27.86 168.168 27.692 167.673 27.356C167.188 27.02 166.81 26.5673 166.539 25.998C166.269 25.4193 166.133 24.7847 166.133 24.094C166.133 23.3847 166.269 22.736 166.539 22.148C166.81 21.5507 167.188 21.0793 167.673 20.734C168.159 20.3887 168.705 20.216 169.311 20.216C170.889 20.216 171.915 20.7713 172.391 21.882L172.741 20.356ZM170.809 25.62C171.024 25.62 171.248 25.5733 171.481 25.48C171.715 25.3773 171.915 25.2187 172.083 25.004C172.251 24.78 172.335 24.5047 172.335 24.178C172.335 23.5993 172.205 23.1887 171.943 22.946C171.682 22.694 171.295 22.568 170.781 22.568C170.333 22.568 169.979 22.7173 169.717 23.016C169.456 23.3147 169.325 23.702 169.325 24.178C169.325 24.6073 169.465 24.9573 169.745 25.228C170.035 25.4893 170.389 25.62 170.809 25.62ZM190.204 28C190.279 26.7773 190.316 25.5127 190.316 24.206C190.316 23.786 190.209 23.4593 189.994 23.226C189.789 22.9833 189.513 22.862 189.168 22.862C188.851 22.862 188.575 23.002 188.342 23.282C188.118 23.562 188.006 23.968 188.006 24.5V24.486C188.006 26.138 188.029 27.3093 188.076 28H184.926C184.982 26.628 185.01 25.3633 185.01 24.206C185.01 23.7953 184.907 23.4687 184.702 23.226C184.506 22.9833 184.254 22.862 183.946 22.862C183.619 22.862 183.344 23.002 183.12 23.282C182.905 23.5527 182.779 23.926 182.742 24.402C182.723 25.1113 182.714 25.6153 182.714 25.914C182.714 26.5487 182.733 27.244 182.77 28H179.424C179.499 26.656 179.536 25.3867 179.536 24.192C179.536 22.9973 179.499 21.7187 179.424 20.356C180.04 20.384 180.511 20.398 180.838 20.398C181.183 20.398 181.655 20.384 182.252 20.356L182.672 22.428C182.887 21.672 183.227 21.1167 183.694 20.762C184.161 20.398 184.697 20.216 185.304 20.216C186.032 20.216 186.625 20.4167 187.082 20.818C187.549 21.2193 187.838 21.742 187.95 22.386C188.165 21.7233 188.524 21.196 189.028 20.804C189.532 20.412 190.106 20.216 190.75 20.216C191.59 20.216 192.248 20.5007 192.724 21.07C193.2 21.63 193.438 22.4 193.438 23.38V25.704C193.438 26.7587 193.447 27.524 193.466 28H190.204ZM203.695 25.676C203.695 25.9933 203.732 26.2173 203.807 26.348C203.882 26.4787 204.031 26.572 204.255 26.628L204.199 27.944C203.9 27.9907 203.639 28.0233 203.415 28.042C203.2 28.0607 202.911 28.07 202.547 28.07C201.744 28.07 201.212 27.8927 200.951 27.538C200.69 27.174 200.559 26.712 200.559 26.152V25.802C200.288 26.5673 199.892 27.1367 199.369 27.51C198.856 27.8833 198.198 28.07 197.395 28.07C196.462 28.07 195.757 27.8833 195.281 27.51C194.814 27.1367 194.581 26.5813 194.581 25.844C194.581 25.2373 194.782 24.7613 195.183 24.416C195.584 24.0707 196.205 23.8327 197.045 23.702C196.336 23.198 195.626 22.7593 194.917 22.386C195.477 21.6767 196.116 21.14 196.835 20.776C197.554 20.4027 198.426 20.216 199.453 20.216C200.89 20.216 201.954 20.5287 202.645 21.154C203.345 21.77 203.695 22.722 203.695 24.01V25.676ZM199.747 22.68C199.271 22.68 198.851 22.7593 198.487 22.918C198.123 23.0767 197.796 23.3147 197.507 23.632C198.067 23.5667 198.767 23.534 199.607 23.534C199.952 23.534 200.195 23.492 200.335 23.408C200.475 23.324 200.545 23.2167 200.545 23.086C200.545 22.974 200.475 22.8807 200.335 22.806C200.195 22.722 199.999 22.68 199.747 22.68ZM198.277 25.788C198.8 25.788 199.271 25.69 199.691 25.494C200.111 25.2887 200.4 25.0227 200.559 24.696V24.332C200.335 24.444 200.088 24.5327 199.817 24.598C199.546 24.654 199.22 24.71 198.837 24.766L198.333 24.85C197.81 24.9527 197.549 25.13 197.549 25.382C197.549 25.6527 197.792 25.788 198.277 25.788ZM207.94 24.178C207.959 24.654 208.108 25.0367 208.388 25.326C208.677 25.6153 209.102 25.76 209.662 25.76C209.97 25.76 210.245 25.704 210.488 25.592C210.731 25.4707 210.955 25.2933 211.16 25.06C211.953 25.368 212.882 25.634 213.946 25.858C213.638 26.5767 213.115 27.1367 212.378 27.538C211.65 27.9393 210.703 28.14 209.536 28.14C207.977 28.14 206.825 27.776 206.078 27.048C205.331 26.32 204.958 25.3633 204.958 24.178C204.958 22.9927 205.331 22.036 206.078 21.308C206.825 20.58 207.977 20.216 209.536 20.216C210.703 20.216 211.65 20.4167 212.378 20.818C213.115 21.2193 213.638 21.7793 213.946 22.498C213.115 22.6753 212.187 22.9413 211.16 23.296C210.955 23.0627 210.731 22.89 210.488 22.778C210.245 22.6567 209.97 22.596 209.662 22.596C209.102 22.596 208.677 22.7407 208.388 23.03C208.108 23.3193 207.959 23.702 207.94 24.178ZM220.457 28C220.513 26.628 220.541 25.3633 220.541 24.206C220.541 23.7953 220.438 23.4687 220.233 23.226C220.037 22.9833 219.785 22.862 219.477 22.862C219.15 22.862 218.87 23.0207 218.637 23.338C218.413 23.6553 218.301 24.0893 218.301 24.64L218.287 24.612C218.287 26.1333 218.305 27.2627 218.343 28H214.997C215.071 26.656 215.109 24.836 215.109 22.54C215.109 20.244 215.071 18.424 214.997 17.08H218.329L218.343 21.392L218.329 22.134C218.553 21.4807 218.884 21 219.323 20.692C219.771 20.3747 220.275 20.216 220.835 20.216C221.395 20.216 221.88 20.342 222.291 20.594C222.701 20.8367 223.009 21.168 223.215 21.588C223.429 22.008 223.537 22.4793 223.537 23.002V25.018C223.537 26.2593 223.56 27.2533 223.607 28H220.457ZM226.607 19.53C226.019 19.53 225.58 19.3853 225.291 19.096C225.011 18.8067 224.871 18.4287 224.871 17.962C224.871 17.5047 225.011 17.1267 225.291 16.828C225.58 16.5293 226.019 16.38 226.607 16.38C227.167 16.38 227.596 16.534 227.895 16.842C228.194 17.1407 228.343 17.514 228.343 17.962C228.343 18.4287 228.198 18.8067 227.909 19.096C227.62 19.3853 227.186 19.53 226.607 19.53ZM224.983 28C225.048 26.4973 225.081 25.256 225.081 24.276C225.081 23.1093 225.044 21.8027 224.969 20.356H228.329C228.254 21.7467 228.217 23.0533 228.217 24.276C228.217 25.3027 228.25 26.544 228.315 28H224.983ZM235.058 28C235.114 26.628 235.142 25.3633 235.142 24.206C235.142 23.7953 235.039 23.4687 234.834 23.226C234.638 22.9833 234.386 22.862 234.078 22.862C233.77 22.862 233.509 23.002 233.294 23.282C233.079 23.5527 232.953 23.926 232.916 24.402C232.897 25.1113 232.888 25.6153 232.888 25.914C232.888 26.5487 232.907 27.244 232.944 28H229.598C229.673 26.656 229.71 25.3867 229.71 24.192C229.71 22.9973 229.673 21.7187 229.598 20.356C230.214 20.384 230.685 20.398 231.012 20.398C231.357 20.398 231.829 20.384 232.426 20.356L232.832 22.414C233.047 21.6673 233.383 21.1167 233.84 20.762C234.297 20.398 234.829 20.216 235.436 20.216C235.996 20.216 236.481 20.342 236.892 20.594C237.303 20.8367 237.611 21.168 237.816 21.588C238.031 22.008 238.138 22.4793 238.138 23.002V25.018C238.138 26.2593 238.161 27.2533 238.208 28H235.058ZM246.738 24.5H242.174C242.249 24.9107 242.431 25.2467 242.72 25.508C243.019 25.76 243.439 25.886 243.98 25.886C244.372 25.886 244.741 25.8113 245.086 25.662C245.432 25.5033 245.707 25.284 245.912 25.004C246.538 25.312 247.368 25.6433 248.404 25.998C248.115 26.6513 247.588 27.174 246.822 27.566C246.066 27.9487 245.077 28.14 243.854 28.14C242.268 28.14 241.092 27.776 240.326 27.048C239.57 26.3107 239.192 25.3447 239.192 24.15C239.192 22.9833 239.57 22.036 240.326 21.308C241.082 20.58 242.258 20.216 243.854 20.216C244.806 20.216 245.632 20.3747 246.332 20.692C247.032 21.0093 247.569 21.4527 247.942 22.022C248.316 22.582 248.502 23.226 248.502 23.954C248.502 24.1967 248.493 24.3787 248.474 24.5H246.738ZM244.05 22.33C243.584 22.33 243.201 22.4187 242.902 22.596C242.604 22.7733 242.394 23.016 242.272 23.324H245.576C245.464 23.0253 245.282 22.7873 245.03 22.61C244.778 22.4233 244.452 22.33 244.05 22.33Z" fill="#F8F8F8"/>
</g>
<defs>
<filter id="filter0_b_5847_32383" x="-9.57055" y="-9.57055" width="292.141" height="63.1411" filterUnits="userSpaceOnUse" color-interpolation-filters="sRGB">
<feFlood flood-opacity="0" result="BackgroundImageFix"/>
<feGaussianBlur in="BackgroundImageFix" stdDeviation="4.78528"/>
<feComposite in2="SourceAlpha" operator="in" result="effect1_backgroundBlur_5847_32383"/>
<feBlend mode="normal" in="SourceGraphic" in2="effect1_backgroundBlur_5847_32383" result="shape"/>
</filter>
</defs>
</svg>
