<svg xmlns="http://www.w3.org/2000/svg" width="196" height="44" viewBox="0 0 196 44">
  <path d="M36.1,21.2c0,.8-.2,1.5-.6,2.1-.4.6-1.1,1-2,1.2.1.1.2.3.2.4l2.3,3.1h-3.8c-.4-.8-1.1-1.8-1.9-3.2h-2.1v3.2h-3.3c0-1.8.1-3.5.1-5.1s0-3.3-.1-5.1h3.3s2.9,0,2.9,0c1.9,0,3.2.3,3.9.9.8.6,1.1,1.4,1.1,2.5ZM28.1,20.5v1.6h1.9c.8,0,1.4,0,1.8,0,.4,0,.7-.1.8-.3.2-.1.2-.3.2-.5s0-.4-.2-.5c-.1-.1-.4-.2-.8-.2-.4,0-1,0-1.8,0h-1.9ZM41,28.1c-1.6,0-2.8-.4-3.5-1.1-.7-.7-1.1-1.7-1.1-2.9s.4-2.1,1.1-2.8c.8-.7,1.9-1.1,3.5-1.1s2,.2,2.7.5c.7.3,1.3.8,1.6,1.4.3.6.5,1.3.5,2,0,1.2-.4,2.2-1.2,2.9-.8.7-2,1.1-3.6,1.1ZM41,25.8c.6,0,1.1-.1,1.4-.4.3-.3.4-.7.4-1.2s-.1-.8-.4-1.1c-.3-.3-.8-.4-1.4-.4s-1.1.1-1.3.4-.4.7-.4,1.1.1.9.4,1.2c.3.3.7.4,1.3.4ZM55.8,25.7c0,.3,0,.5.1.7,0,.1.2.2.4.3v1.3c-.4,0-.6,0-.8,0-.2,0-.5,0-.9,0-.8,0-1.3-.2-1.6-.5-.3-.4-.4-.8-.4-1.4v-.4c-.3.8-.7,1.3-1.2,1.7-.5.4-1.2.6-2,.6s-1.6-.2-2.1-.6c-.5-.4-.7-.9-.7-1.7s.2-1.1.6-1.4c.4-.3,1-.6,1.9-.7-.7-.5-1.4-.9-2.1-1.3.6-.7,1.2-1.2,1.9-1.6.7-.4,1.6-.6,2.6-.6s2.5.3,3.2.9c.7.6,1.1,1.6,1.1,2.9v1.7ZM51.8,22.7c-.5,0-.9,0-1.3.2-.4.2-.7.4-1,.7.6,0,1.3,0,2.1,0s.6,0,.7-.1c.1,0,.2-.2.2-.3s0-.2-.2-.3c-.1,0-.3-.1-.6-.1ZM50.3,25.8c.5,0,1,0,1.4-.3.4-.2.7-.5.9-.8v-.4c-.2.1-.5.2-.7.3-.3,0-.6.1-1,.2h-.5c-.5.2-.8.4-.8.6s.2.4.7.4ZM61.7,28.1c-.8,0-1.6-.1-2.4-.3-.8-.2-1.6-.6-2.3-1l1.5-2c.4.3.9.6,1.6.7.6.2,1.1.3,1.6.3s.7,0,1-.2c.2-.1.4-.3.4-.5s0-.3-.2-.3c-.1,0-.3-.1-.5-.1s-.3,0-.4,0c-.1,0-.3,0-.4,0-.5,0-1,0-1.5,0-.8,0-1.5-.2-2-.5-.5-.3-.8-.8-.8-1.5s.4-1.5,1.2-1.9c.8-.5,1.9-.7,3.4-.7s1.5.1,2.2.3c.8.2,1.4.5,2,.9l-1.6,1.6c-.5-.3-1-.5-1.5-.6-.4-.1-.9-.2-1.4-.2s-.6,0-.8.2c-.2.1-.4.3-.4.4s0,.2.1.3c0,0,.2.1.4.1s.4,0,.7,0c.7,0,1.2,0,1.5,0,1,0,1.7.2,2.3.5.5.3.8.8.8,1.5,0,1-.4,1.7-1.2,2.2-.8.4-1.9.7-3.2.7ZM73.1,22.9c-.9,0-1.6,0-2.3-.1v1.5c0,.5,0,.9.3,1.2.2.3.6.4,1.2.4s.4,0,.6,0c0,.3,0,.7,0,1s0,.6,0,1.1c-.4,0-.8.1-1,.1-.3,0-.6,0-1.1,0-1.1,0-1.9-.3-2.3-.8-.4-.5-.7-1.3-.7-2.2v-2.4c-.4,0-.9,0-1.4,0v-2.5c.5,0,.9-.2,1.2-.5.3-.3.5-.7.6-1.1h3.8c-.5.7-1,1.2-1.6,1.6h2.7v2.5ZM81.4,24.5h-4.6c0,.4.3.7.6,1,.3.3.7.4,1.3.4s.8,0,1.1-.2c.3-.2.6-.4.8-.7.6.3,1.5.6,2.5,1-.3.7-.8,1.2-1.6,1.6-.8.4-1.8.6-3,.6s-2.8-.4-3.5-1.1c-.8-.7-1.1-1.7-1.1-2.9s.4-2.1,1.1-2.8c.8-.7,1.9-1.1,3.5-1.1s1.8.2,2.5.5c.7.3,1.2.8,1.6,1.3.4.6.6,1.2.6,1.9s0,.4,0,.5h-1.7ZM78.7,22.3c-.5,0-.9,0-1.1.3-.3.2-.5.4-.6.7h3.3c-.1-.3-.3-.5-.5-.7-.3-.2-.6-.3-1-.3ZM93.3,17.1c0,1.7,0,3.6,0,5.4s0,3.7,0,5.4h-3.2v-1.7c-.2.6-.6,1.1-1.1,1.4-.5.3-1.1.4-1.8.4s-1.1-.2-1.6-.5c-.5-.3-.9-.8-1.1-1.4-.3-.6-.4-1.3-.4-2s.1-1.4.4-2c.3-.6.7-1.1,1.1-1.5.5-.4,1.1-.6,1.7-.6s1.4.2,1.9.5c.5.3.9.8,1.2,1.4,0-.5,0-1.4,0-2.6,0-1.1,0-1.9,0-2.4h3.2ZM88.6,25.8c.5,0,.8-.1,1.1-.4.3-.3.4-.7.4-1.2s-.1-.9-.4-1.1-.7-.4-1.1-.4-.8.1-1.1.4c-.3.3-.4.6-.4,1s.1.9.4,1.2c.3.3.6.4,1.1.4ZM105.4,22.9c2.1,0,3.2.7,3.2,2s-.1,1.2-.4,1.6c-.3.4-.8.8-1.6,1-.8.2-1.8.4-3.1.4h-6.3c0-1.8.1-3.5.1-5.1s0-3.3-.1-5.1h3.3s3,0,3,0c1.2,0,2.1,0,2.7.3.7.2,1.1.5,1.4.8.3.4.4.8.4,1.4s-.2,1.1-.6,1.5c-.4.4-1.1.8-2,1.1ZM100.5,20.4v1.3h2.7c.6,0,1,0,1.2-.2.2-.1.4-.3.4-.6s-.1-.4-.4-.4c-.2,0-.6-.1-1.2-.1h-2.7ZM103.2,25.4c.5,0,.9,0,1.1,0,.3,0,.4-.1.6-.2.1-.1.2-.3.2-.4s-.1-.4-.4-.5c-.3-.1-.7-.2-1.4-.2h-2.7v1.4h2.7ZM117.1,24.5h-4.6c0,.4.3.7.6,1,.3.3.7.4,1.3.4s.8,0,1.1-.2c.3-.2.6-.4.8-.7.6.3,1.4.6,2.5,1-.3.7-.8,1.2-1.6,1.6-.8.4-1.8.6-3,.6s-2.8-.4-3.5-1.1c-.8-.7-1.1-1.7-1.1-2.9s.4-2.1,1.1-2.8c.8-.7,1.9-1.1,3.5-1.1s1.8.2,2.5.5c.7.3,1.2.8,1.6,1.3.4.6.6,1.2.6,1.9s0,.4,0,.5h-1.7ZM114.4,22.3c-.5,0-.9,0-1.1.3-.3.2-.5.4-.6.7h3.3c-.1-.3-.3-.5-.5-.7-.3-.2-.6-.3-1-.3ZM128.8,25.7c0,.3,0,.5.1.7,0,.1.2.2.4.3v1.3c-.4,0-.6,0-.8,0-.2,0-.5,0-.9,0-.8,0-1.3-.2-1.6-.5-.3-.4-.4-.8-.4-1.4v-.4c-.3.8-.7,1.3-1.2,1.7-.5.4-1.2.6-2,.6s-1.6-.2-2.1-.6c-.5-.4-.7-.9-.7-1.7s.2-1.1.6-1.4c.4-.3,1-.6,1.9-.7-.7-.5-1.4-.9-2.1-1.3.6-.7,1.2-1.2,1.9-1.6.7-.4,1.6-.6,2.6-.6s2.5.3,3.2.9c.7.6,1,1.6,1,2.9v1.7ZM124.9,22.7c-.5,0-.9,0-1.3.2-.4.2-.7.4-1,.7.6,0,1.3,0,2.1,0s.6,0,.7-.1c.1,0,.2-.2.2-.3s0-.2-.2-.3c-.1,0-.3-.1-.6-.1ZM123.4,25.8c.5,0,1,0,1.4-.3.4-.2.7-.5.9-.8v-.4c-.2.1-.5.2-.7.3-.3,0-.6.1-1,.2h-.5c-.5.2-.8.4-.8.6s.2.4.7.4ZM135.7,28c0-1.4,0-2.6,0-3.8s-.1-.7-.3-1c-.2-.2-.4-.4-.8-.4s-.6.1-.8.4c-.2.3-.3.6-.4,1.1,0,.7,0,1.2,0,1.5,0,.6,0,1.3,0,2.1h-3.3c0-1.3.1-2.6.1-3.8s0-2.5-.1-3.8c.6,0,1.1,0,1.4,0s.8,0,1.4,0l.4,2.1c.2-.7.6-1.3,1-1.7.5-.4,1-.5,1.6-.5s1,.1,1.5.4c.4.2.7.6.9,1,.2.4.3.9.3,1.4v2c0,1.2,0,2.2,0,3h-3.1ZM147.3,28.1c-.8,0-1.6-.1-2.4-.3-.8-.2-1.6-.6-2.3-1l1.5-2c.4.3.9.6,1.6.7.6.2,1.1.3,1.6.3s.7,0,1-.2c.2-.1.4-.3.4-.5s0-.3-.2-.3c-.1,0-.3-.1-.5-.1s-.3,0-.4,0c-.2,0-.3,0-.4,0-.5,0-1,0-1.5,0-.8,0-1.5-.2-2-.5-.5-.3-.8-.8-.8-1.5s.4-1.5,1.2-1.9c.8-.5,1.9-.7,3.4-.7s1.5.1,2.2.3c.8.2,1.4.5,2,.9l-1.6,1.6c-.5-.3-1-.5-1.5-.6-.5-.1-.9-.2-1.4-.2s-.6,0-.8.2c-.2.1-.4.3-.4.4s0,.2.1.3c.1,0,.2.1.4.1s.4,0,.6,0c.7,0,1.2,0,1.5,0,1,0,1.7.2,2.2.5.5.3.8.8.8,1.5,0,1-.4,1.7-1.2,2.2-.8.4-1.9.7-3.2.7ZM154.6,19.5c-.6,0-1-.1-1.3-.4-.3-.3-.4-.7-.4-1.1s.1-.8.4-1.1c.3-.3.7-.4,1.3-.4s1,.2,1.3.5c.3.3.4.7.4,1.1s-.1.8-.4,1.1-.7.4-1.3.4ZM153,28c0-1.5.1-2.7.1-3.7s0-2.5-.1-3.9h3.4c0,1.4-.1,2.7-.1,3.9s0,2.3.1,3.7h-3.3ZM160.9,22.4c0,.6,0,1.4,0,2.6s0,2.4,0,3h-3.3v-1.6c0-1.7,0-3.1,0-4s0-2.2,0-3.8v-1.5s3.3,0,3.3,0c0,1.3,0,2.4,0,3.2s0,1.6,0,2.1ZM166.5,28.1c-1.6,0-2.8-.4-3.5-1.1-.8-.7-1.1-1.7-1.1-2.9s.4-2.1,1.1-2.8,1.9-1.1,3.5-1.1,2,.2,2.7.5c.7.3,1.3.8,1.6,1.4.3.6.5,1.3.5,2,0,1.2-.4,2.2-1.2,2.9s-2,1.1-3.6,1.1ZM166.6,25.8c.6,0,1.1-.1,1.4-.4.3-.3.4-.7.4-1.2s-.1-.8-.4-1.1c-.3-.3-.8-.4-1.4-.4s-1,.1-1.3.4-.4.7-.4,1.1.1.9.4,1.2c.3.3.7.4,1.3.4Z" style="fill: #f7f8f8; stroke-width: 0px;"/>
</svg>