<svg xmlns="http://www.w3.org/2000/svg" width="131" height="44" viewBox="0 0 131 44">
  <path d="M30.8,28.1c-2.1,0-3.7-.4-4.7-1.3-1-.9-1.5-2.2-1.5-3.8s.5-3,1.5-4c1-1,2.6-1.5,4.7-1.5s4.9,1,5.9,3c-.8.3-1.8.7-3,1.3-.3-.5-.7-.9-1.3-1.2-.6-.3-1.2-.4-1.8-.4-.9,0-1.6.2-2,.7-.4.5-.7,1-.7,1.7s.2,1.4.7,1.8c.5.5,1.2.7,2.2.7s1.4-.1,1.8-.4c.4-.3.8-.7,1-1.2.8.4,1.8.9,2.9,1.4-.5,1.1-1.2,1.9-2.3,2.4-1.1.4-2.3.7-3.6.7ZM43.2,28c0-1.4,0-2.6,0-3.8s-.1-.7-.3-1c-.2-.2-.4-.4-.8-.4s-.6.2-.8.5c-.2.3-.3.8-.3,1.3h0c0,1.5,0,2.6,0,3.4h-3.3c0-1.3.1-3.2.1-5.5s0-4.1-.1-5.5h3.3v4.3s0,.7,0,.7c.2-.7.6-1.1,1-1.4.4-.3.9-.5,1.5-.5s1.1.1,1.5.4c.4.2.7.6.9,1,.2.4.3.9.3,1.4v2c0,1.2,0,2.2,0,3h-3.1ZM56.5,25.7c0,.3,0,.5.1.7,0,.1.2.2.4.3v1.3c-.4,0-.6,0-.8,0-.2,0-.5,0-.9,0-.8,0-1.3-.2-1.6-.5-.3-.4-.4-.8-.4-1.4v-.3c-.3.8-.7,1.3-1.2,1.7s-1.2.6-2,.6-1.6-.2-2.1-.6-.7-.9-.7-1.7.2-1.1.6-1.4,1-.6,1.9-.7c-.7-.5-1.4-.9-2.1-1.3.6-.7,1.2-1.2,1.9-1.6.7-.4,1.6-.6,2.6-.6s2.5.3,3.2.9c.7.6,1.1,1.6,1.1,2.9v1.7ZM52.6,22.7c-.5,0-.9,0-1.3.2-.4.2-.7.4-1,.7.6,0,1.3,0,2.1,0s.6,0,.7-.1c.1,0,.2-.2.2-.3s0-.2-.2-.3c-.1,0-.3-.1-.6-.1ZM51.1,25.8c.5,0,1,0,1.4-.3.4-.2.7-.5.9-.8v-.4c-.2.1-.5.2-.8.3-.3,0-.6.1-1,.2h-.5c-.5.2-.8.4-.8.6s.2.4.7.4ZM59.8,19.5c-.6,0-1-.1-1.3-.4-.3-.3-.4-.7-.4-1.1s.1-.8.4-1.1c.3-.3.7-.4,1.3-.4s1,.2,1.3.5c.3.3.4.7.4,1.1s-.1.8-.4,1.1-.7.4-1.3.4ZM58.2,28c0-1.5,0-2.7,0-3.7s0-2.5-.1-3.9h3.4c0,1.4-.1,2.7-.1,3.9s0,2.3.1,3.7h-3.3ZM68.2,28c0-1.4,0-2.6,0-3.8s-.1-.7-.3-1c-.2-.2-.4-.4-.8-.4s-.6.1-.8.4c-.2.3-.3.6-.4,1.1,0,.7,0,1.2,0,1.5,0,.6,0,1.3,0,2.1h-3.4c0-1.3.1-2.6.1-3.8s0-2.5-.1-3.8c.6,0,1.1,0,1.4,0s.8,0,1.4,0l.4,2.1c.2-.7.6-1.3,1-1.7.5-.4,1-.5,1.6-.5s1,.1,1.5.4c.4.2.7.6.9,1,.2.4.3.9.3,1.4v2c0,1.2,0,2.2,0,3h-3.1ZM78.4,24.6h-6v-2.7h6v2.7ZM88.6,20.4c-1,2.7-1.9,5.3-2.7,7.6h-4.4c-.8-2.5-1.7-5.1-2.7-7.6h3.3l1.6,5.8,1.6-5.8h3.2ZM95.9,24.5h-4.6c0,.4.3.7.6,1,.3.3.7.4,1.3.4s.8,0,1.1-.2c.4-.2.6-.4.8-.7.6.3,1.4.6,2.5,1-.3.7-.8,1.2-1.6,1.6-.8.4-1.8.6-3,.6s-2.8-.4-3.5-1.1c-.8-.7-1.1-1.7-1.1-2.9s.4-2.1,1.1-2.8c.8-.7,1.9-1.1,3.5-1.1s1.8.2,2.5.5,1.2.8,1.6,1.3c.4.6.6,1.2.6,1.9s0,.4,0,.5h-1.7ZM93.2,22.3c-.5,0-.8,0-1.1.3s-.5.4-.6.7h3.3c-.1-.3-.3-.5-.5-.7-.3-.2-.6-.3-1-.3ZM107,20.4l-.3.8c-.9,2.4-1.8,4.6-2.8,6.8-.5,1.1-1.2,2-2.2,2.7-.9.7-2.1,1-3.6,1-.2-.8-.3-1.4-.4-1.8-.1-.4-.3-.9-.4-1.3.5.1,1,.2,1.4.2.7,0,1.3-.2,1.7-.5-.3-1-.7-2.1-1.2-3.2-.5-1.1-1.1-2.7-2-4.7h3.3c.1.5.3,1,.5,1.6.2.6.4,1.2.6,1.8,0,.2.1.4.3.8.1.4.2.7.3.9l.4-1.1c.7-2,1.1-3.4,1.2-4h3.2Z" style="fill: #f7f8f8; stroke-width: 0px;"/>
</svg>