<svg width="190" height="44" viewBox="0 0 190 44" fill="none" xmlns="http://www.w3.org/2000/svg">
<g filter="url(#filter0_b_5847_32390)">
<path d="M31.3623 17.85C33.2196 17.85 34.5123 18.1813 35.2403 18.844C35.9683 19.4973 36.3323 20.4213 36.3323 21.616C36.3323 22.4373 36.1876 23.1373 35.8983 23.716C35.609 24.2853 35.1003 24.7333 34.3723 25.06C33.6443 25.3773 32.641 25.536 31.3623 25.536H28.4503V28H25.0063C25.081 26.1893 25.1183 24.4953 25.1183 22.918C25.1183 21.3407 25.081 19.6467 25.0063 17.836H28.4503V17.85H31.3623ZM30.3823 22.834C31.157 22.834 31.7356 22.806 32.1183 22.75C32.5103 22.6847 32.781 22.5727 32.9303 22.414C33.089 22.2553 33.1683 22.022 33.1683 21.714C33.1683 21.406 33.0936 21.1773 32.9443 21.028C32.8043 20.8693 32.5383 20.762 32.1463 20.706C31.7636 20.65 31.1756 20.622 30.3823 20.622H28.4503V22.834H30.3823ZM46.4217 25.676C46.4217 25.9933 46.459 26.2173 46.5337 26.348C46.6084 26.4787 46.7577 26.572 46.9817 26.628L46.9257 27.944C46.627 27.9907 46.3657 28.0233 46.1417 28.042C45.927 28.0607 45.6377 28.07 45.2737 28.07C44.471 28.07 43.939 27.8927 43.6777 27.538C43.4164 27.174 43.2857 26.712 43.2857 26.152V25.802C43.015 26.5673 42.6184 27.1367 42.0957 27.51C41.5824 27.8833 40.9244 28.07 40.1217 28.07C39.1884 28.07 38.4837 27.8833 38.0077 27.51C37.541 27.1367 37.3077 26.5813 37.3077 25.844C37.3077 25.2373 37.5084 24.7613 37.9097 24.416C38.311 24.0707 38.9317 23.8327 39.7717 23.702C39.0624 23.198 38.353 22.7593 37.6437 22.386C38.2037 21.6767 38.843 21.14 39.5617 20.776C40.2804 20.4027 41.153 20.216 42.1797 20.216C43.617 20.216 44.681 20.5287 45.3717 21.154C46.0717 21.77 46.4217 22.722 46.4217 24.01V25.676ZM42.4737 22.68C41.9977 22.68 41.5777 22.7593 41.2137 22.918C40.8497 23.0767 40.523 23.3147 40.2337 23.632C40.7937 23.5667 41.4937 23.534 42.3337 23.534C42.679 23.534 42.9217 23.492 43.0617 23.408C43.2017 23.324 43.2717 23.2167 43.2717 23.086C43.2717 22.974 43.2017 22.8807 43.0617 22.806C42.9217 22.722 42.7257 22.68 42.4737 22.68ZM41.0037 25.788C41.5264 25.788 41.9977 25.69 42.4177 25.494C42.8377 25.2887 43.127 25.0227 43.2857 24.696V24.332C43.0617 24.444 42.8144 24.5327 42.5437 24.598C42.273 24.654 41.9464 24.71 41.5637 24.766L41.0597 24.85C40.537 24.9527 40.2757 25.13 40.2757 25.382C40.2757 25.6527 40.5184 25.788 41.0037 25.788ZM50.6666 24.178C50.6853 24.654 50.8346 25.0367 51.1146 25.326C51.404 25.6153 51.8286 25.76 52.3886 25.76C52.6966 25.76 52.972 25.704 53.2146 25.592C53.4573 25.4707 53.6813 25.2933 53.8866 25.06C54.68 25.368 55.6086 25.634 56.6726 25.858C56.3646 26.5767 55.842 27.1367 55.1046 27.538C54.3766 27.9393 53.4293 28.14 52.2626 28.14C50.704 28.14 49.5513 27.776 48.8046 27.048C48.058 26.32 47.6846 25.3633 47.6846 24.178C47.6846 22.9927 48.058 22.036 48.8046 21.308C49.5513 20.58 50.704 20.216 52.2626 20.216C53.4293 20.216 54.3766 20.4167 55.1046 20.818C55.842 21.2193 56.3646 21.7793 56.6726 22.498C55.842 22.6753 54.9133 22.9413 53.8866 23.296C53.6813 23.0627 53.4573 22.89 53.2146 22.778C52.972 22.6567 52.6966 22.596 52.3886 22.596C51.8286 22.596 51.404 22.7407 51.1146 23.03C50.8346 23.3193 50.6853 23.702 50.6666 24.178ZM67.6071 20.342L64.1351 23.506C65.3204 25.186 66.4264 26.684 67.4531 28H63.7431L63.0291 26.852C62.5624 26.0773 62.2544 25.5733 62.1051 25.34L60.9431 26.404V28H57.7231C57.7978 26.2267 57.8351 24.43 57.8351 22.61C57.8351 20.7807 57.7978 18.9467 57.7231 17.108H60.9431V23.044C61.8484 22.12 62.7024 21.2193 63.5051 20.342H67.6071ZM70.0444 19.53C69.4564 19.53 69.0177 19.3853 68.7284 19.096C68.4484 18.8067 68.3084 18.4287 68.3084 17.962C68.3084 17.5047 68.4484 17.1267 68.7284 16.828C69.0177 16.5293 69.4564 16.38 70.0444 16.38C70.6044 16.38 71.0337 16.534 71.3324 16.842C71.6311 17.1407 71.7804 17.514 71.7804 17.962C71.7804 18.4287 71.6357 18.8067 71.3464 19.096C71.0571 19.3853 70.6231 19.53 70.0444 19.53ZM68.4204 28C68.4857 26.4973 68.5184 25.256 68.5184 24.276C68.5184 23.1093 68.4811 21.8027 68.4064 20.356H71.7664C71.6917 21.7467 71.6544 23.0533 71.6544 24.276C71.6544 25.3027 71.6871 26.544 71.7524 28H68.4204ZM78.4956 28C78.5516 26.628 78.5796 25.3633 78.5796 24.206C78.5796 23.7953 78.4769 23.4687 78.2716 23.226C78.0756 22.9833 77.8236 22.862 77.5156 22.862C77.2076 22.862 76.9463 23.002 76.7316 23.282C76.5169 23.5527 76.3909 23.926 76.3536 24.402C76.3349 25.1113 76.3256 25.6153 76.3256 25.914C76.3256 26.5487 76.3443 27.244 76.3816 28H73.0356C73.1103 26.656 73.1476 25.3867 73.1476 24.192C73.1476 22.9973 73.1103 21.7187 73.0356 20.356C73.6516 20.384 74.1229 20.398 74.4496 20.398C74.7949 20.398 75.2663 20.384 75.8636 20.356L76.2696 22.414C76.4843 21.6673 76.8203 21.1167 77.2776 20.762C77.7349 20.398 78.2669 20.216 78.8736 20.216C79.4336 20.216 79.9189 20.342 80.3296 20.594C80.7403 20.8367 81.0483 21.168 81.2536 21.588C81.4683 22.008 81.5756 22.4793 81.5756 23.002V25.018C81.5756 26.2593 81.5989 27.2533 81.6456 28H78.4956ZM89.378 20.356H92.066C92.0193 21.8867 91.996 24.0613 91.996 26.88C91.996 27.9907 91.772 28.9007 91.324 29.61C90.8853 30.3193 90.302 30.8327 89.574 31.15C88.846 31.4767 88.034 31.64 87.138 31.64C86.2513 31.64 85.458 31.5093 84.758 31.248C84.058 30.996 83.526 30.6553 83.162 30.226L83.792 28.084C84.296 28.3733 84.772 28.5787 85.22 28.7C85.668 28.8307 86.1346 28.896 86.62 28.896C88.2066 28.896 89 28.224 89 26.88C89 26.684 89.0046 26.544 89.014 26.46C89.014 26.404 89.014 26.3293 89.014 26.236C89.0233 26.1427 89.0233 26.0213 89.014 25.872C88.538 27.1973 87.53 27.86 85.99 27.86C85.3646 27.86 84.8046 27.692 84.31 27.356C83.8246 27.02 83.4466 26.5673 83.176 25.998C82.9053 25.4193 82.77 24.7847 82.77 24.094C82.77 23.3847 82.9053 22.736 83.176 22.148C83.4466 21.5507 83.8246 21.0793 84.31 20.734C84.7953 20.3887 85.3413 20.216 85.948 20.216C87.5253 20.216 88.552 20.7713 89.028 21.882L89.378 20.356ZM87.446 25.62C87.6606 25.62 87.8846 25.5733 88.118 25.48C88.3513 25.3773 88.552 25.2187 88.72 25.004C88.888 24.78 88.972 24.5047 88.972 24.178C88.972 23.5993 88.8413 23.1887 88.58 22.946C88.3186 22.694 87.9313 22.568 87.418 22.568C86.97 22.568 86.6153 22.7173 86.354 23.016C86.0926 23.3147 85.962 23.702 85.962 24.178C85.962 24.6073 86.102 24.9573 86.382 25.228C86.6713 25.4893 87.026 25.62 87.446 25.62ZM106.841 28C106.915 26.7773 106.953 25.5127 106.953 24.206C106.953 23.786 106.845 23.4593 106.631 23.226C106.425 22.9833 106.15 22.862 105.805 22.862C105.487 22.862 105.212 23.002 104.979 23.282C104.755 23.562 104.643 23.968 104.643 24.5V24.486C104.643 26.138 104.666 27.3093 104.713 28H101.563C101.619 26.628 101.647 25.3633 101.647 24.206C101.647 23.7953 101.544 23.4687 101.339 23.226C101.143 22.9833 100.891 22.862 100.583 22.862C100.256 22.862 99.9807 23.002 99.7567 23.282C99.542 23.5527 99.416 23.926 99.3787 24.402C99.36 25.1113 99.3507 25.6153 99.3507 25.914C99.3507 26.5487 99.3693 27.244 99.4067 28H96.0607C96.1353 26.656 96.1727 25.3867 96.1727 24.192C96.1727 22.9973 96.1353 21.7187 96.0607 20.356C96.6767 20.384 97.148 20.398 97.4747 20.398C97.82 20.398 98.2913 20.384 98.8887 20.356L99.3087 22.428C99.5233 21.672 99.864 21.1167 100.331 20.762C100.797 20.398 101.334 20.216 101.941 20.216C102.669 20.216 103.261 20.4167 103.719 20.818C104.185 21.2193 104.475 21.742 104.587 22.386C104.801 21.7233 105.161 21.196 105.665 20.804C106.169 20.412 106.743 20.216 107.387 20.216C108.227 20.216 108.885 20.5007 109.361 21.07C109.837 21.63 110.075 22.4 110.075 23.38V25.704C110.075 26.7587 110.084 27.524 110.103 28H106.841ZM120.332 25.676C120.332 25.9933 120.369 26.2173 120.444 26.348C120.519 26.4787 120.668 26.572 120.892 26.628L120.836 27.944C120.537 27.9907 120.276 28.0233 120.052 28.042C119.837 28.0607 119.548 28.07 119.184 28.07C118.381 28.07 117.849 27.8927 117.588 27.538C117.327 27.174 117.196 26.712 117.196 26.152V25.802C116.925 26.5673 116.529 27.1367 116.006 27.51C115.493 27.8833 114.835 28.07 114.032 28.07C113.099 28.07 112.394 27.8833 111.918 27.51C111.451 27.1367 111.218 26.5813 111.218 25.844C111.218 25.2373 111.419 24.7613 111.82 24.416C112.221 24.0707 112.842 23.8327 113.682 23.702C112.973 23.198 112.263 22.7593 111.554 22.386C112.114 21.6767 112.753 21.14 113.472 20.776C114.191 20.4027 115.063 20.216 116.09 20.216C117.527 20.216 118.591 20.5287 119.282 21.154C119.982 21.77 120.332 22.722 120.332 24.01V25.676ZM116.384 22.68C115.908 22.68 115.488 22.7593 115.124 22.918C114.76 23.0767 114.433 23.3147 114.144 23.632C114.704 23.5667 115.404 23.534 116.244 23.534C116.589 23.534 116.832 23.492 116.972 23.408C117.112 23.324 117.182 23.2167 117.182 23.086C117.182 22.974 117.112 22.8807 116.972 22.806C116.832 22.722 116.636 22.68 116.384 22.68ZM114.914 25.788C115.437 25.788 115.908 25.69 116.328 25.494C116.748 25.2887 117.037 25.0227 117.196 24.696V24.332C116.972 24.444 116.725 24.5327 116.454 24.598C116.183 24.654 115.857 24.71 115.474 24.766L114.97 24.85C114.447 24.9527 114.186 25.13 114.186 25.382C114.186 25.6527 114.429 25.788 114.914 25.788ZM124.577 24.178C124.595 24.654 124.745 25.0367 125.025 25.326C125.314 25.6153 125.739 25.76 126.299 25.76C126.607 25.76 126.882 25.704 127.125 25.592C127.367 25.4707 127.591 25.2933 127.797 25.06C128.59 25.368 129.519 25.634 130.583 25.858C130.275 26.5767 129.752 27.1367 129.015 27.538C128.287 27.9393 127.339 28.14 126.173 28.14C124.614 28.14 123.461 27.776 122.715 27.048C121.968 26.32 121.595 25.3633 121.595 24.178C121.595 22.9927 121.968 22.036 122.715 21.308C123.461 20.58 124.614 20.216 126.173 20.216C127.339 20.216 128.287 20.4167 129.015 20.818C129.752 21.2193 130.275 21.7793 130.583 22.498C129.752 22.6753 128.823 22.9413 127.797 23.296C127.591 23.0627 127.367 22.89 127.125 22.778C126.882 22.6567 126.607 22.596 126.299 22.596C125.739 22.596 125.314 22.7407 125.025 23.03C124.745 23.3193 124.595 23.702 124.577 24.178ZM137.093 28C137.149 26.628 137.177 25.3633 137.177 24.206C137.177 23.7953 137.075 23.4687 136.869 23.226C136.673 22.9833 136.421 22.862 136.113 22.862C135.787 22.862 135.507 23.0207 135.273 23.338C135.049 23.6553 134.937 24.0893 134.937 24.64L134.923 24.612C134.923 26.1333 134.942 27.2627 134.979 28H131.633C131.708 26.656 131.745 24.836 131.745 22.54C131.745 20.244 131.708 18.424 131.633 17.08H134.965L134.979 21.392L134.965 22.134C135.189 21.4807 135.521 21 135.959 20.692C136.407 20.3747 136.911 20.216 137.471 20.216C138.031 20.216 138.517 20.342 138.927 20.594C139.338 20.8367 139.646 21.168 139.851 21.588C140.066 22.008 140.173 22.4793 140.173 23.002V25.018C140.173 26.2593 140.197 27.2533 140.243 28H137.093ZM143.244 19.53C142.656 19.53 142.217 19.3853 141.928 19.096C141.648 18.8067 141.508 18.4287 141.508 17.962C141.508 17.5047 141.648 17.1267 141.928 16.828C142.217 16.5293 142.656 16.38 143.244 16.38C143.804 16.38 144.233 16.534 144.532 16.842C144.83 17.1407 144.98 17.514 144.98 17.962C144.98 18.4287 144.835 18.8067 144.546 19.096C144.256 19.3853 143.822 19.53 143.244 19.53ZM141.62 28C141.685 26.4973 141.718 25.256 141.718 24.276C141.718 23.1093 141.68 21.8027 141.606 20.356H144.966C144.891 21.7467 144.854 23.0533 144.854 24.276C144.854 25.3027 144.886 26.544 144.952 28H141.62ZM151.695 28C151.751 26.628 151.779 25.3633 151.779 24.206C151.779 23.7953 151.676 23.4687 151.471 23.226C151.275 22.9833 151.023 22.862 150.715 22.862C150.407 22.862 150.145 23.002 149.931 23.282C149.716 23.5527 149.59 23.926 149.553 24.402C149.534 25.1113 149.525 25.6153 149.525 25.914C149.525 26.5487 149.543 27.244 149.581 28H146.235C146.309 26.656 146.347 25.3867 146.347 24.192C146.347 22.9973 146.309 21.7187 146.235 20.356C146.851 20.384 147.322 20.398 147.649 20.398C147.994 20.398 148.465 20.384 149.063 20.356L149.469 22.414C149.683 21.6673 150.019 21.1167 150.477 20.762C150.934 20.398 151.466 20.216 152.073 20.216C152.633 20.216 153.118 20.342 153.529 20.594C153.939 20.8367 154.247 21.168 154.453 21.588C154.667 22.008 154.775 22.4793 154.775 23.002V25.018C154.775 26.2593 154.798 27.2533 154.845 28H151.695ZM163.375 24.5H158.811C158.886 24.9107 159.068 25.2467 159.357 25.508C159.656 25.76 160.076 25.886 160.617 25.886C161.009 25.886 161.378 25.8113 161.723 25.662C162.069 25.5033 162.344 25.284 162.549 25.004C163.175 25.312 164.005 25.6433 165.041 25.998C164.752 26.6513 164.225 27.174 163.459 27.566C162.703 27.9487 161.714 28.14 160.491 28.14C158.905 28.14 157.729 27.776 156.963 27.048C156.207 26.3107 155.829 25.3447 155.829 24.15C155.829 22.9833 156.207 22.036 156.963 21.308C157.719 20.58 158.895 20.216 160.491 20.216C161.443 20.216 162.269 20.3747 162.969 20.692C163.669 21.0093 164.206 21.4527 164.579 22.022C164.953 22.582 165.139 23.226 165.139 23.954C165.139 24.1967 165.13 24.3787 165.111 24.5H163.375ZM160.687 22.33C160.221 22.33 159.838 22.4187 159.539 22.596C159.241 22.7733 159.031 23.016 158.909 23.324H162.213C162.101 23.0253 161.919 22.7873 161.667 22.61C161.415 22.4233 161.089 22.33 160.687 22.33Z" fill="#F8F8F8"/>
</g>
<defs>
<filter id="filter0_b_5847_32390" x="-9.57055" y="-9.57055" width="209.141" height="63.1411" filterUnits="userSpaceOnUse" color-interpolation-filters="sRGB">
<feFlood flood-opacity="0" result="BackgroundImageFix"/>
<feGaussianBlur in="BackgroundImageFix" stdDeviation="4.78528"/>
<feComposite in2="SourceAlpha" operator="in" result="effect1_backgroundBlur_5847_32390"/>
<feBlend mode="normal" in="SourceGraphic" in2="effect1_backgroundBlur_5847_32390" result="shape"/>
</filter>
</defs>
</svg>
