<svg xmlns="http://www.w3.org/2000/svg" width="135" height="44" viewBox="0 0 135 44">
  <path d="M34.2,15.1h1.8v4.1h2v1.5h-2v4.3h-1.8v-9.9ZM25.5,22.8v-6.9h1.7v2.1h3v-2.1h1.7v6.9h-6.5ZM27.2,29v-4.6h1.8v3.2h7.4v1.4h-9.1ZM27.2,21.4h3v-2h-3v2ZM47.9,15.1h1.8v5.6h2.2v1.5h-2.2v6.8h-1.8v-13.8ZM38.3,24.3l2.6-3.6c.6-.9.7-1.3.7-2v-1h-2.8v-1.4h7.3v1.4h-2.8v1c0,.7,0,1.1.7,2l2.6,3.6-1.3,1-2.6-3.6-.3-.4c0,.1-.2.3-.3.4l-2.6,3.6-1.3-1ZM52.3,21.5h5.6v-1.3h-3.7v-4.6h9.1v1.4h-7.4v1.8h7.5v1.4h-3.7v1.3h5.6v1.4h-12.9v-1.4ZM55,26.7c0-1.8,1.6-3.1,3.8-3.1s3.8,1.3,3.8,3.1-1.6,3.1-3.8,3.1-3.8-1.3-3.8-3.1ZM56.7,26.7c0,1,.8,1.6,2,1.6s2.1-.7,2.1-1.6-.8-1.6-2.1-1.6-2,.7-2,1.6ZM72.7,29.1v-5.6h1.7v1.3h5.7v-1.3h1.7v5.6h-9.2ZM70.5,22.6v-4.3h3.5v-1.2h-3.5v-1.4h5.2v4h-3.5v1.5h3.8v1.4h-5.6ZM74.4,27.7h5.7v-1.4h-5.7v1.4ZM77.1,22.8v-7.6h1.6v3h1.4v-3.2h1.7v7.9h-1.7v-3.2h-1.4v3.2h-1.6ZM93.5,15.1h1.8v8.3h-1.8v-8.3ZM84.2,22.6v-1.4h1.2v-3.9h-1.2v-1.4h7.6v1.4h-1.2v3.9h1.2v1.4h-7.6ZM87.2,21.1h1.7v-3.9h-1.7v3.9ZM87.4,26.5c0-1.8,1.5-3.1,3.6-3.1s3.6,1.3,3.6,3.1-1.5,3.1-3.6,3.1-3.6-1.3-3.6-3.1ZM89.1,26.5c0,1,.8,1.6,1.9,1.6s1.9-.7,1.9-1.6-.8-1.6-1.9-1.6-1.9.7-1.9,1.6ZM107.3,15h1.8v13.8h-1.8v-13.8ZM98,23.6c2.8-.7,5.3-2.4,5.3-5.9h-4.9v-1.4h6.6v1.4h0c0,4.5-3.4,6.8-6.6,7.6l-.4-1.6Z" style="fill: #f7f8f8; stroke-width: 0px;"/>
</svg>