<svg width="335" height="44" viewBox="0 0 335 44" fill="none" xmlns="http://www.w3.org/2000/svg">
<g filter="url(#filter0_b_5847_32379)">
<path d="M24.7036 26.796C25.0209 26.32 25.2822 25.8767 25.4876 25.466C25.7022 25.0553 25.9076 24.5793 26.1036 24.038C26.7662 24.4207 27.5362 24.7193 28.4136 24.934C29.2909 25.1487 30.1076 25.256 30.8636 25.256C31.6382 25.256 32.1842 25.1907 32.5016 25.06C32.8189 24.92 32.9776 24.7707 32.9776 24.612C32.9776 24.0427 32.1096 23.758 30.3736 23.758C28.4696 23.758 27.0882 23.562 26.2296 23.17C25.3709 22.7687 24.9416 22.1247 24.9416 21.238C24.9416 19.978 25.4642 19.0493 26.5096 18.452C27.5549 17.8547 28.9129 17.556 30.5836 17.556C31.5542 17.556 32.5482 17.682 33.5656 17.934C34.5922 18.1767 35.5162 18.5127 36.3376 18.942C36.0669 19.558 35.7822 20.3093 35.4836 21.196C35.4276 21.3827 35.3809 21.5227 35.3436 21.616C34.8676 21.2333 34.1489 20.916 33.1876 20.664C32.2262 20.4027 31.3769 20.272 30.6396 20.272C29.7529 20.272 29.1556 20.3327 28.8476 20.454C28.5396 20.566 28.3856 20.734 28.3856 20.958C28.3856 21.182 28.5956 21.364 29.0156 21.504C29.4449 21.6347 30.0609 21.7 30.8636 21.7C32.8422 21.7 34.2796 21.9287 35.1756 22.386C36.0716 22.834 36.5196 23.5247 36.5196 24.458C36.5196 25.7647 36.0436 26.7073 35.0916 27.286C34.1396 27.8553 32.6976 28.14 30.7656 28.14C29.7296 28.14 28.6749 28.028 27.6016 27.804C26.5282 27.5707 25.5622 27.2347 24.7036 26.796ZM45.0431 24.5H40.4791C40.5538 24.9107 40.7358 25.2467 41.0251 25.508C41.3238 25.76 41.7438 25.886 42.2851 25.886C42.6771 25.886 43.0458 25.8113 43.3911 25.662C43.7365 25.5033 44.0118 25.284 44.2171 25.004C44.8425 25.312 45.6731 25.6433 46.7091 25.998C46.4198 26.6513 45.8925 27.174 45.1271 27.566C44.3711 27.9487 43.3818 28.14 42.1591 28.14C40.5725 28.14 39.3965 27.776 38.6311 27.048C37.8751 26.3107 37.4971 25.3447 37.4971 24.15C37.4971 22.9833 37.8751 22.036 38.6311 21.308C39.3871 20.58 40.5631 20.216 42.1591 20.216C43.1111 20.216 43.9371 20.3747 44.6371 20.692C45.3371 21.0093 45.8738 21.4527 46.2471 22.022C46.6205 22.582 46.8071 23.226 46.8071 23.954C46.8071 24.1967 46.7978 24.3787 46.7791 24.5H45.0431ZM42.3551 22.33C41.8885 22.33 41.5058 22.4187 41.2071 22.596C40.9085 22.7733 40.6985 23.016 40.5771 23.324H43.8811C43.7691 23.0253 43.5871 22.7873 43.3351 22.61C43.0831 22.4233 42.7565 22.33 42.3551 22.33ZM58.6317 28C58.7063 26.7773 58.7437 25.5127 58.7437 24.206C58.7437 23.786 58.6363 23.4593 58.4217 23.226C58.2163 22.9833 57.941 22.862 57.5957 22.862C57.2783 22.862 57.003 23.002 56.7697 23.282C56.5457 23.562 56.4337 23.968 56.4337 24.5V24.486C56.4337 26.138 56.457 27.3093 56.5037 28H53.3537C53.4097 26.628 53.4377 25.3633 53.4377 24.206C53.4377 23.7953 53.335 23.4687 53.1297 23.226C52.9337 22.9833 52.6817 22.862 52.3737 22.862C52.047 22.862 51.7717 23.002 51.5477 23.282C51.333 23.5527 51.207 23.926 51.1697 24.402C51.151 25.1113 51.1417 25.6153 51.1417 25.914C51.1417 26.5487 51.1603 27.244 51.1977 28H47.8517C47.9263 26.656 47.9637 25.3867 47.9637 24.192C47.9637 22.9973 47.9263 21.7187 47.8517 20.356C48.4677 20.384 48.939 20.398 49.2657 20.398C49.611 20.398 50.0823 20.384 50.6797 20.356L51.0997 22.428C51.3143 21.672 51.655 21.1167 52.1217 20.762C52.5883 20.398 53.125 20.216 53.7317 20.216C54.4597 20.216 55.0523 20.4167 55.5097 20.818C55.9763 21.2193 56.2657 21.742 56.3777 22.386C56.5923 21.7233 56.9517 21.196 57.4557 20.804C57.9597 20.412 58.5337 20.216 59.1777 20.216C60.0177 20.216 60.6757 20.5007 61.1517 21.07C61.6277 21.63 61.8657 22.4 61.8657 23.38V25.704C61.8657 26.7587 61.875 27.524 61.8937 28H58.6317ZM65.0249 19.53C64.4369 19.53 63.9982 19.3853 63.7089 19.096C63.4289 18.8067 63.2889 18.4287 63.2889 17.962C63.2889 17.5047 63.4289 17.1267 63.7089 16.828C63.9982 16.5293 64.4369 16.38 65.0249 16.38C65.5849 16.38 66.0142 16.534 66.3129 16.842C66.6115 17.1407 66.7609 17.514 66.7609 17.962C66.7609 18.4287 66.6162 18.8067 66.3269 19.096C66.0375 19.3853 65.6035 19.53 65.0249 19.53ZM63.4009 28C63.4662 26.4973 63.4989 25.256 63.4989 24.276C63.4989 23.1093 63.4615 21.8027 63.3869 20.356H66.7469C66.6722 21.7467 66.6349 23.0533 66.6349 24.276C66.6349 25.3027 66.6675 26.544 66.7329 28H63.4009ZM73.8961 24.598H67.8761V21.868H73.8961V24.598ZM83.8533 25.676C83.8533 25.9933 83.8907 26.2173 83.9653 26.348C84.04 26.4787 84.1893 26.572 84.4133 26.628L84.3573 27.944C84.0587 27.9907 83.7973 28.0233 83.5733 28.042C83.3587 28.0607 83.0693 28.07 82.7053 28.07C81.9027 28.07 81.3707 27.8927 81.1093 27.538C80.848 27.174 80.7173 26.712 80.7173 26.152V25.802C80.4467 26.5673 80.05 27.1367 79.5273 27.51C79.014 27.8833 78.356 28.07 77.5533 28.07C76.62 28.07 75.9153 27.8833 75.4393 27.51C74.9727 27.1367 74.7393 26.5813 74.7393 25.844C74.7393 25.2373 74.94 24.7613 75.3413 24.416C75.7427 24.0707 76.3633 23.8327 77.2033 23.702C76.494 23.198 75.7847 22.7593 75.0753 22.386C75.6353 21.6767 76.2747 21.14 76.9933 20.776C77.712 20.4027 78.5847 20.216 79.6113 20.216C81.0487 20.216 82.1127 20.5287 82.8033 21.154C83.5033 21.77 83.8533 22.722 83.8533 24.01V25.676ZM79.9053 22.68C79.4293 22.68 79.0093 22.7593 78.6453 22.918C78.2813 23.0767 77.9547 23.3147 77.6653 23.632C78.2253 23.5667 78.9253 23.534 79.7653 23.534C80.1107 23.534 80.3533 23.492 80.4933 23.408C80.6333 23.324 80.7033 23.2167 80.7033 23.086C80.7033 22.974 80.6333 22.8807 80.4933 22.806C80.3533 22.722 80.1573 22.68 79.9053 22.68ZM78.4353 25.788C78.958 25.788 79.4293 25.69 79.8493 25.494C80.2693 25.2887 80.5587 25.0227 80.7173 24.696V24.332C80.4933 24.444 80.246 24.5327 79.9753 24.598C79.7047 24.654 79.378 24.71 78.9953 24.766L78.4913 24.85C77.9687 24.9527 77.7073 25.13 77.7073 25.382C77.7073 25.6527 77.95 25.788 78.4353 25.788ZM93.8663 20.356C93.801 21.532 93.7683 22.8013 93.7683 24.164C93.7683 25.536 93.801 26.8147 93.8663 28C93.269 27.972 92.7976 27.958 92.4523 27.958C92.1256 27.958 91.6543 27.972 91.0383 28L90.6323 25.942C90.4176 26.6887 90.0816 27.244 89.6243 27.608C89.167 27.9627 88.635 28.14 88.0283 28.14C87.4683 28.14 86.983 28.0187 86.5723 27.776C86.1616 27.524 85.849 27.188 85.6343 26.768C85.429 26.348 85.3263 25.8767 85.3263 25.354V23.338C85.3263 22.0967 85.303 21.1027 85.2563 20.356H88.4063C88.3503 21.728 88.3223 23.086 88.3223 24.43C88.3223 24.8407 88.4203 25.1673 88.6163 25.41C88.8216 25.6527 89.0783 25.774 89.3863 25.774C89.6756 25.774 89.9276 25.648 90.1423 25.396C90.3663 25.1347 90.5016 24.78 90.5483 24.332V24.01C90.567 23.282 90.5763 22.778 90.5763 22.498C90.5763 21.854 90.5576 21.14 90.5203 20.356H93.8663ZM101.333 22.862C100.474 22.806 99.69 22.764 98.9807 22.736L98.9667 24.22C98.9667 24.724 99.074 25.1207 99.2887 25.41C99.5127 25.69 99.9047 25.83 100.465 25.83C100.679 25.83 100.885 25.8113 101.081 25.774C101.043 26.1193 101.025 26.4693 101.025 26.824C101.025 26.992 101.034 27.3747 101.053 27.972C100.642 28.0467 100.297 28.0933 100.017 28.112C99.7367 28.1307 99.3727 28.14 98.9247 28.14C97.8327 28.14 97.058 27.8787 96.6007 27.356C96.1527 26.824 95.9287 26.0867 95.9287 25.144L95.9427 22.778C95.504 22.7967 95.0467 22.8247 94.5707 22.862V20.384C95.056 20.384 95.4667 20.23 95.8027 19.922C96.1387 19.614 96.3393 19.2453 96.4047 18.816H100.213C99.7367 19.4693 99.2093 19.992 98.6307 20.384H101.333V22.862ZM106.676 28.14C105.08 28.14 103.904 27.776 103.148 27.048C102.402 26.3107 102.028 25.3447 102.028 24.15C102.028 22.9833 102.402 22.036 103.148 21.308C103.904 20.58 105.08 20.216 106.676 20.216C107.75 20.216 108.646 20.3933 109.364 20.748C110.092 21.0933 110.629 21.5647 110.974 22.162C111.32 22.75 111.492 23.4127 111.492 24.15C111.492 25.354 111.091 26.32 110.288 27.048C109.495 27.776 108.291 28.14 106.676 28.14ZM106.732 25.76C107.339 25.76 107.792 25.6153 108.09 25.326C108.389 25.0367 108.538 24.6493 108.538 24.164C108.538 23.7067 108.389 23.3333 108.09 23.044C107.792 22.7453 107.339 22.596 106.732 22.596C106.126 22.596 105.682 22.7407 105.402 23.03C105.122 23.3193 104.982 23.6973 104.982 24.164C104.982 24.6493 105.122 25.0367 105.402 25.326C105.682 25.6153 106.126 25.76 106.732 25.76ZM123.327 28C123.402 26.7773 123.439 25.5127 123.439 24.206C123.439 23.786 123.332 23.4593 123.117 23.226C122.912 22.9833 122.636 22.862 122.291 22.862C121.974 22.862 121.698 23.002 121.465 23.282C121.241 23.562 121.129 23.968 121.129 24.5V24.486C121.129 26.138 121.152 27.3093 121.199 28H118.049C118.105 26.628 118.133 25.3633 118.133 24.206C118.133 23.7953 118.03 23.4687 117.825 23.226C117.629 22.9833 117.377 22.862 117.069 22.862C116.742 22.862 116.467 23.002 116.243 23.282C116.028 23.5527 115.902 23.926 115.865 24.402C115.846 25.1113 115.837 25.6153 115.837 25.914C115.837 26.5487 115.856 27.244 115.893 28H112.547C112.622 26.656 112.659 25.3867 112.659 24.192C112.659 22.9973 112.622 21.7187 112.547 20.356C113.163 20.384 113.634 20.398 113.961 20.398C114.306 20.398 114.778 20.384 115.375 20.356L115.795 22.428C116.01 21.672 116.35 21.1167 116.817 20.762C117.284 20.398 117.82 20.216 118.427 20.216C119.155 20.216 119.748 20.4167 120.205 20.818C120.672 21.2193 120.961 21.742 121.073 22.386C121.288 21.7233 121.647 21.196 122.151 20.804C122.655 20.412 123.229 20.216 123.873 20.216C124.713 20.216 125.371 20.5007 125.847 21.07C126.323 21.63 126.561 22.4 126.561 23.38V25.704C126.561 26.7587 126.57 27.524 126.589 28H123.327ZM136.818 25.676C136.818 25.9933 136.856 26.2173 136.93 26.348C137.005 26.4787 137.154 26.572 137.378 26.628L137.322 27.944C137.024 27.9907 136.762 28.0233 136.538 28.042C136.324 28.0607 136.034 28.07 135.67 28.07C134.868 28.07 134.336 27.8927 134.074 27.538C133.813 27.174 133.682 26.712 133.682 26.152V25.802C133.412 26.5673 133.015 27.1367 132.492 27.51C131.979 27.8833 131.321 28.07 130.518 28.07C129.585 28.07 128.88 27.8833 128.404 27.51C127.938 27.1367 127.704 26.5813 127.704 25.844C127.704 25.2373 127.905 24.7613 128.306 24.416C128.708 24.0707 129.328 23.8327 130.168 23.702C129.459 23.198 128.75 22.7593 128.04 22.386C128.6 21.6767 129.24 21.14 129.958 20.776C130.677 20.4027 131.55 20.216 132.576 20.216C134.014 20.216 135.078 20.5287 135.768 21.154C136.468 21.77 136.818 22.722 136.818 24.01V25.676ZM132.87 22.68C132.394 22.68 131.974 22.7593 131.61 22.918C131.246 23.0767 130.92 23.3147 130.63 23.632C131.19 23.5667 131.89 23.534 132.73 23.534C133.076 23.534 133.318 23.492 133.458 23.408C133.598 23.324 133.668 23.2167 133.668 23.086C133.668 22.974 133.598 22.8807 133.458 22.806C133.318 22.722 133.122 22.68 132.87 22.68ZM131.4 25.788C131.923 25.788 132.394 25.69 132.814 25.494C133.234 25.2887 133.524 25.0227 133.682 24.696V24.332C133.458 24.444 133.211 24.5327 132.94 24.598C132.67 24.654 132.343 24.71 131.96 24.766L131.456 24.85C130.934 24.9527 130.672 25.13 130.672 25.382C130.672 25.6527 130.915 25.788 131.4 25.788ZM144.563 22.862C143.704 22.806 142.92 22.764 142.211 22.736L142.197 24.22C142.197 24.724 142.304 25.1207 142.519 25.41C142.743 25.69 143.135 25.83 143.695 25.83C143.91 25.83 144.115 25.8113 144.311 25.774C144.274 26.1193 144.255 26.4693 144.255 26.824C144.255 26.992 144.264 27.3747 144.283 27.972C143.872 28.0467 143.527 28.0933 143.247 28.112C142.967 28.1307 142.603 28.14 142.155 28.14C141.063 28.14 140.288 27.8787 139.831 27.356C139.383 26.824 139.159 26.0867 139.159 25.144L139.173 22.778C138.734 22.7967 138.277 22.8247 137.801 22.862V20.384C138.286 20.384 138.697 20.23 139.033 19.922C139.369 19.614 139.57 19.2453 139.635 18.816H143.443C142.967 19.4693 142.44 19.992 141.861 20.384H144.563V22.862ZM147.275 19.53C146.687 19.53 146.248 19.3853 145.959 19.096C145.679 18.8067 145.539 18.4287 145.539 17.962C145.539 17.5047 145.679 17.1267 145.959 16.828C146.248 16.5293 146.687 16.38 147.275 16.38C147.835 16.38 148.264 16.534 148.563 16.842C148.862 17.1407 149.011 17.514 149.011 17.962C149.011 18.4287 148.866 18.8067 148.577 19.096C148.288 19.3853 147.854 19.53 147.275 19.53ZM145.651 28C145.716 26.4973 145.749 25.256 145.749 24.276C145.749 23.1093 145.712 21.8027 145.637 20.356H148.997C148.922 21.7467 148.885 23.0533 148.885 24.276C148.885 25.3027 148.918 26.544 148.983 28H145.651ZM153.108 24.178C153.127 24.654 153.276 25.0367 153.556 25.326C153.845 25.6153 154.27 25.76 154.83 25.76C155.138 25.76 155.413 25.704 155.656 25.592C155.899 25.4707 156.123 25.2933 156.328 25.06C157.121 25.368 158.05 25.634 159.114 25.858C158.806 26.5767 158.283 27.1367 157.546 27.538C156.818 27.9393 155.871 28.14 154.704 28.14C153.145 28.14 151.993 27.776 151.246 27.048C150.499 26.32 150.126 25.3633 150.126 24.178C150.126 22.9927 150.499 22.036 151.246 21.308C151.993 20.58 153.145 20.216 154.704 20.216C155.871 20.216 156.818 20.4167 157.546 20.818C158.283 21.2193 158.806 21.7793 159.114 22.498C158.283 22.6753 157.355 22.9413 156.328 23.296C156.123 23.0627 155.899 22.89 155.656 22.778C155.413 22.6567 155.138 22.596 154.83 22.596C154.27 22.596 153.845 22.7407 153.556 23.03C153.276 23.3193 153.127 23.702 153.108 24.178ZM170.737 25.844L171.941 20.356H174.727L173.173 28H169.435L168.553 24.43L167.559 28H163.961L162.407 20.356H165.193L166.383 25.83L167.195 20.356H169.953L170.737 25.844ZM178.534 22.428C178.926 21.0187 179.901 20.314 181.46 20.314C181.73 20.314 181.992 20.3327 182.244 20.37L181.796 23.506C181.124 23.254 180.573 23.128 180.144 23.128C179.612 23.128 179.22 23.2867 178.968 23.604C178.716 23.9213 178.59 24.346 178.59 24.878V24.864L178.576 25.788C178.576 26.4507 178.594 27.188 178.632 28H175.286C175.36 26.656 175.398 25.3867 175.398 24.192C175.398 22.9973 175.36 21.7187 175.286 20.356C175.902 20.384 176.373 20.398 176.7 20.398C177.045 20.398 177.516 20.384 178.114 20.356L178.534 22.428ZM191.506 25.676C191.506 25.9933 191.543 26.2173 191.618 26.348C191.692 26.4787 191.842 26.572 192.066 26.628L192.01 27.944C191.711 27.9907 191.45 28.0233 191.226 28.042C191.011 28.0607 190.722 28.07 190.358 28.07C189.555 28.07 189.023 27.8927 188.762 27.538C188.5 27.174 188.37 26.712 188.37 26.152V25.802C188.099 26.5673 187.702 27.1367 187.18 27.51C186.666 27.8833 186.008 28.07 185.206 28.07C184.272 28.07 183.568 27.8833 183.092 27.51C182.625 27.1367 182.392 26.5813 182.392 25.844C182.392 25.2373 182.592 24.7613 182.994 24.416C183.395 24.0707 184.016 23.8327 184.856 23.702C184.146 23.198 183.437 22.7593 182.728 22.386C183.288 21.6767 183.927 21.14 184.646 20.776C185.364 20.4027 186.237 20.216 187.264 20.216C188.701 20.216 189.765 20.5287 190.456 21.154C191.156 21.77 191.506 22.722 191.506 24.01V25.676ZM187.558 22.68C187.082 22.68 186.662 22.7593 186.298 22.918C185.934 23.0767 185.607 23.3147 185.318 23.632C185.878 23.5667 186.578 23.534 187.418 23.534C187.763 23.534 188.006 23.492 188.146 23.408C188.286 23.324 188.356 23.2167 188.356 23.086C188.356 22.974 188.286 22.8807 188.146 22.806C188.006 22.722 187.81 22.68 187.558 22.68ZM186.088 25.788C186.61 25.788 187.082 25.69 187.502 25.494C187.922 25.2887 188.211 25.0227 188.37 24.696V24.332C188.146 24.444 187.898 24.5327 187.628 24.598C187.357 24.654 187.03 24.71 186.648 24.766L186.144 24.85C185.621 24.9527 185.36 25.13 185.36 25.382C185.36 25.6527 185.602 25.788 186.088 25.788ZM199.027 20.216C199.633 20.216 200.179 20.3887 200.665 20.734C201.15 21.0793 201.528 21.5507 201.799 22.148C202.069 22.736 202.205 23.3847 202.205 24.094C202.205 24.794 202.069 25.4567 201.799 26.082C201.528 26.698 201.145 27.1973 200.651 27.58C200.165 27.9533 199.61 28.14 198.985 28.14C198.257 28.14 197.631 27.9907 197.109 27.692C196.595 27.384 196.213 26.9127 195.961 26.278C195.961 26.81 195.979 27.664 196.017 28.84C196.054 29.9787 196.073 30.7813 196.073 31.248H192.909C192.965 29.512 192.993 27.6967 192.993 25.802C192.993 23.9073 192.965 22.092 192.909 20.356H195.597L196.003 22.106C196.264 21.4527 196.656 20.9767 197.179 20.678C197.701 20.37 198.317 20.216 199.027 20.216ZM197.529 25.62C197.949 25.62 198.299 25.4893 198.579 25.228C198.868 24.9573 199.013 24.6073 199.013 24.178C199.013 23.702 198.882 23.3147 198.621 23.016C198.359 22.7173 198.005 22.568 197.557 22.568C197.043 22.568 196.656 22.694 196.395 22.946C196.133 23.1887 196.003 23.5993 196.003 24.178C196.003 24.5047 196.087 24.78 196.255 25.004C196.423 25.2187 196.623 25.3773 196.857 25.48C197.09 25.5733 197.314 25.62 197.529 25.62ZM209.308 20.216C209.915 20.216 210.461 20.3887 210.946 20.734C211.431 21.0793 211.809 21.5507 212.08 22.148C212.351 22.736 212.486 23.3847 212.486 24.094C212.486 24.794 212.351 25.4567 212.08 26.082C211.809 26.698 211.427 27.1973 210.932 27.58C210.447 27.9533 209.891 28.14 209.266 28.14C208.538 28.14 207.913 27.9907 207.39 27.692C206.877 27.384 206.494 26.9127 206.242 26.278C206.242 26.81 206.261 27.664 206.298 28.84C206.335 29.9787 206.354 30.7813 206.354 31.248H203.19C203.246 29.512 203.274 27.6967 203.274 25.802C203.274 23.9073 203.246 22.092 203.19 20.356H205.878L206.284 22.106C206.545 21.4527 206.937 20.9767 207.46 20.678C207.983 20.37 208.599 20.216 209.308 20.216ZM207.81 25.62C208.23 25.62 208.58 25.4893 208.86 25.228C209.149 24.9573 209.294 24.6073 209.294 24.178C209.294 23.702 209.163 23.3147 208.902 23.016C208.641 22.7173 208.286 22.568 207.838 22.568C207.325 22.568 206.937 22.694 206.676 22.946C206.415 23.1887 206.284 23.5993 206.284 24.178C206.284 24.5047 206.368 24.78 206.536 25.004C206.704 25.2187 206.905 25.3773 207.138 25.48C207.371 25.5733 207.595 25.62 207.81 25.62ZM215.347 19.53C214.759 19.53 214.32 19.3853 214.031 19.096C213.751 18.8067 213.611 18.4287 213.611 17.962C213.611 17.5047 213.751 17.1267 214.031 16.828C214.32 16.5293 214.759 16.38 215.347 16.38C215.907 16.38 216.336 16.534 216.635 16.842C216.934 17.1407 217.083 17.514 217.083 17.962C217.083 18.4287 216.938 18.8067 216.649 19.096C216.36 19.3853 215.926 19.53 215.347 19.53ZM213.723 28C213.788 26.4973 213.821 25.256 213.821 24.276C213.821 23.1093 213.784 21.8027 213.709 20.356H217.069C216.994 21.7467 216.957 23.0533 216.957 24.276C216.957 25.3027 216.99 26.544 217.055 28H213.723ZM223.798 28C223.854 26.628 223.882 25.3633 223.882 24.206C223.882 23.7953 223.78 23.4687 223.574 23.226C223.378 22.9833 223.126 22.862 222.818 22.862C222.51 22.862 222.249 23.002 222.034 23.282C221.82 23.5527 221.694 23.926 221.656 24.402C221.638 25.1113 221.628 25.6153 221.628 25.914C221.628 26.5487 221.647 27.244 221.684 28H218.338C218.413 26.656 218.45 25.3867 218.45 24.192C218.45 22.9973 218.413 21.7187 218.338 20.356C218.954 20.384 219.426 20.398 219.752 20.398C220.098 20.398 220.569 20.384 221.166 20.356L221.572 22.414C221.787 21.6673 222.123 21.1167 222.58 20.762C223.038 20.398 223.57 20.216 224.176 20.216C224.736 20.216 225.222 20.342 225.632 20.594C226.043 20.8367 226.351 21.168 226.556 21.588C226.771 22.008 226.878 22.4793 226.878 23.002V25.018C226.878 26.2593 226.902 27.2533 226.948 28H223.798ZM234.681 20.356H237.369C237.322 21.8867 237.299 24.0613 237.299 26.88C237.299 27.9907 237.075 28.9007 236.627 29.61C236.188 30.3193 235.605 30.8327 234.877 31.15C234.149 31.4767 233.337 31.64 232.441 31.64C231.554 31.64 230.761 31.5093 230.061 31.248C229.361 30.996 228.829 30.6553 228.465 30.226L229.095 28.084C229.599 28.3733 230.075 28.5787 230.523 28.7C230.971 28.8307 231.437 28.896 231.923 28.896C233.509 28.896 234.303 28.224 234.303 26.88C234.303 26.684 234.307 26.544 234.317 26.46C234.317 26.404 234.317 26.3293 234.317 26.236C234.326 26.1427 234.326 26.0213 234.317 25.872C233.841 27.1973 232.833 27.86 231.293 27.86C230.667 27.86 230.107 27.692 229.613 27.356C229.127 27.02 228.749 26.5673 228.479 25.998C228.208 25.4193 228.073 24.7847 228.073 24.094C228.073 23.3847 228.208 22.736 228.479 22.148C228.749 21.5507 229.127 21.0793 229.613 20.734C230.098 20.3887 230.644 20.216 231.251 20.216C232.828 20.216 233.855 20.7713 234.331 21.882L234.681 20.356ZM232.749 25.62C232.963 25.62 233.187 25.5733 233.421 25.48C233.654 25.3773 233.855 25.2187 234.023 25.004C234.191 24.78 234.275 24.5047 234.275 24.178C234.275 23.5993 234.144 23.1887 233.883 22.946C233.621 22.694 233.234 22.568 232.721 22.568C232.273 22.568 231.918 22.7173 231.657 23.016C231.395 23.3147 231.265 23.702 231.265 24.178C231.265 24.6073 231.405 24.9573 231.685 25.228C231.974 25.4893 232.329 25.62 232.749 25.62ZM252.143 28C252.218 26.7773 252.255 25.5127 252.255 24.206C252.255 23.786 252.148 23.4593 251.933 23.226C251.728 22.9833 251.453 22.862 251.107 22.862C250.79 22.862 250.515 23.002 250.281 23.282C250.057 23.562 249.945 23.968 249.945 24.5V24.486C249.945 26.138 249.969 27.3093 250.015 28H246.865C246.921 26.628 246.949 25.3633 246.949 24.206C246.949 23.7953 246.847 23.4687 246.641 23.226C246.445 22.9833 246.193 22.862 245.885 22.862C245.559 22.862 245.283 23.002 245.059 23.282C244.845 23.5527 244.719 23.926 244.681 24.402C244.663 25.1113 244.653 25.6153 244.653 25.914C244.653 26.5487 244.672 27.244 244.709 28H241.363C241.438 26.656 241.475 25.3867 241.475 24.192C241.475 22.9973 241.438 21.7187 241.363 20.356C241.979 20.384 242.451 20.398 242.777 20.398C243.123 20.398 243.594 20.384 244.191 20.356L244.611 22.428C244.826 21.672 245.167 21.1167 245.633 20.762C246.1 20.398 246.637 20.216 247.243 20.216C247.971 20.216 248.564 20.4167 249.021 20.818C249.488 21.2193 249.777 21.742 249.889 22.386C250.104 21.7233 250.463 21.196 250.967 20.804C251.471 20.412 252.045 20.216 252.689 20.216C253.529 20.216 254.187 20.5007 254.663 21.07C255.139 21.63 255.377 22.4 255.377 23.38V25.704C255.377 26.7587 255.387 27.524 255.405 28H252.143ZM265.635 25.676C265.635 25.9933 265.672 26.2173 265.747 26.348C265.821 26.4787 265.971 26.572 266.195 26.628L266.139 27.944C265.84 27.9907 265.579 28.0233 265.355 28.042C265.14 28.0607 264.851 28.07 264.487 28.07C263.684 28.07 263.152 27.8927 262.891 27.538C262.629 27.174 262.499 26.712 262.499 26.152V25.802C262.228 26.5673 261.831 27.1367 261.309 27.51C260.795 27.8833 260.137 28.07 259.335 28.07C258.401 28.07 257.697 27.8833 257.221 27.51C256.754 27.1367 256.521 26.5813 256.521 25.844C256.521 25.2373 256.721 24.7613 257.123 24.416C257.524 24.0707 258.145 23.8327 258.985 23.702C258.275 23.198 257.566 22.7593 256.857 22.386C257.417 21.6767 258.056 21.14 258.775 20.776C259.493 20.4027 260.366 20.216 261.393 20.216C262.83 20.216 263.894 20.5287 264.585 21.154C265.285 21.77 265.635 22.722 265.635 24.01V25.676ZM261.687 22.68C261.211 22.68 260.791 22.7593 260.427 22.918C260.063 23.0767 259.736 23.3147 259.447 23.632C260.007 23.5667 260.707 23.534 261.547 23.534C261.892 23.534 262.135 23.492 262.275 23.408C262.415 23.324 262.485 23.2167 262.485 23.086C262.485 22.974 262.415 22.8807 262.275 22.806C262.135 22.722 261.939 22.68 261.687 22.68ZM260.217 25.788C260.739 25.788 261.211 25.69 261.631 25.494C262.051 25.2887 262.34 25.0227 262.499 24.696V24.332C262.275 24.444 262.027 24.5327 261.757 24.598C261.486 24.654 261.159 24.71 260.777 24.766L260.273 24.85C259.75 24.9527 259.489 25.13 259.489 25.382C259.489 25.6527 259.731 25.788 260.217 25.788ZM269.88 24.178C269.898 24.654 270.048 25.0367 270.328 25.326C270.617 25.6153 271.042 25.76 271.602 25.76C271.91 25.76 272.185 25.704 272.428 25.592C272.67 25.4707 272.894 25.2933 273.1 25.06C273.893 25.368 274.822 25.634 275.886 25.858C275.578 26.5767 275.055 27.1367 274.318 27.538C273.59 27.9393 272.642 28.14 271.476 28.14C269.917 28.14 268.764 27.776 268.018 27.048C267.271 26.32 266.898 25.3633 266.898 24.178C266.898 22.9927 267.271 22.036 268.018 21.308C268.764 20.58 269.917 20.216 271.476 20.216C272.642 20.216 273.59 20.4167 274.318 20.818C275.055 21.2193 275.578 21.7793 275.886 22.498C275.055 22.6753 274.126 22.9413 273.1 23.296C272.894 23.0627 272.67 22.89 272.428 22.778C272.185 22.6567 271.91 22.596 271.602 22.596C271.042 22.596 270.617 22.7407 270.328 23.03C270.048 23.3193 269.898 23.702 269.88 24.178ZM282.396 28C282.452 26.628 282.48 25.3633 282.48 24.206C282.48 23.7953 282.377 23.4687 282.172 23.226C281.976 22.9833 281.724 22.862 281.416 22.862C281.089 22.862 280.809 23.0207 280.576 23.338C280.352 23.6553 280.24 24.0893 280.24 24.64L280.226 24.612C280.226 26.1333 280.245 27.2627 280.282 28H276.936C277.011 26.656 277.048 24.836 277.048 22.54C277.048 20.244 277.011 18.424 276.936 17.08H280.268L280.282 21.392L280.268 22.134C280.492 21.4807 280.823 21 281.262 20.692C281.71 20.3747 282.214 20.216 282.774 20.216C283.334 20.216 283.819 20.342 284.23 20.594C284.641 20.8367 284.949 21.168 285.154 21.588C285.369 22.008 285.476 22.4793 285.476 23.002V25.018C285.476 26.2593 285.499 27.2533 285.546 28H282.396ZM288.546 19.53C287.958 19.53 287.52 19.3853 287.23 19.096C286.95 18.8067 286.81 18.4287 286.81 17.962C286.81 17.5047 286.95 17.1267 287.23 16.828C287.52 16.5293 287.958 16.38 288.546 16.38C289.106 16.38 289.536 16.534 289.834 16.842C290.133 17.1407 290.282 17.514 290.282 17.962C290.282 18.4287 290.138 18.8067 289.848 19.096C289.559 19.3853 289.125 19.53 288.546 19.53ZM286.922 28C286.988 26.4973 287.02 25.256 287.02 24.276C287.02 23.1093 286.983 21.8027 286.908 20.356H290.268C290.194 21.7467 290.156 23.0533 290.156 24.276C290.156 25.3027 290.189 26.544 290.254 28H286.922ZM296.998 28C297.054 26.628 297.082 25.3633 297.082 24.206C297.082 23.7953 296.979 23.4687 296.774 23.226C296.578 22.9833 296.326 22.862 296.018 22.862C295.71 22.862 295.448 23.002 295.234 23.282C295.019 23.5527 294.893 23.926 294.856 24.402C294.837 25.1113 294.828 25.6153 294.828 25.914C294.828 26.5487 294.846 27.244 294.884 28H291.538C291.612 26.656 291.65 25.3867 291.65 24.192C291.65 22.9973 291.612 21.7187 291.538 20.356C292.154 20.384 292.625 20.398 292.952 20.398C293.297 20.398 293.768 20.384 294.366 20.356L294.772 22.414C294.986 21.6673 295.322 21.1167 295.78 20.762C296.237 20.398 296.769 20.216 297.376 20.216C297.936 20.216 298.421 20.342 298.832 20.594C299.242 20.8367 299.55 21.168 299.756 21.588C299.97 22.008 300.078 22.4793 300.078 23.002V25.018C300.078 26.2593 300.101 27.2533 300.148 28H296.998ZM308.678 24.5H304.114C304.189 24.9107 304.371 25.2467 304.66 25.508C304.959 25.76 305.379 25.886 305.92 25.886C306.312 25.886 306.681 25.8113 307.026 25.662C307.371 25.5033 307.647 25.284 307.852 25.004C308.477 25.312 309.308 25.6433 310.344 25.998C310.055 26.6513 309.527 27.174 308.762 27.566C308.006 27.9487 307.017 28.14 305.794 28.14C304.207 28.14 303.031 27.776 302.266 27.048C301.51 26.3107 301.132 25.3447 301.132 24.15C301.132 22.9833 301.51 22.036 302.266 21.308C303.022 20.58 304.198 20.216 305.794 20.216C306.746 20.216 307.572 20.3747 308.272 20.692C308.972 21.0093 309.509 21.4527 309.882 22.022C310.255 22.582 310.442 23.226 310.442 23.954C310.442 24.1967 310.433 24.3787 310.414 24.5H308.678ZM305.99 22.33C305.523 22.33 305.141 22.4187 304.842 22.596C304.543 22.7733 304.333 23.016 304.212 23.324H307.516C307.404 23.0253 307.222 22.7873 306.97 22.61C306.718 22.4233 306.391 22.33 305.99 22.33Z" fill="#F8F8F8"/>
</g>
<defs>
<filter id="filter0_b_5847_32379" x="-9.57055" y="-9.57055" width="354.141" height="63.1411" filterUnits="userSpaceOnUse" color-interpolation-filters="sRGB">
<feFlood flood-opacity="0" result="BackgroundImageFix"/>
<feGaussianBlur in="BackgroundImageFix" stdDeviation="4.78528"/>
<feComposite in2="SourceAlpha" operator="in" result="effect1_backgroundBlur_5847_32379"/>
<feBlend mode="normal" in="SourceGraphic" in2="effect1_backgroundBlur_5847_32379" result="shape"/>
</filter>
</defs>
</svg>
