<svg width="376" height="44" viewBox="0 0 376 44" fill="none" xmlns="http://www.w3.org/2000/svg">
<g filter="url(#filter0_b_5847_32401)">
<path d="M38.3941 17.836L39.4861 28H35.8601L35.6361 20.748L34.2361 28H30.5681L29.1401 20.804L28.9301 28H25.3041L26.3961 17.836H31.1561L32.3741 24.458L33.4381 17.836H38.3941ZM48.009 24.5H43.445C43.5196 24.9107 43.7016 25.2467 43.991 25.508C44.2896 25.76 44.7096 25.886 45.251 25.886C45.643 25.886 46.0116 25.8113 46.357 25.662C46.7023 25.5033 46.9776 25.284 47.183 25.004C47.8083 25.312 48.639 25.6433 49.675 25.998C49.3856 26.6513 48.8583 27.174 48.093 27.566C47.337 27.9487 46.3476 28.14 45.125 28.14C43.5383 28.14 42.3623 27.776 41.597 27.048C40.841 26.3107 40.463 25.3447 40.463 24.15C40.463 22.9833 40.841 22.036 41.597 21.308C42.353 20.58 43.529 20.216 45.125 20.216C46.077 20.216 46.903 20.3747 47.603 20.692C48.303 21.0093 48.8396 21.4527 49.213 22.022C49.5863 22.582 49.773 23.226 49.773 23.954C49.773 24.1967 49.7636 24.3787 49.745 24.5H48.009ZM45.321 22.33C44.8543 22.33 44.4716 22.4187 44.173 22.596C43.8743 22.7733 43.6643 23.016 43.543 23.324H46.847C46.735 23.0253 46.553 22.7873 46.301 22.61C46.049 22.4233 45.7223 22.33 45.321 22.33ZM57.0895 22.862C56.2308 22.806 55.4468 22.764 54.7375 22.736L54.7235 24.22C54.7235 24.724 54.8308 25.1207 55.0455 25.41C55.2695 25.69 55.6615 25.83 56.2215 25.83C56.4362 25.83 56.6415 25.8113 56.8375 25.774C56.8002 26.1193 56.7815 26.4693 56.7815 26.824C56.7815 26.992 56.7908 27.3747 56.8095 27.972C56.3988 28.0467 56.0535 28.0933 55.7735 28.112C55.4935 28.1307 55.1295 28.14 54.6815 28.14C53.5895 28.14 52.8148 27.8787 52.3575 27.356C51.9095 26.824 51.6855 26.0867 51.6855 25.144L51.6995 22.778C51.2608 22.7967 50.8035 22.8247 50.3275 22.862V20.384C50.8128 20.384 51.2235 20.23 51.5595 19.922C51.8955 19.614 52.0962 19.2453 52.1615 18.816H55.9695C55.4935 19.4693 54.9662 19.992 54.3875 20.384H57.0895V22.862ZM66.8992 25.676C66.8992 25.9933 66.9366 26.2173 67.0112 26.348C67.0859 26.4787 67.2352 26.572 67.4592 26.628L67.4032 27.944C67.1046 27.9907 66.8432 28.0233 66.6192 28.042C66.4046 28.0607 66.1152 28.07 65.7512 28.07C64.9486 28.07 64.4166 27.8927 64.1552 27.538C63.8939 27.174 63.7632 26.712 63.7632 26.152V25.802C63.4926 26.5673 63.0959 27.1367 62.5732 27.51C62.0599 27.8833 61.4019 28.07 60.5992 28.07C59.6659 28.07 58.9612 27.8833 58.4852 27.51C58.0186 27.1367 57.7852 26.5813 57.7852 25.844C57.7852 25.2373 57.9859 24.7613 58.3872 24.416C58.7886 24.0707 59.4092 23.8327 60.2492 23.702C59.5399 23.198 58.8306 22.7593 58.1212 22.386C58.6812 21.6767 59.3206 21.14 60.0392 20.776C60.7579 20.4027 61.6306 20.216 62.6572 20.216C64.0946 20.216 65.1586 20.5287 65.8492 21.154C66.5492 21.77 66.8992 22.722 66.8992 24.01V25.676ZM62.9512 22.68C62.4752 22.68 62.0552 22.7593 61.6912 22.918C61.3272 23.0767 61.0006 23.3147 60.7112 23.632C61.2712 23.5667 61.9712 23.534 62.8112 23.534C63.1566 23.534 63.3992 23.492 63.5392 23.408C63.6792 23.324 63.7492 23.2167 63.7492 23.086C63.7492 22.974 63.6792 22.8807 63.5392 22.806C63.3992 22.722 63.2032 22.68 62.9512 22.68ZM61.4812 25.788C62.0039 25.788 62.4752 25.69 62.8952 25.494C63.3152 25.2887 63.6046 25.0227 63.7632 24.696V24.332C63.5392 24.444 63.2919 24.5327 63.0212 24.598C62.7506 24.654 62.4239 24.71 62.0412 24.766L61.5372 24.85C61.0146 24.9527 60.7532 25.13 60.7532 25.382C60.7532 25.6527 60.9959 25.788 61.4812 25.788ZM71.5922 22.4C71.5829 22.96 71.5782 23.8187 71.5782 24.976C71.5782 26.3667 71.5875 27.3747 71.6062 28H68.3022L68.3162 26.418C68.3349 24.682 68.3442 23.3427 68.3442 22.4C68.3442 21.504 68.3349 20.2347 68.3162 18.592L68.3022 17.08H71.6062C71.5875 18.4053 71.5782 19.488 71.5782 20.328C71.5782 21.2613 71.5829 21.952 71.5922 22.4ZM84.6906 17.108C84.6346 18.844 84.6066 20.6593 84.6066 22.554C84.6066 24.43 84.6346 26.2453 84.6906 28H81.5266L81.5686 26.32C81.2979 26.9453 80.9059 27.4073 80.3926 27.706C79.8793 27.9953 79.2726 28.14 78.5726 28.14C77.9659 28.14 77.4199 27.9673 76.9346 27.622C76.4493 27.2767 76.0713 26.81 75.8006 26.222C75.5299 25.6247 75.3946 24.9713 75.3946 24.262C75.3946 23.562 75.5299 22.904 75.8006 22.288C76.0713 21.6627 76.4493 21.1633 76.9346 20.79C77.4293 20.4073 77.9893 20.216 78.6146 20.216C79.3426 20.216 79.9633 20.37 80.4766 20.678C80.9993 20.9767 81.3866 21.4433 81.6386 22.078C81.6386 21.546 81.6199 20.692 81.5826 19.516C81.5453 18.3773 81.5266 17.5747 81.5266 17.108H84.6906ZM80.0426 25.788C80.4999 25.788 80.8733 25.662 81.1626 25.41C81.4519 25.1487 81.5966 24.738 81.5966 24.178C81.5966 23.6833 81.4519 23.3193 81.1626 23.086C80.8733 22.8527 80.5093 22.736 80.0706 22.736C79.6506 22.736 79.2959 22.8713 79.0066 23.142C78.7266 23.4033 78.5866 23.7487 78.5866 24.178C78.5866 24.654 78.7173 25.0413 78.9786 25.34C79.2399 25.6387 79.5946 25.788 80.0426 25.788ZM93.2219 24.5H88.6579C88.7325 24.9107 88.9145 25.2467 89.2039 25.508C89.5025 25.76 89.9225 25.886 90.4639 25.886C90.8559 25.886 91.2245 25.8113 91.5699 25.662C91.9152 25.5033 92.1905 25.284 92.3959 25.004C93.0212 25.312 93.8519 25.6433 94.8879 25.998C94.5985 26.6513 94.0712 27.174 93.3059 27.566C92.5499 27.9487 91.5605 28.14 90.3379 28.14C88.7512 28.14 87.5752 27.776 86.8099 27.048C86.0539 26.3107 85.6759 25.3447 85.6759 24.15C85.6759 22.9833 86.0539 22.036 86.8099 21.308C87.5659 20.58 88.7419 20.216 90.3379 20.216C91.2899 20.216 92.1159 20.3747 92.8159 20.692C93.5159 21.0093 94.0525 21.4527 94.4259 22.022C94.7992 22.582 94.9859 23.226 94.9859 23.954C94.9859 24.1967 94.9765 24.3787 94.9579 24.5H93.2219ZM90.5339 22.33C90.0672 22.33 89.6845 22.4187 89.3859 22.596C89.0872 22.7733 88.8772 23.016 88.7559 23.324H92.0599C91.9479 23.0253 91.7659 22.7873 91.5139 22.61C91.2619 22.4233 90.9352 22.33 90.5339 22.33ZM102.302 22.862C101.444 22.806 100.66 22.764 99.9504 22.736L99.9364 24.22C99.9364 24.724 100.044 25.1207 100.258 25.41C100.482 25.69 100.874 25.83 101.434 25.83C101.649 25.83 101.854 25.8113 102.05 25.774C102.013 26.1193 101.994 26.4693 101.994 26.824C101.994 26.992 102.004 27.3747 102.022 27.972C101.612 28.0467 101.266 28.0933 100.986 28.112C100.706 28.1307 100.342 28.14 99.8944 28.14C98.8024 28.14 98.0277 27.8787 97.5704 27.356C97.1224 26.824 96.8984 26.0867 96.8984 25.144L96.9124 22.778C96.4737 22.7967 96.0164 22.8247 95.5404 22.862V20.384C96.0257 20.384 96.4364 20.23 96.7724 19.922C97.1084 19.614 97.3091 19.2453 97.3744 18.816H101.182C100.706 19.4693 100.179 19.992 99.6004 20.384H102.302V22.862ZM110.544 24.5H105.98C106.055 24.9107 106.237 25.2467 106.526 25.508C106.825 25.76 107.245 25.886 107.786 25.886C108.178 25.886 108.547 25.8113 108.892 25.662C109.237 25.5033 109.513 25.284 109.718 25.004C110.343 25.312 111.174 25.6433 112.21 25.998C111.921 26.6513 111.393 27.174 110.628 27.566C109.872 27.9487 108.883 28.14 107.66 28.14C106.073 28.14 104.897 27.776 104.132 27.048C103.376 26.3107 102.998 25.3447 102.998 24.15C102.998 22.9833 103.376 22.036 104.132 21.308C104.888 20.58 106.064 20.216 107.66 20.216C108.612 20.216 109.438 20.3747 110.138 20.692C110.838 21.0093 111.375 21.4527 111.748 22.022C112.121 22.582 112.308 23.226 112.308 23.954C112.308 24.1967 112.299 24.3787 112.28 24.5H110.544ZM107.856 22.33C107.389 22.33 107.007 22.4187 106.708 22.596C106.409 22.7733 106.199 23.016 106.078 23.324H109.382C109.27 23.0253 109.088 22.7873 108.836 22.61C108.584 22.4233 108.257 22.33 107.856 22.33ZM116.125 24.178C116.143 24.654 116.293 25.0367 116.573 25.326C116.862 25.6153 117.287 25.76 117.847 25.76C118.155 25.76 118.43 25.704 118.673 25.592C118.915 25.4707 119.139 25.2933 119.345 25.06C120.138 25.368 121.067 25.634 122.131 25.858C121.823 26.5767 121.3 27.1367 120.563 27.538C119.835 27.9393 118.887 28.14 117.721 28.14C116.162 28.14 115.009 27.776 114.263 27.048C113.516 26.32 113.143 25.3633 113.143 24.178C113.143 22.9927 113.516 22.036 114.263 21.308C115.009 20.58 116.162 20.216 117.721 20.216C118.887 20.216 119.835 20.4167 120.563 20.818C121.3 21.2193 121.823 21.7793 122.131 22.498C121.3 22.6753 120.371 22.9413 119.345 23.296C119.139 23.0627 118.915 22.89 118.673 22.778C118.43 22.6567 118.155 22.596 117.847 22.596C117.287 22.596 116.862 22.7407 116.573 23.03C116.293 23.3193 116.143 23.702 116.125 24.178ZM129.523 22.862C128.664 22.806 127.88 22.764 127.171 22.736L127.157 24.22C127.157 24.724 127.264 25.1207 127.479 25.41C127.703 25.69 128.095 25.83 128.655 25.83C128.87 25.83 129.075 25.8113 129.271 25.774C129.234 26.1193 129.215 26.4693 129.215 26.824C129.215 26.992 129.224 27.3747 129.243 27.972C128.832 28.0467 128.487 28.0933 128.207 28.112C127.927 28.1307 127.563 28.14 127.115 28.14C126.023 28.14 125.248 27.8787 124.791 27.356C124.343 26.824 124.119 26.0867 124.119 25.144L124.133 22.778C123.694 22.7967 123.237 22.8247 122.761 22.862V20.384C123.246 20.384 123.657 20.23 123.993 19.922C124.329 19.614 124.53 19.2453 124.595 18.816H128.403C127.927 19.4693 127.4 19.992 126.821 20.384H129.523V22.862ZM132.235 19.53C131.647 19.53 131.208 19.3853 130.919 19.096C130.639 18.8067 130.499 18.4287 130.499 17.962C130.499 17.5047 130.639 17.1267 130.919 16.828C131.208 16.5293 131.647 16.38 132.235 16.38C132.795 16.38 133.224 16.534 133.523 16.842C133.821 17.1407 133.971 17.514 133.971 17.962C133.971 18.4287 133.826 18.8067 133.537 19.096C133.247 19.3853 132.813 19.53 132.235 19.53ZM130.611 28C130.676 26.4973 130.709 25.256 130.709 24.276C130.709 23.1093 130.671 21.8027 130.597 20.356H133.957C133.882 21.7467 133.845 23.0533 133.845 24.276C133.845 25.3027 133.877 26.544 133.943 28H130.611ZM139.734 28.14C138.138 28.14 136.962 27.776 136.206 27.048C135.459 26.3107 135.086 25.3447 135.086 24.15C135.086 22.9833 135.459 22.036 136.206 21.308C136.962 20.58 138.138 20.216 139.734 20.216C140.807 20.216 141.703 20.3933 142.422 20.748C143.15 21.0933 143.687 21.5647 144.032 22.162C144.377 22.75 144.55 23.4127 144.55 24.15C144.55 25.354 144.149 26.32 143.346 27.048C142.553 27.776 141.349 28.14 139.734 28.14ZM139.79 25.76C140.397 25.76 140.849 25.6153 141.148 25.326C141.447 25.0367 141.596 24.6493 141.596 24.164C141.596 23.7067 141.447 23.3333 141.148 23.044C140.849 22.7453 140.397 22.596 139.79 22.596C139.183 22.596 138.74 22.7407 138.46 23.03C138.18 23.3193 138.04 23.6973 138.04 24.164C138.04 24.6493 138.18 25.0367 138.46 25.326C138.74 25.6153 139.183 25.76 139.79 25.76ZM150.995 28C151.051 26.628 151.079 25.3633 151.079 24.206C151.079 23.7953 150.976 23.4687 150.771 23.226C150.575 22.9833 150.323 22.862 150.015 22.862C149.707 22.862 149.445 23.002 149.231 23.282C149.016 23.5527 148.89 23.926 148.853 24.402C148.834 25.1113 148.825 25.6153 148.825 25.914C148.825 26.5487 148.843 27.244 148.881 28H145.535C145.609 26.656 145.647 25.3867 145.647 24.192C145.647 22.9973 145.609 21.7187 145.535 20.356C146.151 20.384 146.622 20.398 146.949 20.398C147.294 20.398 147.765 20.384 148.363 20.356L148.769 22.414C148.983 21.6673 149.319 21.1167 149.777 20.762C150.234 20.398 150.766 20.216 151.373 20.216C151.933 20.216 152.418 20.342 152.829 20.594C153.239 20.8367 153.547 21.168 153.753 21.588C153.967 22.008 154.075 22.4793 154.075 23.002V25.018C154.075 26.2593 154.098 27.2533 154.145 28H150.995ZM156.613 25.158C157.033 25.158 157.383 25.3213 157.663 25.648C157.952 25.9653 158.097 26.4087 158.097 26.978C158.097 27.4447 158.013 27.9347 157.845 28.448C157.686 28.9613 157.462 29.3767 157.173 29.694H155.983C156.375 29.162 156.622 28.6393 156.725 28.126C156.24 28.126 155.852 27.9813 155.563 27.692C155.274 27.4027 155.129 27.0527 155.129 26.642C155.129 26.2313 155.274 25.8813 155.563 25.592C155.852 25.3027 156.202 25.158 156.613 25.158ZM169.656 25.844L170.86 20.356H173.646L172.092 28H168.354L167.472 24.43L166.478 28H162.88L161.326 20.356H164.112L165.302 25.83L166.114 20.356H168.872L169.656 25.844ZM180.913 24.5H176.349C176.424 24.9107 176.606 25.2467 176.895 25.508C177.194 25.76 177.614 25.886 178.155 25.886C178.547 25.886 178.916 25.8113 179.261 25.662C179.607 25.5033 179.882 25.284 180.087 25.004C180.713 25.312 181.543 25.6433 182.579 25.998C182.29 26.6513 181.763 27.174 180.997 27.566C180.241 27.9487 179.252 28.14 178.029 28.14C176.443 28.14 175.267 27.776 174.501 27.048C173.745 26.3107 173.367 25.3447 173.367 24.15C173.367 22.9833 173.745 22.036 174.501 21.308C175.257 20.58 176.433 20.216 178.029 20.216C178.981 20.216 179.807 20.3747 180.507 20.692C181.207 21.0093 181.744 21.4527 182.117 22.022C182.491 22.582 182.677 23.226 182.677 23.954C182.677 24.1967 182.668 24.3787 182.649 24.5H180.913ZM178.225 22.33C177.759 22.33 177.376 22.4187 177.077 22.596C176.779 22.7733 176.569 23.016 176.447 23.324H179.751C179.639 23.0253 179.457 22.7873 179.205 22.61C178.953 22.4233 178.627 22.33 178.225 22.33ZM185.528 19.53C184.94 19.53 184.501 19.3853 184.212 19.096C183.932 18.8067 183.792 18.4287 183.792 17.962C183.792 17.5047 183.932 17.1267 184.212 16.828C184.501 16.5293 184.94 16.38 185.528 16.38C186.088 16.38 186.517 16.534 186.816 16.842C187.114 17.1407 187.264 17.514 187.264 17.962C187.264 18.4287 187.119 18.8067 186.83 19.096C186.54 19.3853 186.106 19.53 185.528 19.53ZM183.904 28C183.969 26.4973 184.002 25.256 184.002 24.276C184.002 23.1093 183.964 21.8027 183.89 20.356H187.25C187.175 21.7467 187.138 23.0533 187.138 24.276C187.138 25.3027 187.17 26.544 187.236 28H183.904ZM195.127 20.356H197.815C197.768 21.8867 197.745 24.0613 197.745 26.88C197.745 27.9907 197.521 28.9007 197.073 29.61C196.634 30.3193 196.051 30.8327 195.323 31.15C194.595 31.4767 193.783 31.64 192.887 31.64C192 31.64 191.207 31.5093 190.507 31.248C189.807 30.996 189.275 30.6553 188.911 30.226L189.541 28.084C190.045 28.3733 190.521 28.5787 190.969 28.7C191.417 28.8307 191.884 28.896 192.369 28.896C193.956 28.896 194.749 28.224 194.749 26.88C194.749 26.684 194.754 26.544 194.763 26.46C194.763 26.404 194.763 26.3293 194.763 26.236C194.772 26.1427 194.772 26.0213 194.763 25.872C194.287 27.1973 193.279 27.86 191.739 27.86C191.114 27.86 190.554 27.692 190.059 27.356C189.574 27.02 189.196 26.5673 188.925 25.998C188.654 25.4193 188.519 24.7847 188.519 24.094C188.519 23.3847 188.654 22.736 188.925 22.148C189.196 21.5507 189.574 21.0793 190.059 20.734C190.544 20.3887 191.09 20.216 191.697 20.216C193.274 20.216 194.301 20.7713 194.777 21.882L195.127 20.356ZM193.195 25.62C193.41 25.62 193.634 25.5733 193.867 25.48C194.1 25.3773 194.301 25.2187 194.469 25.004C194.637 24.78 194.721 24.5047 194.721 24.178C194.721 23.5993 194.59 23.1887 194.329 22.946C194.068 22.694 193.68 22.568 193.167 22.568C192.719 22.568 192.364 22.7173 192.103 23.016C191.842 23.3147 191.711 23.702 191.711 24.178C191.711 24.6073 191.851 24.9573 192.131 25.228C192.42 25.4893 192.775 25.62 193.195 25.62ZM204.397 28C204.453 26.628 204.481 25.3633 204.481 24.206C204.481 23.7953 204.378 23.4687 204.173 23.226C203.977 22.9833 203.725 22.862 203.417 22.862C203.09 22.862 202.81 23.0207 202.577 23.338C202.353 23.6553 202.241 24.0893 202.241 24.64L202.227 24.612C202.227 26.1333 202.246 27.2627 202.283 28H198.937C199.012 26.656 199.049 24.836 199.049 22.54C199.049 20.244 199.012 18.424 198.937 17.08H202.269L202.283 21.392L202.269 22.134C202.493 21.4807 202.824 21 203.263 20.692C203.711 20.3747 204.215 20.216 204.775 20.216C205.335 20.216 205.82 20.342 206.231 20.594C206.642 20.8367 206.95 21.168 207.155 21.588C207.37 22.008 207.477 22.4793 207.477 23.002V25.018C207.477 26.2593 207.5 27.2533 207.547 28H204.397ZM214.74 22.862C213.881 22.806 213.097 22.764 212.388 22.736L212.374 24.22C212.374 24.724 212.481 25.1207 212.696 25.41C212.92 25.69 213.312 25.83 213.872 25.83C214.087 25.83 214.292 25.8113 214.488 25.774C214.451 26.1193 214.432 26.4693 214.432 26.824C214.432 26.992 214.441 27.3747 214.46 27.972C214.049 28.0467 213.704 28.0933 213.424 28.112C213.144 28.1307 212.78 28.14 212.332 28.14C211.24 28.14 210.465 27.8787 210.008 27.356C209.56 26.824 209.336 26.0867 209.336 25.144L209.35 22.778C208.911 22.7967 208.454 22.8247 207.978 22.862V20.384C208.463 20.384 208.874 20.23 209.21 19.922C209.546 19.614 209.747 19.2453 209.812 18.816H213.62C213.144 19.4693 212.617 19.992 212.038 20.384H214.74V22.862ZM222.9 28.14C222.116 28.14 221.318 28.0327 220.506 27.818C219.704 27.594 218.948 27.258 218.238 26.81L219.708 24.808C220.138 25.116 220.656 25.3587 221.262 25.536C221.869 25.704 222.392 25.788 222.83 25.788C223.25 25.788 223.572 25.732 223.796 25.62C224.03 25.4987 224.146 25.3447 224.146 25.158C224.146 25.0087 224.09 24.892 223.978 24.808C223.866 24.724 223.712 24.682 223.516 24.682C223.395 24.682 223.255 24.6867 223.096 24.696C222.947 24.7053 222.826 24.7147 222.732 24.724C222.247 24.78 221.748 24.808 221.234 24.808C220.404 24.808 219.727 24.654 219.204 24.346C218.691 24.0287 218.434 23.5153 218.434 22.806C218.434 21.9847 218.822 21.35 219.596 20.902C220.371 20.4447 221.51 20.216 223.012 20.216C223.75 20.216 224.492 20.3233 225.238 20.538C225.994 20.7433 226.662 21.056 227.24 21.476L225.63 23.1C225.098 22.82 224.599 22.624 224.132 22.512C223.675 22.3907 223.213 22.33 222.746 22.33C222.42 22.33 222.14 22.3953 221.906 22.526C221.673 22.6567 221.556 22.806 221.556 22.974C221.556 23.1047 221.603 23.2073 221.696 23.282C221.799 23.3567 221.93 23.394 222.088 23.394C222.247 23.394 222.466 23.38 222.746 23.352C223.428 23.3053 223.936 23.282 224.272 23.282C225.243 23.282 225.994 23.4453 226.526 23.772C227.058 24.0987 227.324 24.598 227.324 25.27C227.324 26.278 226.932 27.0107 226.148 27.468C225.364 27.916 224.282 28.14 222.9 28.14ZM232.812 28.14C231.216 28.14 230.04 27.776 229.284 27.048C228.537 26.3107 228.164 25.3447 228.164 24.15C228.164 22.9833 228.537 22.036 229.284 21.308C230.04 20.58 231.216 20.216 232.812 20.216C233.885 20.216 234.781 20.3933 235.5 20.748C236.228 21.0933 236.765 21.5647 237.11 22.162C237.455 22.75 237.628 23.4127 237.628 24.15C237.628 25.354 237.227 26.32 236.424 27.048C235.631 27.776 234.427 28.14 232.812 28.14ZM232.868 25.76C233.475 25.76 233.927 25.6153 234.226 25.326C234.525 25.0367 234.674 24.6493 234.674 24.164C234.674 23.7067 234.525 23.3333 234.226 23.044C233.927 22.7453 233.475 22.596 232.868 22.596C232.261 22.596 231.818 22.7407 231.538 23.03C231.258 23.3193 231.118 23.6973 231.118 24.164C231.118 24.6493 231.258 25.0367 231.538 25.326C231.818 25.6153 232.261 25.76 232.868 25.76ZM241.861 22.428C242.253 21.0187 243.228 20.314 244.787 20.314C245.057 20.314 245.319 20.3327 245.571 20.37L245.123 23.506C244.451 23.254 243.9 23.128 243.471 23.128C242.939 23.128 242.547 23.2867 242.295 23.604C242.043 23.9213 241.917 24.346 241.917 24.878V24.864L241.903 25.788C241.903 26.4507 241.921 27.188 241.959 28H238.613C238.687 26.656 238.725 25.3867 238.725 24.192C238.725 22.9973 238.687 21.7187 238.613 20.356C239.229 20.384 239.7 20.398 240.027 20.398C240.372 20.398 240.843 20.384 241.441 20.356L241.861 22.428ZM253.035 22.862C252.176 22.806 251.392 22.764 250.683 22.736L250.669 24.22C250.669 24.724 250.776 25.1207 250.991 25.41C251.215 25.69 251.607 25.83 252.167 25.83C252.381 25.83 252.587 25.8113 252.783 25.774C252.745 26.1193 252.727 26.4693 252.727 26.824C252.727 26.992 252.736 27.3747 252.755 27.972C252.344 28.0467 251.999 28.0933 251.719 28.112C251.439 28.1307 251.075 28.14 250.627 28.14C249.535 28.14 248.76 27.8787 248.303 27.356C247.855 26.824 247.631 26.0867 247.631 25.144L247.645 22.778C247.206 22.7967 246.749 22.8247 246.273 22.862V20.384C246.758 20.384 247.169 20.23 247.505 19.922C247.841 19.614 248.041 19.2453 248.107 18.816H251.915C251.439 19.4693 250.911 19.992 250.333 20.384H253.035V22.862ZM255.747 19.53C255.159 19.53 254.72 19.3853 254.431 19.096C254.151 18.8067 254.011 18.4287 254.011 17.962C254.011 17.5047 254.151 17.1267 254.431 16.828C254.72 16.5293 255.159 16.38 255.747 16.38C256.307 16.38 256.736 16.534 257.035 16.842C257.333 17.1407 257.483 17.514 257.483 17.962C257.483 18.4287 257.338 18.8067 257.049 19.096C256.759 19.3853 256.325 19.53 255.747 19.53ZM254.123 28C254.188 26.4973 254.221 25.256 254.221 24.276C254.221 23.1093 254.183 21.8027 254.109 20.356H257.469C257.394 21.7467 257.357 23.0533 257.357 24.276C257.357 25.3027 257.389 26.544 257.455 28H254.123ZM264.198 28C264.254 26.628 264.282 25.3633 264.282 24.206C264.282 23.7953 264.179 23.4687 263.974 23.226C263.778 22.9833 263.526 22.862 263.218 22.862C262.91 22.862 262.648 23.002 262.434 23.282C262.219 23.5527 262.093 23.926 262.056 24.402C262.037 25.1113 262.028 25.6153 262.028 25.914C262.028 26.5487 262.046 27.244 262.084 28H258.738C258.812 26.656 258.85 25.3867 258.85 24.192C258.85 22.9973 258.812 21.7187 258.738 20.356C259.354 20.384 259.825 20.398 260.152 20.398C260.497 20.398 260.968 20.384 261.566 20.356L261.972 22.414C262.186 21.6673 262.522 21.1167 262.98 20.762C263.437 20.398 263.969 20.216 264.576 20.216C265.136 20.216 265.621 20.342 266.032 20.594C266.442 20.8367 266.75 21.168 266.956 21.588C267.17 22.008 267.278 22.4793 267.278 23.002V25.018C267.278 26.2593 267.301 27.2533 267.348 28H264.198ZM275.08 20.356H277.768C277.721 21.8867 277.698 24.0613 277.698 26.88C277.698 27.9907 277.474 28.9007 277.026 29.61C276.587 30.3193 276.004 30.8327 275.276 31.15C274.548 31.4767 273.736 31.64 272.84 31.64C271.953 31.64 271.16 31.5093 270.46 31.248C269.76 30.996 269.228 30.6553 268.864 30.226L269.494 28.084C269.998 28.3733 270.474 28.5787 270.922 28.7C271.37 28.8307 271.837 28.896 272.322 28.896C273.909 28.896 274.702 28.224 274.702 26.88C274.702 26.684 274.707 26.544 274.716 26.46C274.716 26.404 274.716 26.3293 274.716 26.236C274.725 26.1427 274.725 26.0213 274.716 25.872C274.24 27.1973 273.232 27.86 271.692 27.86C271.067 27.86 270.507 27.692 270.012 27.356C269.527 27.02 269.149 26.5673 268.878 25.998C268.607 25.4193 268.472 24.7847 268.472 24.094C268.472 23.3847 268.607 22.736 268.878 22.148C269.149 21.5507 269.527 21.0793 270.012 20.734C270.497 20.3887 271.043 20.216 271.65 20.216C273.227 20.216 274.254 20.7713 274.73 21.882L275.08 20.356ZM273.148 25.62C273.363 25.62 273.587 25.5733 273.82 25.48C274.053 25.3773 274.254 25.2187 274.422 25.004C274.59 24.78 274.674 24.5047 274.674 24.178C274.674 23.5993 274.543 23.1887 274.282 22.946C274.021 22.694 273.633 22.568 273.12 22.568C272.672 22.568 272.317 22.7173 272.056 23.016C271.795 23.3147 271.664 23.702 271.664 24.178C271.664 24.6073 271.804 24.9573 272.084 25.228C272.373 25.4893 272.728 25.62 273.148 25.62ZM292.543 28C292.617 26.7773 292.655 25.5127 292.655 24.206C292.655 23.786 292.547 23.4593 292.333 23.226C292.127 22.9833 291.852 22.862 291.507 22.862C291.189 22.862 290.914 23.002 290.681 23.282C290.457 23.562 290.345 23.968 290.345 24.5V24.486C290.345 26.138 290.368 27.3093 290.415 28H287.265C287.321 26.628 287.349 25.3633 287.349 24.206C287.349 23.7953 287.246 23.4687 287.041 23.226C286.845 22.9833 286.593 22.862 286.285 22.862C285.958 22.862 285.683 23.002 285.459 23.282C285.244 23.5527 285.118 23.926 285.081 24.402C285.062 25.1113 285.053 25.6153 285.053 25.914C285.053 26.5487 285.071 27.244 285.109 28H281.763C281.837 26.656 281.875 25.3867 281.875 24.192C281.875 22.9973 281.837 21.7187 281.763 20.356C282.379 20.384 282.85 20.398 283.177 20.398C283.522 20.398 283.993 20.384 284.591 20.356L285.011 22.428C285.225 21.672 285.566 21.1167 286.033 20.762C286.499 20.398 287.036 20.216 287.643 20.216C288.371 20.216 288.963 20.4167 289.421 20.818C289.887 21.2193 290.177 21.742 290.289 22.386C290.503 21.7233 290.863 21.196 291.367 20.804C291.871 20.412 292.445 20.216 293.089 20.216C293.929 20.216 294.587 20.5007 295.063 21.07C295.539 21.63 295.777 22.4 295.777 23.38V25.704C295.777 26.7587 295.786 27.524 295.805 28H292.543ZM306.034 25.676C306.034 25.9933 306.071 26.2173 306.146 26.348C306.221 26.4787 306.37 26.572 306.594 26.628L306.538 27.944C306.239 27.9907 305.978 28.0233 305.754 28.042C305.539 28.0607 305.25 28.07 304.886 28.07C304.083 28.07 303.551 27.8927 303.29 27.538C303.029 27.174 302.898 26.712 302.898 26.152V25.802C302.627 26.5673 302.231 27.1367 301.708 27.51C301.195 27.8833 300.537 28.07 299.734 28.07C298.801 28.07 298.096 27.8833 297.62 27.51C297.153 27.1367 296.92 26.5813 296.92 25.844C296.92 25.2373 297.121 24.7613 297.522 24.416C297.923 24.0707 298.544 23.8327 299.384 23.702C298.675 23.198 297.965 22.7593 297.256 22.386C297.816 21.6767 298.455 21.14 299.174 20.776C299.893 20.4027 300.765 20.216 301.792 20.216C303.229 20.216 304.293 20.5287 304.984 21.154C305.684 21.77 306.034 22.722 306.034 24.01V25.676ZM302.086 22.68C301.61 22.68 301.19 22.7593 300.826 22.918C300.462 23.0767 300.135 23.3147 299.846 23.632C300.406 23.5667 301.106 23.534 301.946 23.534C302.291 23.534 302.534 23.492 302.674 23.408C302.814 23.324 302.884 23.2167 302.884 23.086C302.884 22.974 302.814 22.8807 302.674 22.806C302.534 22.722 302.338 22.68 302.086 22.68ZM300.616 25.788C301.139 25.788 301.61 25.69 302.03 25.494C302.45 25.2887 302.739 25.0227 302.898 24.696V24.332C302.674 24.444 302.427 24.5327 302.156 24.598C301.885 24.654 301.559 24.71 301.176 24.766L300.672 24.85C300.149 24.9527 299.888 25.13 299.888 25.382C299.888 25.6527 300.131 25.788 300.616 25.788ZM310.279 24.178C310.298 24.654 310.447 25.0367 310.727 25.326C311.016 25.6153 311.441 25.76 312.001 25.76C312.309 25.76 312.584 25.704 312.827 25.592C313.07 25.4707 313.294 25.2933 313.499 25.06C314.292 25.368 315.221 25.634 316.285 25.858C315.977 26.5767 315.454 27.1367 314.717 27.538C313.989 27.9393 313.042 28.14 311.875 28.14C310.316 28.14 309.164 27.776 308.417 27.048C307.67 26.32 307.297 25.3633 307.297 24.178C307.297 22.9927 307.67 22.036 308.417 21.308C309.164 20.58 310.316 20.216 311.875 20.216C313.042 20.216 313.989 20.4167 314.717 20.818C315.454 21.2193 315.977 21.7793 316.285 22.498C315.454 22.6753 314.526 22.9413 313.499 23.296C313.294 23.0627 313.07 22.89 312.827 22.778C312.584 22.6567 312.309 22.596 312.001 22.596C311.441 22.596 311.016 22.7407 310.727 23.03C310.447 23.3193 310.298 23.702 310.279 24.178ZM322.795 28C322.851 26.628 322.879 25.3633 322.879 24.206C322.879 23.7953 322.777 23.4687 322.571 23.226C322.375 22.9833 322.123 22.862 321.815 22.862C321.489 22.862 321.209 23.0207 320.975 23.338C320.751 23.6553 320.639 24.0893 320.639 24.64L320.625 24.612C320.625 26.1333 320.644 27.2627 320.681 28H317.335C317.41 26.656 317.447 24.836 317.447 22.54C317.447 20.244 317.41 18.424 317.335 17.08H320.667L320.681 21.392L320.667 22.134C320.891 21.4807 321.223 21 321.661 20.692C322.109 20.3747 322.613 20.216 323.173 20.216C323.733 20.216 324.219 20.342 324.629 20.594C325.04 20.8367 325.348 21.168 325.553 21.588C325.768 22.008 325.875 22.4793 325.875 23.002V25.018C325.875 26.2593 325.899 27.2533 325.945 28H322.795ZM328.946 19.53C328.358 19.53 327.919 19.3853 327.63 19.096C327.35 18.8067 327.21 18.4287 327.21 17.962C327.21 17.5047 327.35 17.1267 327.63 16.828C327.919 16.5293 328.358 16.38 328.946 16.38C329.506 16.38 329.935 16.534 330.234 16.842C330.532 17.1407 330.682 17.514 330.682 17.962C330.682 18.4287 330.537 18.8067 330.248 19.096C329.958 19.3853 329.524 19.53 328.946 19.53ZM327.322 28C327.387 26.4973 327.42 25.256 327.42 24.276C327.42 23.1093 327.382 21.8027 327.308 20.356H330.668C330.593 21.7467 330.556 23.0533 330.556 24.276C330.556 25.3027 330.588 26.544 330.654 28H327.322ZM337.397 28C337.453 26.628 337.481 25.3633 337.481 24.206C337.481 23.7953 337.378 23.4687 337.173 23.226C336.977 22.9833 336.725 22.862 336.417 22.862C336.109 22.862 335.848 23.002 335.633 23.282C335.418 23.5527 335.292 23.926 335.255 24.402C335.236 25.1113 335.227 25.6153 335.227 25.914C335.227 26.5487 335.246 27.244 335.283 28H331.937C332.012 26.656 332.049 25.3867 332.049 24.192C332.049 22.9973 332.012 21.7187 331.937 20.356C332.553 20.384 333.024 20.398 333.351 20.398C333.696 20.398 334.168 20.384 334.765 20.356L335.171 22.414C335.386 21.6673 335.722 21.1167 336.179 20.762C336.636 20.398 337.168 20.216 337.775 20.216C338.335 20.216 338.82 20.342 339.231 20.594C339.642 20.8367 339.95 21.168 340.155 21.588C340.37 22.008 340.477 22.4793 340.477 23.002V25.018C340.477 26.2593 340.5 27.2533 340.547 28H337.397ZM349.077 24.5H344.513C344.588 24.9107 344.77 25.2467 345.059 25.508C345.358 25.76 345.778 25.886 346.319 25.886C346.711 25.886 347.08 25.8113 347.425 25.662C347.771 25.5033 348.046 25.284 348.251 25.004C348.877 25.312 349.707 25.6433 350.743 25.998C350.454 26.6513 349.927 27.174 349.161 27.566C348.405 27.9487 347.416 28.14 346.193 28.14C344.607 28.14 343.431 27.776 342.665 27.048C341.909 26.3107 341.531 25.3447 341.531 24.15C341.531 22.9833 341.909 22.036 342.665 21.308C343.421 20.58 344.597 20.216 346.193 20.216C347.145 20.216 347.971 20.3747 348.671 20.692C349.371 21.0093 349.908 21.4527 350.281 22.022C350.655 22.582 350.841 23.226 350.841 23.954C350.841 24.1967 350.832 24.3787 350.813 24.5H349.077ZM346.389 22.33C345.923 22.33 345.54 22.4187 345.241 22.596C344.943 22.7733 344.733 23.016 344.611 23.324H347.915C347.803 23.0253 347.621 22.7873 347.369 22.61C347.117 22.4233 346.791 22.33 346.389 22.33Z" fill="#F8F8F8"/>
</g>
<defs>
<filter id="filter0_b_5847_32401" x="-9.07055" y="-9.57055" width="394.141" height="63.1411" filterUnits="userSpaceOnUse" color-interpolation-filters="sRGB">
<feFlood flood-opacity="0" result="BackgroundImageFix"/>
<feGaussianBlur in="BackgroundImageFix" stdDeviation="4.78528"/>
<feComposite in2="SourceAlpha" operator="in" result="effect1_backgroundBlur_5847_32401"/>
<feBlend mode="normal" in="SourceGraphic" in2="effect1_backgroundBlur_5847_32401" result="shape"/>
</filter>
</defs>
</svg>
