<svg xmlns="http://www.w3.org/2000/svg" width="113" height="44" viewBox="0 0 113 44">
  <path d="M36,21.2c0,.8-.2,1.5-.6,2.1-.4.6-1.1,1-2,1.2.1.1.2.3.2.4l2.3,3.1h-3.8c-.4-.8-1.1-1.8-2-3.2h-2.1v3.2h-3.3c0-1.8.1-3.5.1-5.1s0-3.3-.1-5.1h3.3s2.9,0,2.9,0c1.9,0,3.2.3,4,.9s1.1,1.4,1.1,2.5ZM28.1,20.5v1.6h1.9c.8,0,1.4,0,1.8,0,.4,0,.7-.1.9-.3.2-.1.2-.3.2-.5s0-.4-.2-.5c-.2-.1-.4-.2-.8-.2-.4,0-1,0-1.8,0h-1.9ZM43.4,28.1c-2.1,0-3.7-.5-4.7-1.4-1-.9-1.5-2.2-1.5-3.9s.5-3,1.5-3.9c1-.9,2.6-1.4,4.7-1.4s3.7.5,4.7,1.4c1,.9,1.5,2.2,1.5,3.9s-.5,3-1.5,3.9-2.6,1.4-4.7,1.4ZM43.4,25.3c1,0,1.8-.2,2.2-.6.4-.4.7-1,.7-1.9s-.2-1.4-.7-1.8c-.5-.4-1.2-.6-2.2-.6s-1.8.2-2.2.6-.7,1-.7,1.8.2,1.4.7,1.8,1.2.6,2.2.6ZM59,22.9c2.1,0,3.2.7,3.2,2s-.1,1.2-.4,1.6c-.3.4-.8.8-1.6,1-.8.2-1.8.4-3.1.4h-6.3c0-1.8.1-3.5.1-5.1s0-3.3-.1-5.1h3.3s3,0,3,0c1.2,0,2.1,0,2.7.3.7.2,1.1.5,1.4.8.3.4.4.8.4,1.4s-.2,1.1-.6,1.5c-.4.4-1.1.8-2,1.1ZM54,20.4v1.3h2.7c.6,0,1,0,1.2-.2.2-.1.4-.3.4-.6s-.1-.4-.4-.4c-.2,0-.6-.1-1.2-.1h-2.7ZM56.7,25.4c.5,0,.8,0,1.1,0,.3,0,.5-.1.6-.2.1-.1.2-.3.2-.4s-.1-.4-.4-.5c-.3-.1-.7-.2-1.4-.2h-2.7v1.4h2.7ZM69.5,28.1c-2.1,0-3.7-.5-4.7-1.4-1-.9-1.5-2.2-1.5-3.9s.5-3,1.5-3.9c1-.9,2.6-1.4,4.7-1.4s3.7.5,4.7,1.4c1,.9,1.5,2.2,1.5,3.9s-.5,3-1.5,3.9-2.6,1.4-4.7,1.4ZM69.5,25.3c1,0,1.8-.2,2.2-.6.4-.4.7-1,.7-1.9s-.2-1.4-.7-1.8c-.5-.4-1.2-.6-2.2-.6s-1.8.2-2.2.6-.7,1-.7,1.8.2,1.4.7,1.8,1.2.6,2.2.6ZM88.2,20.8c-1.5,0-2.9,0-4.3,0v7.3h-3.5v-7.3c-1.4,0-2.8,0-4.3,0v-2.9h12v2.9Z" style="fill: #f7f8f8; stroke-width: 0px;"/>
</svg>