<svg xmlns="http://www.w3.org/2000/svg" width="162" height="44" viewBox="0 0 162 44">
  <path d="M33.9,15.1h1.8v3.5h2v1.5h-2v3.4h-1.8v-8.4ZM25.2,22.5v-6.8h1.8v2.1h3v-2.1h1.7v6.8h-6.5ZM26.8,25.5v-1.4h8.9v5.2h-1.8v-3.8h-7.2ZM26.9,21.1h3v-2h-3v2ZM38.3,25.6h12.9v1.4h-12.9v-1.4ZM39.2,22.2l3.7-2.9c.9-.6,1-.9,1-1.4v-1.8h1.8v1.8c0,.5.1.7,1,1.4l3.7,2.9-1,1.3-3.7-2.9c-.4-.3-.7-.6-.9-.8-.2.3-.5.5-.9.8l-3.7,2.9-1-1.3ZM62.1,15.1h1.8v9.7h-1.8v-9.7ZM52.4,19.2c0-2.1,1.5-3.5,3.7-3.5s3.7,1.5,3.7,3.5-1.5,3.5-3.7,3.5-3.7-1.5-3.7-3.5ZM54.1,19.2c0,1.2.8,2.1,2,2.1s2-.8,2-2.1-.8-2.1-2-2.1-2,.8-2,2.1ZM54.9,29v-4.7h1.8v3.3h7.3v1.4h-9.1ZM75.8,15.1h1.8v7.6h-1.8v-7.6ZM66.2,19c0-2.1,1.5-3.5,3.7-3.5s3.7,1.5,3.7,3.5-1.5,3.5-3.7,3.5-3.7-1.5-3.7-3.5ZM67.9,19c0,1.2.8,2.1,2,2.1s1.9-.8,1.9-2.1-.8-2.1-1.9-2.1-2,.8-2,2.1ZM68.7,29.1v-5.8h1.8v1.5h5.4v-1.5h1.7v5.8h-8.9ZM70.5,27.7h5.4v-1.5h-5.4v1.5ZM83.6,22.1c1.8-.4,3.3-.9,4.2-2h-3.9v-1.4h4.6c.1-.4.2-.9.2-1.4h-4.7v-1.4h6.3v1.4h0c0,4.3-3.2,5.7-6.3,6.3l-.3-1.5ZM86.1,29v-4.6h1.8v3.2h7.5v1.4h-9.3ZM90.8,20.4v-1.4h2.6v-3.9h1.8v9.8h-1.8v-4.5h-2.6ZM107.5,15h1.7v13.8h-1.7v-13.8ZM97.6,25.3v-9.2h1.6v3.3h2.3v-3.3h1.6v3.6h1.5v-4.3h1.6v12.8h-1.6v-7.1h-1.5v4.2h-5.5ZM99.3,23.8h2.3v-3.2h-2.3v3.2ZM120.8,15h1.8v13.8h-1.8v-13.8ZM111,20.4c0-2.4,1.6-4.1,3.9-4.1s3.9,1.7,3.9,4.1-1.6,4-3.9,4-3.9-1.7-3.9-4ZM112.7,20.4c0,1.5.9,2.5,2.2,2.5s2.2-1,2.2-2.5-.9-2.6-2.2-2.6-2.2,1-2.2,2.6ZM128.5,24.4c-2.3,0-3.9-1.7-3.9-4s1.6-4.1,3.9-4.1,3.6,1.4,3.8,3.4h2.3v-4.7h1.7v13.8h-1.7v-7.7h-2.4c-.3,2-1.8,3.3-3.8,3.3ZM126.4,20.4c0,1.5.9,2.5,2.2,2.5s2.2-1,2.2-2.5-.9-2.6-2.2-2.6-2.2,1-2.2,2.6Z" style="fill: #f7f8f8; stroke-width: 0px;"/>
</svg>