<svg xmlns="http://www.w3.org/2000/svg" width="149" height="44" viewBox="0 0 149 44">
  <path d="M34.2,15.1h1.8v5.6h2.2v1.5h-2.2v6.8h-1.8v-13.8ZM24.7,24.3l2.6-3.6c.6-.9.7-1.3.7-2v-1h-2.8v-1.4h7.3v1.4h-2.8v1c0,.7,0,1.1.7,2l2.6,3.6-1.3,1-2.6-3.6-.3-.4c0,.1-.2.3-.3.4l-2.6,3.6-1.3-1ZM48,15.1h1.8v5.4h2.2v1.5h-2.2v6.9h-1.8v-13.8ZM39.2,25.3v-9.2h1.7v3.3h3.3v-3.3h1.7v9.2h-6.8ZM40.9,23.8h3.3v-3.1h-3.3v3.1ZM61.8,15h1.8v5.5h2.2v1.5h-2.2v6.8h-1.8v-13.8ZM53,17.6v-1.4h6.6v5.2h-4.8v2.6h5.8v1.4h-7.6v-5.4h4.8v-2.4h-4.9ZM70.2,22.1c1.8-.4,3.3-.9,4.2-2h-3.9v-1.4h4.6c.1-.4.2-.9.2-1.4h-4.7v-1.4h6.3v1.4h0c0,4.3-3.2,5.7-6.3,6.3l-.3-1.5ZM72.7,29v-4.6h1.8v3.2h7.5v1.4h-9.3ZM77.4,20.4v-1.4h2.6v-3.9h1.8v9.8h-1.8v-4.5h-2.6ZM94.1,15h1.7v13.8h-1.7v-13.8ZM84.3,25.3v-9.2h1.6v3.3h2.3v-3.3h1.6v3.6h1.5v-4.3h1.6v12.8h-1.6v-7.1h-1.5v4.2h-5.5ZM85.9,23.8h2.3v-3.2h-2.3v3.2ZM107.4,15h1.8v13.8h-1.8v-13.8ZM97.6,20.4c0-2.4,1.6-4.1,3.9-4.1s3.9,1.7,3.9,4.1-1.6,4-3.9,4-3.9-1.7-3.9-4ZM99.4,20.4c0,1.5.9,2.5,2.2,2.5s2.2-1,2.2-2.5-.9-2.6-2.2-2.6-2.2,1-2.2,2.6ZM115.1,24.4c-2.3,0-3.9-1.7-3.9-4s1.6-4.1,3.9-4.1,3.6,1.4,3.8,3.4h2.3v-4.7h1.7v13.8h-1.7v-7.7h-2.4c-.3,2-1.8,3.3-3.8,3.3ZM113,20.4c0,1.5.9,2.5,2.2,2.5s2.2-1,2.2-2.5-.9-2.6-2.2-2.6-2.2,1-2.2,2.6Z" style="fill: #f7f8f8; stroke-width: 0px;"/>
</svg>