<svg xmlns="http://www.w3.org/2000/svg" width="203" height="44" viewBox="0 0 203 44">
  <path d="M30.4,22.2h6v5.8h-2.5l-.3-2.5c-.3.9-.8,1.5-1.5,2-.7.4-1.6.6-2.6.6s-1.8-.2-2.5-.6c-.7-.4-1.3-1-1.7-1.8-.4-.8-.6-1.7-.6-2.7,0-1.7.5-3,1.5-4,1-1,2.6-1.5,4.7-1.5s2.3.2,3.2.6c.9.4,1.7,1,2.4,1.8-.4.2-1.2.6-2.5,1.3l-.4.2c-.4-.4-.8-.6-1.3-.8-.5-.2-1-.3-1.5-.3-.9,0-1.6.2-2,.7-.4.5-.7,1-.7,1.7s.2,1.3.7,1.8c.5.5,1.2.7,2.2.7s.8,0,1.2-.2c.4-.1.7-.3,1-.6h-2.7v-2.3ZM40.7,22.4c.4-1.4,1.4-2.1,2.9-2.1s.5,0,.8,0l-.4,3.1c-.7-.3-1.2-.4-1.7-.4s-.9.2-1.2.5c-.3.3-.4.7-.4,1.3h0s0,.9,0,.9c0,.7,0,1.4,0,2.2h-3.3c0-1.3.1-2.6.1-3.8s0-2.5-.1-3.8c.6,0,1.1,0,1.4,0s.8,0,1.4,0l.4,2.1ZM52.5,24.5h-4.6c0,.4.3.7.5,1,.3.3.7.4,1.3.4s.8,0,1.1-.2c.3-.2.6-.4.8-.7.6.3,1.5.6,2.5,1-.3.7-.8,1.2-1.6,1.6-.8.4-1.7.6-3,.6s-2.8-.4-3.5-1.1c-.8-.7-1.1-1.7-1.1-2.9s.4-2.1,1.1-2.8c.8-.7,1.9-1.1,3.5-1.1s1.8.2,2.5.5c.7.3,1.2.8,1.6,1.3.4.6.6,1.2.6,1.9s0,.4,0,.5h-1.7ZM49.8,22.3c-.5,0-.9,0-1.1.3-.3.2-.5.4-.6.7h3.3c-.1-.3-.3-.5-.5-.7-.3-.2-.6-.3-1-.3ZM62.7,24.5h-4.6c0,.4.3.7.5,1,.3.3.7.4,1.3.4s.8,0,1.1-.2c.3-.2.6-.4.8-.7.6.3,1.5.6,2.5,1-.3.7-.8,1.2-1.6,1.6-.8.4-1.7.6-3,.6s-2.8-.4-3.5-1.1c-.8-.7-1.1-1.7-1.1-2.9s.4-2.1,1.1-2.8c.8-.7,1.9-1.1,3.5-1.1s1.8.2,2.5.5c.7.3,1.2.8,1.6,1.3.4.6.6,1.2.6,1.9s0,.4,0,.5h-1.7ZM60,22.3c-.5,0-.8,0-1.1.3-.3.2-.5.4-.6.7h3.3c-.1-.3-.3-.5-.5-.7-.3-.2-.6-.3-1-.3ZM70.9,28c0-1.4,0-2.6,0-3.8s-.1-.7-.3-1c-.2-.2-.4-.4-.8-.4s-.6.1-.8.4c-.2.3-.3.6-.4,1.1,0,.7,0,1.2,0,1.5,0,.6,0,1.3,0,2.1h-3.3c0-1.3.1-2.6.1-3.8s0-2.5-.1-3.8c.6,0,1.1,0,1.4,0s.8,0,1.4,0l.4,2.1c.2-.7.6-1.3,1-1.7.5-.4,1-.5,1.6-.5s1,.1,1.5.4c.4.2.7.6.9,1,.2.4.3.9.3,1.4v2c0,1.2,0,2.2,0,3h-3.2ZM86.1,22.9c2.1,0,3.2.7,3.2,2s-.1,1.2-.4,1.6c-.3.4-.8.8-1.6,1-.7.2-1.8.4-3.1.4h-6.3c0-1.8.1-3.5.1-5.1s0-3.3-.1-5.1h3.3s3,0,3,0c1.2,0,2.1,0,2.7.3.7.2,1.1.5,1.4.8.3.4.4.8.4,1.4s-.2,1.1-.6,1.5c-.4.4-1.1.8-2,1.1ZM81.2,20.4v1.3h2.7c.6,0,1,0,1.2-.2.2-.1.4-.3.4-.6s-.1-.4-.4-.4c-.2,0-.6-.1-1.2-.1h-2.7ZM83.9,25.4c.5,0,.9,0,1.1,0,.3,0,.4-.1.6-.2.1-.1.2-.3.2-.4s-.1-.4-.4-.5c-.3-.1-.7-.2-1.4-.2h-2.7v1.4h2.7ZM97.9,24.5h-4.6c0,.4.3.7.5,1,.3.3.7.4,1.3.4s.8,0,1.1-.2c.3-.2.6-.4.8-.7.6.3,1.5.6,2.5,1-.3.7-.8,1.2-1.6,1.6-.8.4-1.7.6-3,.6s-2.8-.4-3.5-1.1c-.8-.7-1.1-1.7-1.1-2.9s.4-2.1,1.1-2.8c.8-.7,1.9-1.1,3.5-1.1s1.8.2,2.5.5c.7.3,1.2.8,1.6,1.3.4.6.6,1.2.6,1.9s0,.4,0,.5h-1.7ZM95.2,22.3c-.5,0-.9,0-1.1.3-.3.2-.5.4-.6.7h3.3c-.1-.3-.3-.5-.5-.7-.3-.2-.6-.3-1-.3ZM109.6,25.7c0,.3,0,.5.1.7,0,.1.2.2.4.3v1.3c-.4,0-.6,0-.8,0-.2,0-.5,0-.9,0-.8,0-1.3-.2-1.6-.5-.3-.4-.4-.8-.4-1.4v-.4c-.3.8-.7,1.3-1.2,1.7-.5.4-1.2.6-2,.6s-1.6-.2-2.1-.6c-.5-.4-.7-.9-.7-1.7s.2-1.1.6-1.4c.4-.3,1-.6,1.9-.7-.7-.5-1.4-.9-2.1-1.3.6-.7,1.2-1.2,1.9-1.6.7-.4,1.6-.6,2.6-.6s2.5.3,3.2.9c.7.6,1.1,1.6,1.1,2.9v1.7ZM105.6,22.7c-.5,0-.9,0-1.3.2-.4.2-.7.4-1,.7.6,0,1.3,0,2.1,0s.6,0,.7-.1c.1,0,.2-.2.2-.3s0-.2-.2-.3c-.1,0-.3-.1-.6-.1ZM104.2,25.8c.5,0,1,0,1.4-.3.4-.2.7-.5.9-.8v-.4c-.2.1-.5.2-.7.3-.3,0-.6.1-1,.2h-.5c-.5.2-.8.4-.8.6s.2.4.7.4ZM116.4,28c0-1.4,0-2.6,0-3.8s-.1-.7-.3-1c-.2-.2-.4-.4-.8-.4s-.6.1-.8.4c-.2.3-.3.6-.4,1.1,0,.7,0,1.2,0,1.5,0,.6,0,1.3,0,2.1h-3.3c0-1.3.1-2.6.1-3.8s0-2.5-.1-3.8c.6,0,1.1,0,1.4,0s.8,0,1.4,0l.4,2.1c.2-.7.6-1.3,1-1.7.5-.4,1-.5,1.6-.5s1,.1,1.5.4c.4.2.7.6.9,1,.2.4.3.9.3,1.4v2c0,1.2,0,2.2,0,3h-3.2ZM131.6,20.6c-1.1,0-1.9,0-2.5,0v4.8c.5,0,1.4,0,2.5,0v2.8h-8.1v-2.8c1.1,0,1.9,0,2.5,0v-4.8c-.6,0-1.4,0-2.5,0v-2.8h8.1v2.8ZM138.2,28c0-1.4,0-2.6,0-3.8s-.1-.7-.3-1c-.2-.2-.4-.4-.8-.4s-.6.1-.8.4c-.2.3-.3.6-.4,1.1,0,.7,0,1.2,0,1.5,0,.6,0,1.3,0,2.1h-3.3c0-1.3.1-2.6.1-3.8s0-2.5-.1-3.8c.6,0,1.1,0,1.4,0s.8,0,1.4,0l.4,2.1c.2-.7.6-1.3,1-1.7.5-.4,1-.5,1.6-.5s1,.1,1.5.4c.4.2.7.6.9,1,.2.4.3.9.3,1.4v2c0,1.2,0,2.2,0,3h-3.2ZM148.8,22.9c-.9,0-1.6,0-2.4-.1v1.5c0,.5,0,.9.3,1.2.2.3.6.4,1.2.4s.4,0,.6,0c0,.3,0,.7,0,1.1s0,.6,0,1.1c-.4,0-.8.1-1,.1s-.6,0-1.1,0c-1.1,0-1.9-.3-2.3-.8-.4-.5-.7-1.3-.7-2.2v-2.4c-.4,0-.9,0-1.4,0v-2.5c.5,0,.9-.2,1.2-.5.3-.3.5-.7.6-1.1h3.8c-.5.7-1,1.2-1.6,1.6h2.7v2.5ZM158.7,25.7c0,.3,0,.5.1.7,0,.1.2.2.4.3v1.3c-.4,0-.6,0-.8,0-.2,0-.5,0-.9,0-.8,0-1.3-.2-1.6-.5-.3-.4-.4-.8-.4-1.4v-.4c-.3.8-.7,1.3-1.2,1.7-.5.4-1.2.6-2,.6s-1.6-.2-2.1-.6c-.5-.4-.7-.9-.7-1.7s.2-1.1.6-1.4c.4-.3,1-.6,1.9-.7-.7-.5-1.4-.9-2.1-1.3.6-.7,1.2-1.2,1.9-1.6.7-.4,1.6-.6,2.6-.6s2.5.3,3.2.9c.7.6,1.1,1.6,1.1,2.9v1.7ZM154.7,22.7c-.5,0-.9,0-1.3.2-.4.2-.7.4-1,.7.6,0,1.3,0,2.1,0s.6,0,.7-.1c.1,0,.2-.2.2-.3s0-.2-.2-.3c-.1,0-.3-.1-.6-.1ZM153.2,25.8c.5,0,1,0,1.4-.3.4-.2.7-.5.9-.8v-.4c-.2.1-.5.2-.7.3-.3,0-.6.1-1,.2h-.5c-.5.2-.8.4-.8.6s.2.4.7.4ZM169.9,20.3l-3.5,3.2c1.2,1.7,2.3,3.2,3.3,4.5h-3.7l-.7-1.1c-.5-.8-.8-1.3-.9-1.5l-1.2,1.1v1.6h-3.2c0-1.8.1-3.6.1-5.4s0-3.7-.1-5.5h3.2v5.9c.9-.9,1.8-1.8,2.6-2.7h4.1ZM176.8,24.5h-4.6c0,.4.3.7.5,1,.3.3.7.4,1.3.4s.8,0,1.1-.2c.3-.2.6-.4.8-.7.6.3,1.5.6,2.5,1-.3.7-.8,1.2-1.6,1.6-.8.4-1.7.6-3,.6s-2.8-.4-3.5-1.1c-.8-.7-1.1-1.7-1.1-2.9s.4-2.1,1.1-2.8c.8-.7,1.9-1.1,3.5-1.1s1.8.2,2.5.5c.7.3,1.2.8,1.6,1.3.4.6.6,1.2.6,1.9s0,.4,0,.5h-1.7ZM174.1,22.3c-.5,0-.8,0-1.1.3-.3.2-.5.4-.6.7h3.3c-.1-.3-.3-.5-.5-.7-.3-.2-.6-.3-1-.3Z" style="fill: #f7f8f8; stroke-width: 0px;"/>
</svg>