<svg width="231" height="44" viewBox="0 0 231 44" fill="none" xmlns="http://www.w3.org/2000/svg">
<g filter="url(#filter0_b_5847_32403)">
<path d="M33.0179 22.946C35.1459 22.946 36.2099 23.6227 36.2099 24.976C36.2099 25.6107 36.0652 26.152 35.7759 26.6C35.4866 27.0387 34.9686 27.384 34.2219 27.636C33.4752 27.8787 32.4392 28 31.1139 28H24.8139C24.8886 26.1893 24.9259 24.4953 24.9259 22.918C24.9259 21.3407 24.8886 19.6467 24.8139 17.836H28.1039V17.85H31.0859C32.2432 17.85 33.1532 17.948 33.8159 18.144C34.4879 18.3307 34.9592 18.606 35.2299 18.97C35.5099 19.334 35.6499 19.796 35.6499 20.356C35.6499 20.9253 35.4492 21.434 35.0479 21.882C34.6559 22.3207 33.9792 22.6753 33.0179 22.946ZM28.1039 20.398V21.7H30.7919C31.3706 21.7 31.7719 21.6487 31.9959 21.546C32.2292 21.4433 32.3459 21.2567 32.3459 20.986C32.3459 20.7713 32.2246 20.622 31.9819 20.538C31.7486 20.4447 31.3519 20.398 30.7919 20.398H28.1039ZM30.7919 25.438C31.2772 25.438 31.6459 25.4193 31.8979 25.382C32.1592 25.3353 32.3459 25.2607 32.4579 25.158C32.5699 25.046 32.6259 24.8967 32.6259 24.71C32.6259 24.4673 32.4906 24.2947 32.2199 24.192C31.9586 24.08 31.4826 24.024 30.7919 24.024H28.1039V25.438H30.7919ZM41.8317 28.14C40.2357 28.14 39.0597 27.776 38.3037 27.048C37.557 26.3107 37.1837 25.3447 37.1837 24.15C37.1837 22.9833 37.557 22.036 38.3037 21.308C39.0597 20.58 40.2357 20.216 41.8317 20.216C42.905 20.216 43.801 20.3933 44.5197 20.748C45.2477 21.0933 45.7843 21.5647 46.1297 22.162C46.475 22.75 46.6477 23.4127 46.6477 24.15C46.6477 25.354 46.2463 26.32 45.4437 27.048C44.6503 27.776 43.4463 28.14 41.8317 28.14ZM41.8877 25.76C42.4943 25.76 42.947 25.6153 43.2457 25.326C43.5443 25.0367 43.6937 24.6493 43.6937 24.164C43.6937 23.7067 43.5443 23.3333 43.2457 23.044C42.947 22.7453 42.4943 22.596 41.8877 22.596C41.281 22.596 40.8377 22.7407 40.5577 23.03C40.2777 23.3193 40.1377 23.6973 40.1377 24.164C40.1377 24.6493 40.2777 25.0367 40.5577 25.326C40.8377 25.6153 41.281 25.76 41.8877 25.76ZM53.4208 24.08L56.3608 28H52.8888C52.7115 27.6453 52.3848 27.1273 51.9088 26.446L51.5868 25.984C51.5308 26.068 51.4655 26.1567 51.3908 26.25C51.3255 26.3433 51.2602 26.446 51.1948 26.558C51.0082 26.8193 50.8308 27.076 50.6628 27.328C50.5042 27.58 50.3735 27.804 50.2708 28H46.7988L49.7388 24.08L46.9108 20.356H50.3688C50.4995 20.6173 50.7515 21.0233 51.1248 21.574L51.5868 22.274L51.9788 21.672C52.3708 21.084 52.6415 20.6453 52.7908 20.356H56.2488L53.4208 24.08ZM66.0602 22.862C65.2015 22.806 64.4175 22.764 63.7082 22.736L63.6942 24.22C63.6942 24.724 63.8015 25.1207 64.0162 25.41C64.2402 25.69 64.6322 25.83 65.1922 25.83C65.4069 25.83 65.6122 25.8113 65.8082 25.774C65.7709 26.1193 65.7522 26.4693 65.7522 26.824C65.7522 26.992 65.7615 27.3747 65.7802 27.972C65.3695 28.0467 65.0242 28.0933 64.7442 28.112C64.4642 28.1307 64.1002 28.14 63.6522 28.14C62.5602 28.14 61.7855 27.8787 61.3282 27.356C60.8802 26.824 60.6562 26.0867 60.6562 25.144L60.6702 22.778C60.2315 22.7967 59.7742 22.8247 59.2982 22.862V20.384C59.7835 20.384 60.1942 20.23 60.5302 19.922C60.8662 19.614 61.0669 19.2453 61.1322 18.816H64.9402C64.4642 19.4693 63.9369 19.992 63.3582 20.384H66.0602V22.862ZM70.1439 22.428C70.5359 21.0187 71.5113 20.314 73.0699 20.314C73.3406 20.314 73.6019 20.3327 73.8539 20.37L73.4059 23.506C72.7339 23.254 72.1833 23.128 71.7539 23.128C71.2219 23.128 70.8299 23.2867 70.5779 23.604C70.3259 23.9213 70.1999 24.346 70.1999 24.878V24.864L70.1859 25.788C70.1859 26.4507 70.2046 27.188 70.2419 28H66.8959C66.9706 26.656 67.0079 25.3867 67.0079 24.192C67.0079 22.9973 66.9706 21.7187 66.8959 20.356C67.5119 20.384 67.9833 20.398 68.3099 20.398C68.6553 20.398 69.1266 20.384 69.7239 20.356L70.1439 22.428ZM83.116 25.676C83.116 25.9933 83.1534 26.2173 83.228 26.348C83.3027 26.4787 83.452 26.572 83.676 26.628L83.62 27.944C83.3214 27.9907 83.06 28.0233 82.836 28.042C82.6214 28.0607 82.332 28.07 81.968 28.07C81.1654 28.07 80.6334 27.8927 80.372 27.538C80.1107 27.174 79.98 26.712 79.98 26.152V25.802C79.7094 26.5673 79.3127 27.1367 78.79 27.51C78.2767 27.8833 77.6187 28.07 76.816 28.07C75.8827 28.07 75.178 27.8833 74.702 27.51C74.2354 27.1367 74.002 26.5813 74.002 25.844C74.002 25.2373 74.2027 24.7613 74.604 24.416C75.0054 24.0707 75.626 23.8327 76.466 23.702C75.7567 23.198 75.0474 22.7593 74.338 22.386C74.898 21.6767 75.5374 21.14 76.256 20.776C76.9747 20.4027 77.8474 20.216 78.874 20.216C80.3114 20.216 81.3754 20.5287 82.066 21.154C82.766 21.77 83.116 22.722 83.116 24.01V25.676ZM79.168 22.68C78.692 22.68 78.272 22.7593 77.908 22.918C77.544 23.0767 77.2174 23.3147 76.928 23.632C77.488 23.5667 78.188 23.534 79.028 23.534C79.3734 23.534 79.616 23.492 79.756 23.408C79.896 23.324 79.966 23.2167 79.966 23.086C79.966 22.974 79.896 22.8807 79.756 22.806C79.616 22.722 79.42 22.68 79.168 22.68ZM77.698 25.788C78.2207 25.788 78.692 25.69 79.112 25.494C79.532 25.2887 79.8214 25.0227 79.98 24.696V24.332C79.756 24.444 79.5087 24.5327 79.238 24.598C78.9674 24.654 78.6407 24.71 78.258 24.766L77.754 24.85C77.2314 24.9527 76.97 25.13 76.97 25.382C76.97 25.6527 77.2127 25.788 77.698 25.788ZM89.979 28C90.035 26.628 90.063 25.3633 90.063 24.206C90.063 23.7953 89.9603 23.4687 89.755 23.226C89.559 22.9833 89.307 22.862 88.999 22.862C88.691 22.862 88.4297 23.002 88.215 23.282C88.0003 23.5527 87.8743 23.926 87.837 24.402C87.8183 25.1113 87.809 25.6153 87.809 25.914C87.809 26.5487 87.8277 27.244 87.865 28H84.519C84.5937 26.656 84.631 25.3867 84.631 24.192C84.631 22.9973 84.5937 21.7187 84.519 20.356C85.135 20.384 85.6063 20.398 85.933 20.398C86.2783 20.398 86.7497 20.384 87.347 20.356L87.753 22.414C87.9677 21.6673 88.3037 21.1167 88.761 20.762C89.2183 20.398 89.7503 20.216 90.357 20.216C90.917 20.216 91.4023 20.342 91.813 20.594C92.2237 20.8367 92.5317 21.168 92.737 21.588C92.9517 22.008 93.059 22.4793 93.059 23.002V25.018C93.059 26.2593 93.0823 27.2533 93.129 28H89.979ZM98.7754 28.14C97.9914 28.14 97.1934 28.0327 96.3814 27.818C95.5787 27.594 94.8227 27.258 94.1134 26.81L95.5834 24.808C96.0127 25.116 96.5307 25.3587 97.1374 25.536C97.744 25.704 98.2667 25.788 98.7054 25.788C99.1254 25.788 99.4474 25.732 99.6714 25.62C99.9047 25.4987 100.021 25.3447 100.021 25.158C100.021 25.0087 99.9654 24.892 99.8534 24.808C99.7414 24.724 99.5874 24.682 99.3914 24.682C99.27 24.682 99.13 24.6867 98.9714 24.696C98.822 24.7053 98.7007 24.7147 98.6074 24.724C98.122 24.78 97.6227 24.808 97.1094 24.808C96.2787 24.808 95.602 24.654 95.0794 24.346C94.566 24.0287 94.3094 23.5153 94.3094 22.806C94.3094 21.9847 94.6967 21.35 95.4714 20.902C96.246 20.4447 97.3847 20.216 98.8874 20.216C99.6247 20.216 100.367 20.3233 101.113 20.538C101.869 20.7433 102.537 21.056 103.115 21.476L101.505 23.1C100.973 22.82 100.474 22.624 100.007 22.512C99.55 22.3907 99.088 22.33 98.6214 22.33C98.2947 22.33 98.0147 22.3953 97.7814 22.526C97.548 22.6567 97.4314 22.806 97.4314 22.974C97.4314 23.1047 97.478 23.2073 97.5714 23.282C97.674 23.3567 97.8047 23.394 97.9634 23.394C98.122 23.394 98.3414 23.38 98.6214 23.352C99.3027 23.3053 99.8114 23.282 100.147 23.282C101.118 23.282 101.869 23.4453 102.401 23.772C102.933 24.0987 103.199 24.598 103.199 25.27C103.199 26.278 102.807 27.0107 102.023 27.468C101.239 27.916 100.157 28.14 98.7754 28.14ZM107.273 19.712C107.254 19.7587 107.245 19.8193 107.245 19.894C107.245 20.0433 107.306 20.1647 107.427 20.258C107.558 20.342 107.735 20.384 107.959 20.384H109.807V22.862C109.032 22.7967 108.416 22.7593 107.959 22.75C107.968 24.486 108.006 26.236 108.071 28H104.753C104.762 26.8987 104.767 25.1627 104.767 22.792C104.571 22.8013 104.235 22.8247 103.759 22.862V20.384H104.753V20.118C104.753 19.39 104.902 18.7693 105.201 18.256C105.5 17.7427 105.91 17.3553 106.433 17.094C106.965 16.8327 107.572 16.702 108.253 16.702C108.804 16.702 109.359 16.7813 109.919 16.94C109.732 17.6213 109.546 18.4753 109.359 19.502L109.275 19.922C109.07 19.7447 108.841 19.614 108.589 19.53C108.346 19.4367 108.122 19.39 107.917 19.39C107.749 19.39 107.609 19.418 107.497 19.474C107.385 19.53 107.31 19.6093 107.273 19.712ZM117.888 24.5H113.324C113.399 24.9107 113.581 25.2467 113.87 25.508C114.169 25.76 114.589 25.886 115.13 25.886C115.522 25.886 115.891 25.8113 116.236 25.662C116.581 25.5033 116.857 25.284 117.062 25.004C117.687 25.312 118.518 25.6433 119.554 25.998C119.265 26.6513 118.737 27.174 117.972 27.566C117.216 27.9487 116.227 28.14 115.004 28.14C113.417 28.14 112.241 27.776 111.476 27.048C110.72 26.3107 110.342 25.3447 110.342 24.15C110.342 22.9833 110.72 22.036 111.476 21.308C112.232 20.58 113.408 20.216 115.004 20.216C115.956 20.216 116.782 20.3747 117.482 20.692C118.182 21.0093 118.719 21.4527 119.092 22.022C119.465 22.582 119.652 23.226 119.652 23.954C119.652 24.1967 119.643 24.3787 119.624 24.5H117.888ZM115.2 22.33C114.733 22.33 114.351 22.4187 114.052 22.596C113.753 22.7733 113.543 23.016 113.422 23.324H116.726C116.614 23.0253 116.432 22.7873 116.18 22.61C115.928 22.4233 115.601 22.33 115.2 22.33ZM123.874 22.428C124.266 21.0187 125.242 20.314 126.8 20.314C127.071 20.314 127.332 20.3327 127.584 20.37L127.136 23.506C126.464 23.254 125.914 23.128 125.484 23.128C124.952 23.128 124.56 23.2867 124.308 23.604C124.056 23.9213 123.93 24.346 123.93 24.878V24.864L123.916 25.788C123.916 26.4507 123.935 27.188 123.972 28H120.626C120.701 26.656 120.738 25.3867 120.738 24.192C120.738 22.9973 120.701 21.7187 120.626 20.356C121.242 20.384 121.714 20.398 122.04 20.398C122.386 20.398 122.857 20.384 123.454 20.356L123.874 22.428ZM134.351 24.178C134.37 24.654 134.519 25.0367 134.799 25.326C135.089 25.6153 135.513 25.76 136.073 25.76C136.381 25.76 136.657 25.704 136.899 25.592C137.142 25.4707 137.366 25.2933 137.571 25.06C138.365 25.368 139.293 25.634 140.357 25.858C140.049 26.5767 139.527 27.1367 138.789 27.538C138.061 27.9393 137.114 28.14 135.947 28.14C134.389 28.14 133.236 27.776 132.489 27.048C131.743 26.32 131.369 25.3633 131.369 24.178C131.369 22.9927 131.743 22.036 132.489 21.308C133.236 20.58 134.389 20.216 135.947 20.216C137.114 20.216 138.061 20.4167 138.789 20.818C139.527 21.2193 140.049 21.7793 140.357 22.498C139.527 22.6753 138.598 22.9413 137.571 23.296C137.366 23.0627 137.142 22.89 136.899 22.778C136.657 22.6567 136.381 22.596 136.073 22.596C135.513 22.596 135.089 22.7407 134.799 23.03C134.519 23.3193 134.37 23.702 134.351 24.178ZM145.916 28.14C144.32 28.14 143.144 27.776 142.388 27.048C141.641 26.3107 141.268 25.3447 141.268 24.15C141.268 22.9833 141.641 22.036 142.388 21.308C143.144 20.58 144.32 20.216 145.916 20.216C146.989 20.216 147.885 20.3933 148.604 20.748C149.332 21.0933 149.868 21.5647 150.214 22.162C150.559 22.75 150.732 23.4127 150.732 24.15C150.732 25.354 150.33 26.32 149.528 27.048C148.734 27.776 147.53 28.14 145.916 28.14ZM145.972 25.76C146.578 25.76 147.031 25.6153 147.33 25.326C147.628 25.0367 147.778 24.6493 147.778 24.164C147.778 23.7067 147.628 23.3333 147.33 23.044C147.031 22.7453 146.578 22.596 145.972 22.596C145.365 22.596 144.922 22.7407 144.642 23.03C144.362 23.3193 144.222 23.6973 144.222 24.164C144.222 24.6493 144.362 25.0367 144.642 25.326C144.922 25.6153 145.365 25.76 145.972 25.76ZM157.176 28C157.232 26.628 157.26 25.3633 157.26 24.206C157.26 23.7953 157.158 23.4687 156.952 23.226C156.756 22.9833 156.504 22.862 156.196 22.862C155.888 22.862 155.627 23.002 155.412 23.282C155.198 23.5527 155.072 23.926 155.034 24.402C155.016 25.1113 155.006 25.6153 155.006 25.914C155.006 26.5487 155.025 27.244 155.062 28H151.716C151.791 26.656 151.828 25.3867 151.828 24.192C151.828 22.9973 151.791 21.7187 151.716 20.356C152.332 20.384 152.804 20.398 153.13 20.398C153.476 20.398 153.947 20.384 154.544 20.356L154.95 22.414C155.165 21.6673 155.501 21.1167 155.958 20.762C156.416 20.398 156.948 20.216 157.554 20.216C158.114 20.216 158.6 20.342 159.01 20.594C159.421 20.8367 159.729 21.168 159.934 21.588C160.149 22.008 160.256 22.4793 160.256 23.002V25.018C160.256 26.2593 160.28 27.2533 160.326 28H157.176ZM170.663 20.356C169.655 23.072 168.759 25.62 167.975 28H163.593C162.753 25.452 161.852 22.904 160.891 20.356H164.181L165.805 26.124L167.415 20.356H170.663ZM177.935 24.5H173.371C173.445 24.9107 173.627 25.2467 173.917 25.508C174.215 25.76 174.635 25.886 175.177 25.886C175.569 25.886 175.937 25.8113 176.283 25.662C176.628 25.5033 176.903 25.284 177.109 25.004C177.734 25.312 178.565 25.6433 179.601 25.998C179.311 26.6513 178.784 27.174 178.019 27.566C177.263 27.9487 176.273 28.14 175.051 28.14C173.464 28.14 172.288 27.776 171.523 27.048C170.767 26.3107 170.389 25.3447 170.389 24.15C170.389 22.9833 170.767 22.036 171.523 21.308C172.279 20.58 173.455 20.216 175.051 20.216C176.003 20.216 176.829 20.3747 177.529 20.692C178.229 21.0093 178.765 21.4527 179.139 22.022C179.512 22.582 179.699 23.226 179.699 23.954C179.699 24.1967 179.689 24.3787 179.671 24.5H177.935ZM175.247 22.33C174.78 22.33 174.397 22.4187 174.099 22.596C173.8 22.7733 173.59 23.016 173.469 23.324H176.773C176.661 23.0253 176.479 22.7873 176.227 22.61C175.975 22.4233 175.648 22.33 175.247 22.33ZM189.051 20.356L188.729 21.168C187.843 23.5293 186.914 25.8067 185.943 28C185.439 29.12 184.711 30.016 183.759 30.688C182.807 31.3693 181.613 31.696 180.175 31.668C179.998 30.8933 179.849 30.2867 179.727 29.848C179.615 29.4187 179.466 28.9847 179.279 28.546C179.793 28.6673 180.273 28.728 180.721 28.728C181.449 28.728 182.028 28.574 182.457 28.266C182.121 27.2673 181.725 26.194 181.267 25.046C180.81 23.898 180.147 22.3347 179.279 20.356H182.597C182.709 20.8227 182.863 21.364 183.059 21.98C183.255 22.596 183.451 23.1887 183.647 23.758C183.703 23.9353 183.792 24.206 183.913 24.57C184.044 24.9247 184.147 25.2233 184.221 25.466L184.585 24.36C185.285 22.3347 185.701 21 185.831 20.356H189.051ZM193.425 28.14C191.829 28.14 190.653 27.776 189.897 27.048C189.151 26.3107 188.777 25.3447 188.777 24.15C188.777 22.9833 189.151 22.036 189.897 21.308C190.653 20.58 191.829 20.216 193.425 20.216C194.499 20.216 195.395 20.3933 196.113 20.748C196.841 21.0933 197.378 21.5647 197.723 22.162C198.069 22.75 198.241 23.4127 198.241 24.15C198.241 25.354 197.84 26.32 197.037 27.048C196.244 27.776 195.04 28.14 193.425 28.14ZM193.481 25.76C194.088 25.76 194.541 25.6153 194.839 25.326C195.138 25.0367 195.287 24.6493 195.287 24.164C195.287 23.7067 195.138 23.3333 194.839 23.044C194.541 22.7453 194.088 22.596 193.481 22.596C192.875 22.596 192.431 22.7407 192.151 23.03C191.871 23.3193 191.731 23.6973 191.731 24.164C191.731 24.6493 191.871 25.0367 192.151 25.326C192.431 25.6153 192.875 25.76 193.481 25.76ZM202.474 22.428C202.866 21.0187 203.841 20.314 205.4 20.314C205.671 20.314 205.932 20.3327 206.184 20.37L205.736 23.506C205.064 23.254 204.513 23.128 204.084 23.128C203.552 23.128 203.16 23.2867 202.908 23.604C202.656 23.9213 202.53 24.346 202.53 24.878V24.864L202.516 25.788C202.516 26.4507 202.535 27.188 202.572 28H199.226C199.301 26.656 199.338 25.3867 199.338 24.192C199.338 22.9973 199.301 21.7187 199.226 20.356C199.842 20.384 200.313 20.398 200.64 20.398C200.985 20.398 201.457 20.384 202.054 20.356L202.474 22.428Z" fill="#F8F8F8"/>
</g>
<defs>
<filter id="filter0_b_5847_32403" x="-9.57055" y="-9.57055" width="250.141" height="63.1411" filterUnits="userSpaceOnUse" color-interpolation-filters="sRGB">
<feFlood flood-opacity="0" result="BackgroundImageFix"/>
<feGaussianBlur in="BackgroundImageFix" stdDeviation="4.78528"/>
<feComposite in2="SourceAlpha" operator="in" result="effect1_backgroundBlur_5847_32403"/>
<feBlend mode="normal" in="SourceGraphic" in2="effect1_backgroundBlur_5847_32403" result="shape"/>
</filter>
</defs>
</svg>
