<svg xmlns="http://www.w3.org/2000/svg" width="107" height="44" viewBox="0 0 107 44">
  <path d="M35,15.1h1.7v13.8h-1.7v-6.8h-1.4v6h-1.7v-12.8h1.7v5.3h1.4v-5.6ZM24.7,25v-1.4h1.1v-6h-1.1v-1.4h6.6v1.4h-1v6h1v1.4h-6.6ZM27.3,23.6h1.3v-6h-1.3v6ZM38.8,21.5c1.9-.4,3.5-.8,4.4-1.8h-4.1v-1.4h4.8c.1-.4.1-.8.1-1.2h0s-5,0-5,0v-1.4h6.5v1.5c0,4.2-3.4,5.3-6.5,5.9l-.3-1.5ZM42.2,26.5c0-1.8,1.5-3.1,3.6-3.1s3.6,1.3,3.6,3.1-1.5,3.1-3.6,3.1-3.6-1.3-3.6-3.1ZM44,26.5c0,1,.8,1.6,1.9,1.6s1.9-.7,1.9-1.6-.8-1.6-1.9-1.6-1.9.7-1.9,1.6ZM48.3,23.4v-8.4h1.8v8.4h-1.8ZM56.4,25v-8.9h6.6v3.8h2.9v-4.9h1.8v13.8h-1.8v-7.4h-2.9v3.6h-6.6ZM58.1,23.6h3.2v-6.1h-3.2v6.1ZM79.5,24.9v-9.9h1.8v9.9h-1.8ZM70,22.1l2.4-2.9c.5-.7.6-1,.6-1.5v-1.9h1.7v1.9c0,.5,0,.9.6,1.5l2.4,2.9-1.2,1-2.4-2.9c0-.1-.2-.2-.2-.3,0,0-.1.2-.2.3l-2.4,2.9-1.2-1ZM72.4,29v-4.7h1.8v3.3h7.2v1.4h-9Z" style="fill: #f7f8f8; stroke-width: 0px;"/>
</svg>