<svg width="241" height="44" viewBox="0 0 241 44" fill="none" xmlns="http://www.w3.org/2000/svg">
<g filter="url(#filter0_b_5847_32381)">
<path d="M35.8736 20.454H28.2576V21.924C28.7336 21.9333 29.4476 21.938 30.3996 21.938C32.0422 21.938 33.7129 21.91 35.4116 21.854V24.598C33.7129 24.5327 31.9209 24.5 30.0356 24.5C29.2516 24.5 28.6589 24.5047 28.2576 24.514V28H24.9536C25.0282 26.1893 25.0656 24.4953 25.0656 22.918C25.0656 21.3407 25.0282 19.6467 24.9536 17.836H35.8736V20.454ZM40.2885 22.4C40.2791 22.96 40.2745 23.8187 40.2745 24.976C40.2745 26.3667 40.2838 27.3747 40.3025 28H36.9985L37.0125 26.418C37.0311 24.682 37.0405 23.3427 37.0405 22.4C37.0405 21.504 37.0311 20.2347 37.0125 18.592L36.9985 17.08H40.3025C40.2838 18.4053 40.2745 19.488 40.2745 20.328C40.2745 21.2613 40.2791 21.952 40.2885 22.4ZM48.8342 24.5H44.2702C44.3448 24.9107 44.5268 25.2467 44.8162 25.508C45.1148 25.76 45.5348 25.886 46.0762 25.886C46.4682 25.886 46.8368 25.8113 47.1822 25.662C47.5275 25.5033 47.8028 25.284 48.0082 25.004C48.6335 25.312 49.4642 25.6433 50.5002 25.998C50.2108 26.6513 49.6835 27.174 48.9182 27.566C48.1622 27.9487 47.1728 28.14 45.9502 28.14C44.3635 28.14 43.1875 27.776 42.4222 27.048C41.6662 26.3107 41.2882 25.3447 41.2882 24.15C41.2882 22.9833 41.6662 22.036 42.4222 21.308C43.1782 20.58 44.3542 20.216 45.9502 20.216C46.9022 20.216 47.7282 20.3747 48.4282 20.692C49.1282 21.0093 49.6648 21.4527 50.0382 22.022C50.4115 22.582 50.5982 23.226 50.5982 23.954C50.5982 24.1967 50.5888 24.3787 50.5702 24.5H48.8342ZM46.1462 22.33C45.6795 22.33 45.2968 22.4187 44.9982 22.596C44.6995 22.7733 44.4895 23.016 44.3682 23.324H47.6722C47.5602 23.0253 47.3782 22.7873 47.1262 22.61C46.8742 22.4233 46.5475 22.33 46.1462 22.33ZM57.3613 24.08L60.3013 28H56.8293C56.6519 27.6453 56.3253 27.1273 55.8493 26.446L55.5273 25.984C55.4713 26.068 55.4059 26.1567 55.3313 26.25C55.2659 26.3433 55.2006 26.446 55.1353 26.558C54.9486 26.8193 54.7713 27.076 54.6033 27.328C54.4446 27.58 54.3139 27.804 54.2113 28H50.7393L53.6793 24.08L50.8513 20.356H54.3093C54.4399 20.6173 54.6919 21.0233 55.0653 21.574L55.5273 22.274L55.9193 21.672C56.3113 21.084 56.5819 20.6453 56.7313 20.356H60.1893L57.3613 24.08ZM62.7319 19.53C62.1439 19.53 61.7052 19.3853 61.4159 19.096C61.1359 18.8067 60.9959 18.4287 60.9959 17.962C60.9959 17.5047 61.1359 17.1267 61.4159 16.828C61.7052 16.5293 62.1439 16.38 62.7319 16.38C63.2919 16.38 63.7212 16.534 64.0199 16.842C64.3186 17.1407 64.4679 17.514 64.4679 17.962C64.4679 18.4287 64.3232 18.8067 64.0339 19.096C63.7446 19.3853 63.3106 19.53 62.7319 19.53ZM61.1079 28C61.1732 26.4973 61.2059 25.256 61.2059 24.276C61.2059 23.1093 61.1686 21.8027 61.0939 20.356H64.4539C64.3792 21.7467 64.3419 23.0533 64.3419 24.276C64.3419 25.3027 64.3746 26.544 64.4399 28H61.1079ZM71.7991 20.216C72.4244 20.216 72.9798 20.4073 73.4651 20.79C73.9598 21.1633 74.3424 21.6627 74.6131 22.288C74.8838 22.904 75.0191 23.562 75.0191 24.262C75.0191 24.9713 74.8838 25.6247 74.6131 26.222C74.3424 26.81 73.9644 27.2767 73.4791 27.622C72.9938 27.9673 72.4478 28.14 71.8411 28.14C71.1318 28.14 70.5158 27.9907 69.9931 27.692C69.4704 27.384 69.0784 26.9033 68.8171 26.25L68.4111 28H65.7231C65.7791 26.2453 65.8071 24.43 65.8071 22.554C65.8071 20.6593 65.7791 18.844 65.7231 17.108H68.8871L68.8451 18.83C68.7984 20.0433 68.7751 21.126 68.7751 22.078C69.0271 21.4433 69.4098 20.9767 69.9231 20.678C70.4458 20.37 71.0711 20.216 71.7991 20.216ZM70.3711 25.788C70.8191 25.788 71.1738 25.6387 71.4351 25.34C71.6964 25.0413 71.8271 24.654 71.8271 24.178C71.8271 23.7487 71.6824 23.4033 71.3931 23.142C71.1131 22.8713 70.7631 22.736 70.3431 22.736C70.1284 22.736 69.9044 22.7873 69.6711 22.89C69.4378 22.9833 69.2371 23.142 69.0691 23.366C68.9011 23.5807 68.8171 23.8513 68.8171 24.178C68.8171 24.7567 68.9478 25.172 69.2091 25.424C69.4704 25.6667 69.8578 25.788 70.3711 25.788ZM79.4311 22.4C79.4217 22.96 79.4171 23.8187 79.4171 24.976C79.4171 26.3667 79.4264 27.3747 79.4451 28H76.1411L76.1551 26.418C76.1737 24.682 76.1831 23.3427 76.1831 22.4C76.1831 21.504 76.1737 20.2347 76.1551 18.592L76.1411 17.08H79.4451C79.4264 18.4053 79.4171 19.488 79.4171 20.328C79.4171 21.2613 79.4217 21.952 79.4311 22.4ZM87.9767 24.5H83.4127C83.4874 24.9107 83.6694 25.2467 83.9587 25.508C84.2574 25.76 84.6774 25.886 85.2187 25.886C85.6107 25.886 85.9794 25.8113 86.3247 25.662C86.6701 25.5033 86.9454 25.284 87.1507 25.004C87.7761 25.312 88.6067 25.6433 89.6427 25.998C89.3534 26.6513 88.8261 27.174 88.0607 27.566C87.3047 27.9487 86.3154 28.14 85.0927 28.14C83.5061 28.14 82.3301 27.776 81.5647 27.048C80.8087 26.3107 80.4307 25.3447 80.4307 24.15C80.4307 22.9833 80.8087 22.036 81.5647 21.308C82.3207 20.58 83.4967 20.216 85.0927 20.216C86.0447 20.216 86.8707 20.3747 87.5707 20.692C88.2707 21.0093 88.8074 21.4527 89.1807 22.022C89.5541 22.582 89.7407 23.226 89.7407 23.954C89.7407 24.1967 89.7314 24.3787 89.7127 24.5H87.9767ZM85.2887 22.33C84.8221 22.33 84.4394 22.4187 84.1407 22.596C83.8421 22.7733 83.6321 23.016 83.5107 23.324H86.8147C86.7027 23.0253 86.5207 22.7873 86.2687 22.61C86.0167 22.4233 85.6901 22.33 85.2887 22.33ZM96.766 22.428C97.158 21.0187 98.1333 20.314 99.692 20.314C99.9627 20.314 100.224 20.3327 100.476 20.37L100.028 23.506C99.356 23.254 98.8053 23.128 98.376 23.128C97.844 23.128 97.452 23.2867 97.2 23.604C96.948 23.9213 96.822 24.346 96.822 24.878V24.864L96.808 25.788C96.808 26.4507 96.8267 27.188 96.864 28H93.518C93.5927 26.656 93.63 25.3867 93.63 24.192C93.63 22.9973 93.5927 21.7187 93.518 20.356C94.134 20.384 94.6053 20.398 94.932 20.398C95.2773 20.398 95.7487 20.384 96.346 20.356L96.766 22.428ZM105.682 28.14C104.086 28.14 102.91 27.776 102.154 27.048C101.408 26.3107 101.034 25.3447 101.034 24.15C101.034 22.9833 101.408 22.036 102.154 21.308C102.91 20.58 104.086 20.216 105.682 20.216C106.756 20.216 107.652 20.3933 108.37 20.748C109.098 21.0933 109.635 21.5647 109.98 22.162C110.326 22.75 110.498 23.4127 110.498 24.15C110.498 25.354 110.097 26.32 109.294 27.048C108.501 27.776 107.297 28.14 105.682 28.14ZM105.738 25.76C106.345 25.76 106.798 25.6153 107.096 25.326C107.395 25.0367 107.544 24.6493 107.544 24.164C107.544 23.7067 107.395 23.3333 107.096 23.044C106.798 22.7453 106.345 22.596 105.738 22.596C105.132 22.596 104.688 22.7407 104.408 23.03C104.128 23.3193 103.988 23.6973 103.988 24.164C103.988 24.6493 104.128 25.0367 104.408 25.326C104.688 25.6153 105.132 25.76 105.738 25.76ZM114.773 22.4C114.764 22.96 114.759 23.8187 114.759 24.976C114.759 26.3667 114.768 27.3747 114.787 28H111.483L111.497 26.418C111.516 24.682 111.525 23.3427 111.525 22.4C111.525 21.504 111.516 20.2347 111.497 18.592L111.483 17.08H114.787C114.768 18.4053 114.759 19.488 114.759 20.328C114.759 21.2613 114.764 21.952 114.773 22.4ZM119.203 22.4C119.193 22.96 119.189 23.8187 119.189 24.976C119.189 26.3667 119.198 27.3747 119.217 28H115.913L115.927 26.418C115.945 24.682 115.955 23.3427 115.955 22.4C115.955 21.504 115.945 20.2347 115.927 18.592L115.913 17.08H119.217C119.198 18.4053 119.189 19.488 119.189 20.328C119.189 21.2613 119.193 21.952 119.203 22.4ZM127.748 24.5H123.184C123.259 24.9107 123.441 25.2467 123.73 25.508C124.029 25.76 124.449 25.886 124.99 25.886C125.382 25.886 125.751 25.8113 126.096 25.662C126.442 25.5033 126.717 25.284 126.922 25.004C127.548 25.312 128.378 25.6433 129.414 25.998C129.125 26.6513 128.598 27.174 127.832 27.566C127.076 27.9487 126.087 28.14 124.864 28.14C123.278 28.14 122.102 27.776 121.336 27.048C120.58 26.3107 120.202 25.3447 120.202 24.15C120.202 22.9833 120.58 22.036 121.336 21.308C122.092 20.58 123.268 20.216 124.864 20.216C125.816 20.216 126.642 20.3747 127.342 20.692C128.042 21.0093 128.579 21.4527 128.952 22.022C129.326 22.582 129.512 23.226 129.512 23.954C129.512 24.1967 129.503 24.3787 129.484 24.5H127.748ZM125.06 22.33C124.594 22.33 124.211 22.4187 123.912 22.596C123.614 22.7733 123.404 23.016 123.282 23.324H126.586C126.474 23.0253 126.292 22.7873 126.04 22.61C125.788 22.4233 125.462 22.33 125.06 22.33ZM133.735 22.428C134.127 21.0187 135.102 20.314 136.661 20.314C136.931 20.314 137.193 20.3327 137.445 20.37L136.997 23.506C136.325 23.254 135.774 23.128 135.345 23.128C134.813 23.128 134.421 23.2867 134.169 23.604C133.917 23.9213 133.791 24.346 133.791 24.878V24.864L133.777 25.788C133.777 26.4507 133.795 27.188 133.833 28H130.487C130.561 26.656 130.599 25.3867 130.599 24.192C130.599 22.9973 130.561 21.7187 130.487 20.356C131.103 20.384 131.574 20.398 131.901 20.398C132.246 20.398 132.717 20.384 133.315 20.356L133.735 22.428ZM144.212 24.178C144.23 24.654 144.38 25.0367 144.66 25.326C144.949 25.6153 145.374 25.76 145.934 25.76C146.242 25.76 146.517 25.704 146.76 25.592C147.002 25.4707 147.226 25.2933 147.432 25.06C148.225 25.368 149.154 25.634 150.218 25.858C149.91 26.5767 149.387 27.1367 148.65 27.538C147.922 27.9393 146.974 28.14 145.808 28.14C144.249 28.14 143.096 27.776 142.35 27.048C141.603 26.32 141.23 25.3633 141.23 24.178C141.23 22.9927 141.603 22.036 142.35 21.308C143.096 20.58 144.249 20.216 145.808 20.216C146.974 20.216 147.922 20.4167 148.65 20.818C149.387 21.2193 149.91 21.7793 150.218 22.498C149.387 22.6753 148.458 22.9413 147.432 23.296C147.226 23.0627 147.002 22.89 146.76 22.778C146.517 22.6567 146.242 22.596 145.934 22.596C145.374 22.596 144.949 22.7407 144.66 23.03C144.38 23.3193 144.23 23.702 144.212 24.178ZM155.776 28.14C154.18 28.14 153.004 27.776 152.248 27.048C151.501 26.3107 151.128 25.3447 151.128 24.15C151.128 22.9833 151.501 22.036 152.248 21.308C153.004 20.58 154.18 20.216 155.776 20.216C156.849 20.216 157.745 20.3933 158.464 20.748C159.192 21.0933 159.729 21.5647 160.074 22.162C160.419 22.75 160.592 23.4127 160.592 24.15C160.592 25.354 160.191 26.32 159.388 27.048C158.595 27.776 157.391 28.14 155.776 28.14ZM155.832 25.76C156.439 25.76 156.891 25.6153 157.19 25.326C157.489 25.0367 157.638 24.6493 157.638 24.164C157.638 23.7067 157.489 23.3333 157.19 23.044C156.891 22.7453 156.439 22.596 155.832 22.596C155.225 22.596 154.782 22.7407 154.502 23.03C154.222 23.3193 154.082 23.6973 154.082 24.164C154.082 24.6493 154.222 25.0367 154.502 25.326C154.782 25.6153 155.225 25.76 155.832 25.76ZM167.037 28C167.093 26.628 167.121 25.3633 167.121 24.206C167.121 23.7953 167.018 23.4687 166.813 23.226C166.617 22.9833 166.365 22.862 166.057 22.862C165.749 22.862 165.487 23.002 165.273 23.282C165.058 23.5527 164.932 23.926 164.895 24.402C164.876 25.1113 164.867 25.6153 164.867 25.914C164.867 26.5487 164.885 27.244 164.923 28H161.577C161.651 26.656 161.689 25.3867 161.689 24.192C161.689 22.9973 161.651 21.7187 161.577 20.356C162.193 20.384 162.664 20.398 162.991 20.398C163.336 20.398 163.807 20.384 164.405 20.356L164.811 22.414C165.025 21.6673 165.361 21.1167 165.819 20.762C166.276 20.398 166.808 20.216 167.415 20.216C167.975 20.216 168.46 20.342 168.871 20.594C169.281 20.8367 169.589 21.168 169.795 21.588C170.009 22.008 170.117 22.4793 170.117 23.002V25.018C170.117 26.2593 170.14 27.2533 170.187 28H167.037ZM180.523 20.356C179.515 23.072 178.619 25.62 177.835 28H173.453C172.613 25.452 171.712 22.904 170.751 20.356H174.041L175.665 26.124L177.275 20.356H180.523ZM187.795 24.5H183.231C183.306 24.9107 183.488 25.2467 183.777 25.508C184.076 25.76 184.496 25.886 185.037 25.886C185.429 25.886 185.798 25.8113 186.143 25.662C186.488 25.5033 186.764 25.284 186.969 25.004C187.594 25.312 188.425 25.6433 189.461 25.998C189.172 26.6513 188.644 27.174 187.879 27.566C187.123 27.9487 186.134 28.14 184.911 28.14C183.324 28.14 182.148 27.776 181.383 27.048C180.627 26.3107 180.249 25.3447 180.249 24.15C180.249 22.9833 180.627 22.036 181.383 21.308C182.139 20.58 183.315 20.216 184.911 20.216C185.863 20.216 186.689 20.3747 187.389 20.692C188.089 21.0093 188.626 21.4527 188.999 22.022C189.372 22.582 189.559 23.226 189.559 23.954C189.559 24.1967 189.55 24.3787 189.531 24.5H187.795ZM185.107 22.33C184.64 22.33 184.258 22.4187 183.959 22.596C183.66 22.7733 183.45 23.016 183.329 23.324H186.633C186.521 23.0253 186.339 22.7873 186.087 22.61C185.835 22.4233 185.508 22.33 185.107 22.33ZM198.912 20.356L198.59 21.168C197.703 23.5293 196.774 25.8067 195.804 28C195.3 29.12 194.572 30.016 193.62 30.688C192.668 31.3693 191.473 31.696 190.036 31.668C189.858 30.8933 189.709 30.2867 189.588 29.848C189.476 29.4187 189.326 28.9847 189.14 28.546C189.653 28.6673 190.134 28.728 190.582 28.728C191.31 28.728 191.888 28.574 192.318 28.266C191.982 27.2673 191.585 26.194 191.128 25.046C190.67 23.898 190.008 22.3347 189.14 20.356H192.458C192.57 20.8227 192.724 21.364 192.92 21.98C193.116 22.596 193.312 23.1887 193.508 23.758C193.564 23.9353 193.652 24.206 193.774 24.57C193.904 24.9247 194.007 25.2233 194.082 25.466L194.446 24.36C195.146 22.3347 195.561 21 195.692 20.356H198.912ZM203.286 28.14C201.69 28.14 200.514 27.776 199.758 27.048C199.011 26.3107 198.638 25.3447 198.638 24.15C198.638 22.9833 199.011 22.036 199.758 21.308C200.514 20.58 201.69 20.216 203.286 20.216C204.359 20.216 205.255 20.3933 205.974 20.748C206.702 21.0933 207.238 21.5647 207.584 22.162C207.929 22.75 208.102 23.4127 208.102 24.15C208.102 25.354 207.7 26.32 206.898 27.048C206.104 27.776 204.9 28.14 203.286 28.14ZM203.342 25.76C203.948 25.76 204.401 25.6153 204.7 25.326C204.998 25.0367 205.148 24.6493 205.148 24.164C205.148 23.7067 204.998 23.3333 204.7 23.044C204.401 22.7453 203.948 22.596 203.342 22.596C202.735 22.596 202.292 22.7407 202.012 23.03C201.732 23.3193 201.592 23.6973 201.592 24.164C201.592 24.6493 201.732 25.0367 202.012 25.326C202.292 25.6153 202.735 25.76 203.342 25.76ZM212.334 22.428C212.726 21.0187 213.702 20.314 215.26 20.314C215.531 20.314 215.792 20.3327 216.044 20.37L215.596 23.506C214.924 23.254 214.374 23.128 213.944 23.128C213.412 23.128 213.02 23.2867 212.768 23.604C212.516 23.9213 212.39 24.346 212.39 24.878V24.864L212.376 25.788C212.376 26.4507 212.395 27.188 212.432 28H209.086C209.161 26.656 209.198 25.3867 209.198 24.192C209.198 22.9973 209.161 21.7187 209.086 20.356C209.702 20.384 210.174 20.398 210.5 20.398C210.846 20.398 211.317 20.384 211.914 20.356L212.334 22.428Z" fill="#F8F8F8"/>
</g>
<defs>
<filter id="filter0_b_5847_32381" x="-9.57055" y="-9.57055" width="260.141" height="63.1411" filterUnits="userSpaceOnUse" color-interpolation-filters="sRGB">
<feFlood flood-opacity="0" result="BackgroundImageFix"/>
<feGaussianBlur in="BackgroundImageFix" stdDeviation="4.78528"/>
<feComposite in2="SourceAlpha" operator="in" result="effect1_backgroundBlur_5847_32381"/>
<feBlend mode="normal" in="SourceGraphic" in2="effect1_backgroundBlur_5847_32381" result="shape"/>
</filter>
</defs>
</svg>
