<svg xmlns="http://www.w3.org/2000/svg" width="161" height="44" viewBox="0 0 161 44">
  <path d="M30.8,28.1c-2.1,0-3.7-.4-4.7-1.3-1-.9-1.5-2.2-1.5-3.8s.5-3,1.5-4c1-1,2.6-1.5,4.7-1.5s4.9,1,5.9,3c-.8.3-1.8.7-3,1.3-.3-.5-.7-.9-1.3-1.2-.6-.3-1.2-.4-1.8-.4-.9,0-1.6.2-2,.7-.4.5-.7,1-.7,1.7s.2,1.4.7,1.8c.5.5,1.2.7,2.2.7s1.4-.1,1.8-.4c.5-.3.8-.7,1-1.2.8.4,1.7.9,2.9,1.4-.5,1.1-1.2,1.9-2.3,2.4s-2.3.7-3.6.7ZM42.4,28.1c-1.6,0-2.8-.4-3.5-1.1-.7-.7-1.1-1.7-1.1-2.9s.4-2.1,1.1-2.8c.8-.7,1.9-1.1,3.5-1.1s2,.2,2.7.5c.7.3,1.3.8,1.6,1.4.3.6.5,1.3.5,2,0,1.2-.4,2.2-1.2,2.9-.8.7-2,1.1-3.6,1.1ZM42.5,25.8c.6,0,1.1-.1,1.4-.4s.4-.7.4-1.2-.1-.8-.4-1.1c-.3-.3-.8-.4-1.4-.4s-1,.1-1.3.4-.4.7-.4,1.1.1.9.4,1.2.7.4,1.3.4ZM53.7,28c0-1.4,0-2.6,0-3.8s-.1-.7-.3-1c-.2-.2-.4-.4-.8-.4s-.6.1-.8.4c-.2.3-.3.6-.4,1.1,0,.7,0,1.2,0,1.5,0,.6,0,1.3,0,2.1h-3.3c0-1.3.1-2.6.1-3.8s0-2.5-.1-3.8c.6,0,1.1,0,1.4,0s.8,0,1.4,0l.4,2.1c.2-.7.5-1.3,1-1.7.5-.4,1-.5,1.6-.5s1,.1,1.5.4c.4.2.7.6.9,1,.2.4.3.9.3,1.4v2c0,1.2,0,2.2,0,3h-3.2ZM64.3,22.9c-.9,0-1.6,0-2.4-.1v1.5c0,.5,0,.9.3,1.2.2.3.6.4,1.2.4s.4,0,.6,0c0,.3,0,.7,0,1.1s0,.6,0,1.1c-.4,0-.8.1-1,.1-.3,0-.6,0-1.1,0-1.1,0-1.9-.3-2.3-.8-.4-.5-.7-1.3-.7-2.2v-2.4c-.4,0-.9,0-1.4,0v-2.5c.5,0,.9-.2,1.2-.5s.5-.7.6-1.1h3.8c-.5.7-1,1.2-1.6,1.6h2.7v2.5ZM68.4,22.4c.4-1.4,1.4-2.1,2.9-2.1s.5,0,.8,0l-.4,3.1c-.7-.3-1.2-.4-1.7-.4s-.9.2-1.2.5-.4.7-.4,1.3h0s0,.9,0,.9c0,.7,0,1.4,0,2.2h-3.3c0-1.3.1-2.6.1-3.8s0-2.5-.1-3.8c.6,0,1.1,0,1.4,0s.8,0,1.4,0l.4,2.1ZM77.3,28.1c-1.6,0-2.8-.4-3.5-1.1-.7-.7-1.1-1.7-1.1-2.9s.4-2.1,1.1-2.8c.8-.7,1.9-1.1,3.5-1.1s2,.2,2.7.5c.7.3,1.3.8,1.6,1.4.3.6.5,1.3.5,2,0,1.2-.4,2.2-1.2,2.9-.8.7-2,1.1-3.6,1.1ZM77.3,25.8c.6,0,1.1-.1,1.4-.4s.4-.7.4-1.2-.1-.8-.4-1.1c-.3-.3-.8-.4-1.4-.4s-1,.1-1.3.4c-.3.3-.4.7-.4,1.1s.1.9.4,1.2c.3.3.7.4,1.3.4ZM86.4,22.4c0,.6,0,1.4,0,2.6s0,2.4,0,3h-3.3v-1.6c0-1.7,0-3.1,0-4s0-2.2,0-3.8v-1.5s3.3,0,3.3,0c0,1.3,0,2.4,0,3.2s0,1.6,0,2.1ZM96.7,17.9c1.9,0,3.2.3,3.9,1,.7.7,1.1,1.6,1.1,2.8s-.1,1.5-.4,2.1c-.3.6-.8,1-1.5,1.3-.7.3-1.7.5-3,.5h-2.9v2.5h-3.4c0-1.8.1-3.5.1-5.1s0-3.3-.1-5.1h3.4s2.9,0,2.9,0ZM95.7,22.8c.8,0,1.4,0,1.7,0,.4,0,.7-.2.8-.3.2-.2.2-.4.2-.7s0-.5-.2-.7c-.1-.2-.4-.3-.8-.3-.4,0-1,0-1.8,0h-1.9v2.2h1.9ZM111.7,25.7c0,.3,0,.5.1.7,0,.1.2.2.4.3v1.3c-.4,0-.6,0-.8,0-.2,0-.5,0-.9,0-.8,0-1.3-.2-1.6-.5-.3-.4-.4-.8-.4-1.4v-.3c-.3.8-.7,1.3-1.2,1.7-.5.4-1.2.6-2,.6s-1.6-.2-2.1-.6c-.5-.4-.7-.9-.7-1.7s.2-1.1.6-1.4c.4-.3,1-.6,1.9-.7-.7-.5-1.4-.9-2.1-1.3.6-.7,1.2-1.2,1.9-1.6.7-.4,1.6-.6,2.6-.6s2.5.3,3.2.9c.7.6,1,1.6,1,2.9v1.7ZM107.8,22.7c-.5,0-.9,0-1.3.2s-.7.4-1,.7c.6,0,1.3,0,2.1,0s.6,0,.7-.1.2-.2.2-.3,0-.2-.2-.3c-.1,0-.3-.1-.6-.1ZM106.3,25.8c.5,0,1,0,1.4-.3.4-.2.7-.5.9-.8v-.4c-.2.1-.5.2-.7.3-.3,0-.6.1-1,.2h-.5c-.5.2-.8.4-.8.6s.2.4.7.4ZM118.6,28c0-1.4,0-2.6,0-3.8s-.1-.7-.3-1c-.2-.2-.4-.4-.8-.4s-.6.1-.8.4c-.2.3-.3.6-.4,1.1,0,.7,0,1.2,0,1.5,0,.6,0,1.3,0,2.1h-3.3c0-1.3.1-2.6.1-3.8s0-2.5-.1-3.8c.6,0,1.1,0,1.4,0s.8,0,1.4,0l.4,2.1c.2-.7.6-1.3,1-1.7.5-.4,1-.5,1.6-.5s1,.1,1.5.4c.4.2.7.6.9,1,.2.4.3.9.3,1.4v2c0,1.2,0,2.2,0,3h-3.2ZM130.3,24.5h-4.6c0,.4.3.7.5,1,.3.3.7.4,1.3.4s.8,0,1.1-.2c.3-.2.6-.4.8-.7.6.3,1.5.6,2.5,1-.3.7-.8,1.2-1.6,1.6-.8.4-1.7.6-3,.6s-2.8-.4-3.5-1.1c-.8-.7-1.1-1.7-1.1-2.9s.4-2.1,1.1-2.8c.8-.7,1.9-1.1,3.5-1.1s1.8.2,2.5.5,1.2.8,1.6,1.3c.4.6.6,1.2.6,1.9s0,.4,0,.5h-1.7ZM127.6,22.3c-.5,0-.9,0-1.1.3-.3.2-.5.4-.6.7h3.3c-.1-.3-.3-.5-.5-.7-.3-.2-.6-.3-1-.3ZM136.3,22.4c0,.6,0,1.4,0,2.6s0,2.4,0,3h-3.3v-1.6c0-1.7,0-3.1,0-4s0-2.2,0-3.8v-1.5s3.3,0,3.3,0c0,1.3,0,2.4,0,3.2s0,1.6,0,2.1Z" style="fill: #f7f8f8; stroke-width: 0px;"/>
</svg>