<svg xmlns="http://www.w3.org/2000/svg" width="166" height="44" viewBox="0 0 166 44">
  <path d="M35.2,15h1.7v13.8h-1.7v-13.8ZM24.5,24.2l2.2-3.6c.5-.9.6-1.4.6-2.1v-.8h-2.2v-1.4h6.2v1.4h-2.3v.8c0,.7.1,1.2.6,2.1l2.1,3.6-1.4.8-2.1-3.6h0c0,0,0,0,0,0l-2.2,3.6-1.4-.8ZM30.4,21v-1.4h1.9v-4.2h1.6v12.8h-1.6v-7.2h-1.9ZM38.5,21.7h12.9v1.4h-5.6v1.4h3.7v4.7h-9.2v-4.7h3.7v-1.4h-5.5v-1.4ZM40.1,20.7v-1.4h1.5v-2.4h-1.5v-1.4h9.6v1.4h-1.5v2.4h1.5v1.4h-9.6ZM42,27.7h5.7v-1.9h-5.7v1.9ZM43.3,19.2h3.2v-2.4h-3.2v2.4ZM65.9,15.1h1.8v9.7h-1.8v-9.7ZM56.4,21.9l2.5-2.7c.5-.6.6-1,.6-1.4v-.3h-2.8v-1.4h7.1v1.4h-2.6v.3c0,.5,0,.8.6,1.4l2.5,2.7-1.2,1.1-2.5-2.7c-.1,0-.2-.2-.3-.3,0,0-.2.2-.3.3l-2.5,2.7-1.2-1.1ZM58.6,29v-4.7h1.7v3.2h7.4v1.4h-9.2ZM79.6,15.1h1.8v7.6h-1.8v-7.6ZM70,19c0-2.1,1.5-3.5,3.7-3.5s3.7,1.5,3.7,3.5-1.5,3.5-3.7,3.5-3.7-1.5-3.7-3.5ZM71.8,19c0,1.2.8,2.1,2,2.1s2-.8,2-2.1-.8-2.1-2-2.1-2,.8-2,2.1ZM72.5,29.1v-5.8h1.7v1.5h5.4v-1.5h1.7v5.8h-8.9ZM74.3,27.7h5.4v-1.5h-5.4v1.5ZM87.5,22.1c1.8-.4,3.3-.9,4.2-2h-3.9v-1.4h4.6c.1-.4.2-.9.2-1.4h-4.7v-1.4h6.3v1.4h0c0,4.3-3.2,5.7-6.3,6.3l-.3-1.5ZM89.9,29v-4.6h1.8v3.2h7.5v1.4h-9.3ZM94.6,20.4v-1.4h2.6v-3.9h1.8v9.8h-1.8v-4.5h-2.6ZM111.4,15h1.7v13.8h-1.7v-13.8ZM101.5,25.3v-9.2h1.6v3.3h2.3v-3.3h1.6v3.6h1.5v-4.3h1.6v12.8h-1.6v-7.1h-1.5v4.2h-5.5ZM103.1,23.8h2.3v-3.2h-2.3v3.2ZM124.6,15h1.8v13.8h-1.8v-13.8ZM114.9,20.4c0-2.4,1.6-4.1,3.9-4.1s3.9,1.7,3.9,4.1-1.6,4-3.9,4-3.9-1.7-3.9-4ZM116.6,20.4c0,1.5.9,2.5,2.2,2.5s2.2-1,2.2-2.5-.9-2.6-2.2-2.6-2.2,1-2.2,2.6ZM132.4,24.4c-2.3,0-3.9-1.7-3.9-4s1.6-4.1,3.9-4.1,3.6,1.4,3.8,3.4h2.3v-4.7h1.8v13.8h-1.8v-7.7h-2.3c-.3,2-1.8,3.3-3.8,3.3ZM130.2,20.4c0,1.5.9,2.5,2.2,2.5s2.2-1,2.2-2.5-.9-2.6-2.2-2.6-2.2,1-2.2,2.6Z" style="fill: #f7f8f8; stroke-width: 0px;"/>
</svg>