<svg xmlns="http://www.w3.org/2000/svg" width="188" height="44" viewBox="0 0 188 44">
  <path d="M24.6,20.7h9v-3.8h-7.4v-1.4h9.2v5.2h2.1v1.4h-12.9v-1.4ZM26.4,29.1v-5.3h9.1v5.3h-9.1ZM28.2,27.7h5.6v-2.6h-5.6v2.6ZM38.4,21.8h5.5v-2.1h1.8v2.1h5.6v1.4h-12.9v-1.4ZM39.5,19.5l3.6-2.3c.8-.5.9-.9.9-1.2v-1.1h1.7v1.1c0,.4.1.7.9,1.2l3.6,2.3-.8,1.3-3.6-2.3c-.4-.2-.7-.5-.9-.8-.2.3-.5.5-.9.8l-3.6,2.3-.8-1.3ZM40.2,25.9v-1.4h9.2v4.8h-1.7v-3.4h-7.5ZM58.7,29.1v-5.4h8.9v5.4h-8.9ZM56.3,21.3c2.8-.5,4.9-1.6,4.9-4.2h-4.6v-1.4h6.2v1.4c0,3.5-3,5.2-6.3,5.8l-.3-1.6ZM60.4,27.7h5.5v-2.6h-5.5v2.6ZM63.2,20v-1.4h2.7v-3.5h1.8v8h-1.8v-3.1h-2.7ZM71.5,25.7h7.3v-1h-7.3v-1.3h3.7v-1h-5.5v-1.3h12.8v1.3h-5.5v1h3.6v3.5h-7.3v1h7.7v1.3h-9.4v-3.5ZM71,19.3l3.4-1.6c.4-.2.5-.3.6-.4h-3.6v-1.4h3.7v-.9h1.8v.9h3.7v1.4h-3.6c0,.1.3.3.6.4l3.4,1.6-.6,1.4-3.4-1.6c-.4-.2-.7-.4-1-.6-.2.2-.5.4-.9.6l-3.4,1.6-.6-1.4ZM85.8,26.5l-1.1,3.7h-1.3l.6-3.7h1.8ZM98.2,29.8c-2.2,0-3.8-1.3-3.8-3s1.1-2.6,2.9-2.9v-1.2h-5.5v-1.4h12.9v1.4h-5.6v1.2c1.8.3,2.9,1.3,2.9,2.9s-1.6,3-3.8,3ZM93.1,19.4l3.5-1.6c.6-.3.7-.6.8-.8h-3.9v-1.4h9.4v1.4h-3.9c0,.3.2.6.8.8l3.5,1.6-.6,1.4-3.5-1.6c-.4-.2-.7-.4-.9-.7-.2.2-.5.5-1,.7l-3.5,1.6-.6-1.4ZM96.1,26.8c0,.9.8,1.6,2.1,1.6s2.1-.7,2.1-1.6-.8-1.6-2.1-1.6-2.1.7-2.1,1.6ZM112.4,29.6c-2.1,0-3.6-1.3-3.6-3.1s1.5-3.1,3.6-3.1,3.6,1.3,3.6,3.1-1.5,3.1-3.6,3.1ZM106.2,22.6v-4.2h4.5v-1.2h-4.5v-1.4h6.2v4h-4.4v1.4h5.3v1.4h-7ZM110.5,26.5c0,1,.8,1.6,1.9,1.6s1.9-.7,1.9-1.6-.8-1.6-1.9-1.6-1.9.7-1.9,1.6ZM114.9,23.3v-8.3h1.8v2h2v1.5h-2v1.6h2v1.4h-2v1.9h-1.8ZM133,25v-5.4h-2.8v-1.4h2.8v-3.1h1.8v10h-1.8ZM123.3,22l2.4-2.9c.5-.6.6-1,.6-1.5v-1.9h1.7v1.9c0,.5,0,.8.6,1.5l2.4,2.9-1.2,1-2.4-2.9-.2-.3c0,0-.1.2-.2.3l-2.4,2.9-1.2-1ZM125.8,29v-4.6h1.8v3.2h7.3v1.4h-9.1ZM146.8,15.1h1.8v7.3h-1.8v-1.7h-2.7v1.2h-6.6v-6.2h1.8v1.9h3.1v-1.9h1.7v1.1h2.7v-1.7ZM139.2,20.4h3.1v-1.5h-3.1v1.5ZM139.5,24.4v-1.4h9v3.6h-7.3v1.1h7.6v1.4h-9.4v-3.8h7.2v-1h-7.3ZM144.1,19.3h2.7v-1.3h-2.7v1.3ZM160.5,15h1.8v13.8h-1.8v-13.8ZM151.2,23.6c2.8-.7,5.3-2.4,5.3-5.9h-4.9v-1.4h6.6v1.4h0c0,4.5-3.4,6.8-6.6,7.6l-.4-1.6Z" style="fill: #f7f8f8; stroke-width: 0px;"/>
</svg>